<?xml version="1.0" encoding="iso-8859-1"?>
<!-- Generator: Adobe Illustrator 19.0.0, SVG Export Plug-In . SVG Version: 6.00 Build 0)  -->
<svg version="1.1" id="Capa_1" xmlns="http://www.w3.org/2000/svg" xmlns:xlink="http://www.w3.org/1999/xlink" x="0px" y="0px"
	 viewBox="0 0 512 512" style="enable-background:new 0 0 512 512;" xml:space="preserve">
<g>
	<g>
		<path d="M284.832,66.144c20.64-25.376,41.632-35.52,41.856-35.616c6.816-3.136,10.56-10.624,8.928-17.952
			C334.016,5.248,327.52,0,320,0C178.848,0,64,114.848,64,256c0,96.064,70.912,175.872,163.168,189.856
			c-20.608,25.376-41.632,35.52-41.856,35.616c-6.816,3.136-10.56,10.592-8.928,17.952C177.984,506.752,184.48,512,192,512
			c141.152,0,256-114.848,256-256C448,159.936,377.088,80.096,284.832,66.144z M256,352c-53.024,0-96-42.976-96-96s42.976-96,96-96
			s96,42.976,96,96S309.024,352,256,352z" stroke="white" fill="white"/>
	</g>
</g>

</svg>
