<?xml version="1.0" encoding="utf-8"?>
<!-- Svg Vector Icons : http://www.onlinewebfonts.com/icon -->
<!DOCTYPE svg PUBLIC "-//W3C//DTD SVG 1.1//EN" "http://www.w3.org/Graphics/SVG/1.1/DTD/svg11.dtd">
<svg version="1.1" xmlns="http://www.w3.org/2000/svg" xmlns:xlink="http://www.w3.org/1999/xlink" x="0px" y="0px" viewBox="0 0 1000 1000" enable-background="new 0 0 1000 1000" xml:space="preserve">
<metadata> Svg Vector Icons : http://www.onlinewebfonts.com/icon </metadata>
<g><path d="M500,990C229.8,990,10,770.2,10,500C10,229.8,229.8,10,500,10c270.2,0,490,219.8,490,490S770.2,990,500,990z M500,80.3C268.6,80.3,80.3,268.6,80.3,500c0,231.4,188.3,419.7,419.7,419.7c231.4,0,419.7-188.3,419.7-419.7S731.4,80.3,500,80.3z"/><path d="M447.3,271.5c0,29.1,23.6,52.7,52.7,52.7c29.1,0,52.7-23.6,52.7-52.7c0-29.1-23.6-52.7-52.7-52.7C470.9,218.8,447.3,242.4,447.3,271.5z"/><path d="M500,781.2c-19.4,0-35.2-15.7-35.2-35.2V429.7c0-19.4,15.7-35.2,35.2-35.2s35.2,15.7,35.2,35.2v316.4C535.2,765.5,519.4,781.2,500,781.2z"/></g>
</svg>