<svg height="480pt" viewBox="0 -8 480 480" width="480pt" xmlns="http://www.w3.org/2000/svg"><path d="m434.398438 404.203125c-2.363282 0-4.722657.199219-7.054688.589844-11.472656-22.335938-34.648438-36.210938-59.757812-35.777344-25.109376.433594-47.789063 15.105469-58.480469 37.828125-4.984375-1.742188-10.226563-2.636719-15.503907-2.640625-24.507812-.628906-44.902343 18.695313-45.601562 43.199219.027344 3.699218.566406 7.375 1.601562 10.929687.957032 3.46875 4.113282 5.871094 7.710938 5.871094h213.359375c3.597656 0 6.753906-2.402344 7.710937-5.871094 1.039063-3.550781 1.585938-7.230469 1.617188-10.929687-.699219-24.503906-21.09375-43.828125-45.601562-43.199219zm29.601562 44h-200c0-.273437 0-.535156 0-.800781.695312-15.667969 13.929688-27.828125 29.601562-27.199219 5.6875 0 11.273438 1.554687 16.140626 4.496094 2.179687 1.316406 4.851562 1.515625 7.199218.542969 2.347656-.972657 4.097656-3.003907 4.707032-5.472657 6.238281-20.101562 24.527343-34.042969 45.5625-34.738281 21.039062-.695312 40.207031 12.011719 47.757812 31.660156 1.371094 4.152344 5.828125 6.433594 10 5.121094 3.0625-1.019531 6.265625-1.558594 9.496094-1.601562 15.644531-.589844 28.835937 11.550781 29.535156 27.191406zm0 0"/><path d="m8.886719 72.203125h142.226562c3.640625 0 6.824219-2.460937 7.742188-5.984375.734375-2.691406 1.117187-5.464844 1.144531-8.257812.011719-9.289063-3.902344-18.152344-10.777344-24.398438s-16.070312-9.296875-25.320312-8.398438c-7.828125-15.613281-23.882813-25.386718-41.347656-25.16015575-17.464844.22656275-33.265626 10.40624975-40.691407 26.21484375-3.082031-.863281-6.273437-1.273438-9.472656-1.214844-7.601563.273438-14.824219 3.398438-20.230469 8.75-9.890625 7.605469-14.238281 20.410156-11.015625 32.464844.917969 3.523438 4.101563 5.984375 7.742188 5.984375zm14.3125-26.886719c2.53125-2.554687 5.914062-4.089844 9.503906-4.3125 3.386719-.109375 6.726563.847656 9.542969 2.726563 2.191406 1.421875 4.9375 1.6875 7.355468.707031 2.421876-.976562 4.210938-3.074219 4.796876-5.617188 3.089843-12.941406 14.433593-22.234374 27.730468-22.710937s25.277344 7.972656 29.285156 20.660156c.640626 2.058594 2.082032 3.773438 4 4.753907 1.921876.96875 4.148438 1.132812 6.195313.464843 4.867187-1.746093 10.269531-1.136719 14.632813 1.644531 4.363281 2.777344 7.195312 7.417969 7.667968 12.570313h-127.765625c1.144531-4.285156 3.613281-8.09375 7.054688-10.886719zm0 0"/><path d="m227.480469 260.722656c-3.125-3.121094-8.1875-3.121094-11.3125 0l-101.824219 101.824219c-2.078125 2.007813-2.914062 4.984375-2.179688 7.78125.730469 2.796875 2.914063 4.980469 5.710938 5.710937 2.796875.734376 5.773438-.101562 7.78125-2.179687l101.824219-101.824219c3.121093-3.125 3.121093-8.1875 0-11.3125zm0 0"/><path d="m106.175781 454.027344c2.121094 0 4.15625-.84375 5.65625-2.34375l101.824219-101.824219c3.03125-3.140625 2.988281-8.128906-.097656-11.214844-3.085938-3.085937-8.074219-3.128906-11.214844-.097656l-101.824219 101.824219c-2.285156 2.289062-2.972656 5.726562-1.734375 8.71875 1.238282 2.988281 4.15625 4.9375 7.390625 4.9375zm0 0"/><path d="m60.519531 363.683594c3.125 3.121094 8.1875 3.121094 11.3125 0l93.824219-93.824219c3.03125-3.140625 2.988281-8.128906-.097656-11.214844-3.085938-3.085937-8.074219-3.128906-11.214844-.097656l-93.824219 93.824219c-3.121093 3.125-3.121093 8.1875 0 11.3125zm0 0"/><path d="m8 352.203125c2.121094 0 4.15625-.84375 5.65625-2.34375l64-64c3.03125-3.140625 2.988281-8.128906-.097656-11.214844-3.085938-3.085937-8.074219-3.128906-11.214844-.097656l-64 64c-2.2851562 2.289063-2.972656 5.726563-1.734375 8.71875 1.238281 2.988281 4.15625 4.9375 7.390625 4.9375zm0 0"/><path d="m96 400.203125c3.769531-.039063 6.992188-2.730469 7.699219-6.433594s-1.292969-7.390625-4.785157-8.816406c-3.488281-1.429687-7.5-.195313-9.589843 2.945313-2.085938 3.140624-1.671875 7.316406.996093 9.984374 1.535157 1.460938 3.5625 2.289063 5.679688 2.320313zm0 0"/><path d="m232 328.203125c3.769531-.039063 6.992188-2.730469 7.699219-6.433594s-1.292969-7.390625-4.785157-8.816406c-3.488281-1.429687-7.5-.195313-9.589843 2.945313-2.085938 3.140624-1.671875 7.316406.996093 9.984374 1.535157 1.460938 3.5625 2.289063 5.679688 2.320313zm0 0"/><path d="m36.960938 376.84375c-.96875.40625-1.863282.972656-2.640626 1.679688-3.09375 3.152343-3.09375 8.203124 0 11.359374.777344.707032 1.671876 1.273438 2.640626 1.679688 1.9375.851562 4.140624.851562 6.078124 0 .96875-.40625 1.863282-.972656 2.640626-1.679688.320312-.398437.640624-.800781.960937-1.28125.316406-.40625.558594-.867187.71875-1.359374.230469-.453126.394531-.9375.480469-1.4375.09375-.53125.148437-1.066407.160156-1.601563-.03125-2.117187-.859375-4.144531-2.320312-5.679687-.777344-.707032-1.671876-1.273438-2.640626-1.679688-1.945312-.800781-4.132812-.800781-6.078124 0zm0 0"/><path d="m95.769531 267.746094.4375-.4375c1.472657-1.488282 2.28125-3.507813 2.242188-5.597656-.039063-2.089844-.921875-4.078126-2.449219-5.507813-3.269531-3.0625-8.386719-2.964844-11.535156.222656-2.082032 2.007813-2.914063 4.984375-2.183594 7.78125.734375 2.796875 2.917969 4.980469 5.714844 5.714844 2.796875.730469 5.769531-.101563 7.78125-2.183594zm0 0"/><path d="m418.398438 303.691406c-.738282 4.125-3.242188 7.726563-6.855469 9.855469-3.675781 2.453125-4.667969 7.421875-2.214844 11.097656s7.417969 4.667969 11.097656 2.214844c7.261719-4.597656 12.253907-12.039063 13.75-20.503906 3.144531-18.402344-10.253906-36.90625-11.792969-38.953125-2.648437-3.535156-7.664062-4.25-11.199218-1.597656-3.535156 2.648437-4.25 7.664062-1.597656 11.199218 5.878906 7.636719 8.988281 17.046875 8.8125 26.6875zm0 0"/><path d="m400 320.203125c-4.417969 0-8 3.582031-8 8s3.582031 8 8 8h.078125c4.421875-.023437 7.984375-3.621094 7.960937-8.039063-.019531-4.417968-3.621093-7.984374-8.039062-7.960937zm0 0"/><path d="m10.121094 240.203125h254.992187c2.257813 1.027344 4.421875 2.257813 6.460938 3.671875 3.523437 2.859375 6.742187 6.078125 9.601562 9.601562 5.570313 7.542969 13.082031 13.429688 21.734375 17.039063 3.21875 1.015625 6.574219 1.519531 9.945313 1.488281 5.734375-.210937 11.429687-1.039062 16.984375-2.472656 4.632812-1.199219 9.378906-1.910156 14.160156-2.128906 3.464844.117187 6.90625.574218 10.28125 1.367187l-4.152344 8.296875c-12.074218 24.160156-5.6875 53.46875 15.347656 70.414063 21.03125 16.941406 51.03125 16.941406 72.0625 0 21.035157-16.945313 27.425782-46.253907 15.347657-70.414063l-20.558594-41.121094c7.457031-2.800781 14.050781-7.515624 19.113281-13.671874 4.804688-7.902344 7.394532-16.949219 7.503906-26.199219.277344-4.660157 1.03125-9.285157 2.253907-13.792969 1.601562-4.164062 3.632812-8.148438 6.058593-11.894531 5.503907-7.695313 8.804688-16.75 9.542969-26.183594-.742187-9.433594-4.039062-18.488281-9.542969-26.183594-2.425781-3.746093-4.457031-7.730469-6.058593-11.898437-1.222657-4.507813-1.976563-9.132813-2.253907-13.796875-.109374-9.246094-2.699218-18.292969-7.503906-26.195313-6.066406-7.042968-13.917968-12.324218-22.730468-15.285156-4.300782-1.675781-8.421876-3.789062-12.285157-6.3125-3.523437-2.859375-6.742187-6.078125-9.601562-9.601562-5.570313-7.542969-13.082031-13.429688-21.734375-17.039063-8.902344-2.117187-18.207032-1.777344-26.929688.984375-4.632812 1.195312-9.378906 1.910156-14.160156 2.128906-4.769531-.230468-9.5-.949218-14.121094-2.152344-8.71875-2.761718-18.023437-3.101562-26.917968-.984374-8.660157 3.601562-16.175782 9.492187-21.746094 17.039062-2.859375 3.523438-6.074219 6.742188-9.597656 9.601562-3.871094 2.527344-7.992188 4.644532-12.296876 6.320313-8.808593 2.964844-16.65625 8.246094-22.71875 15.285156-4.808593 7.902344-7.398437 16.953125-7.503906 26.203125-.316406 4.128906-.960937 8.230469-1.921875 12.261719-12.539062-5.34375-26.023437-8.117187-39.65625-8.160156-40.800781-.671875-77.660156 24.273437-92.207031 62.402343-8.679688-3.703124-18.015625-5.609374-27.449219-5.601562-36.621093-.816406-66.984375 28.171875-67.863281 64.792969.0546875 5.519531.863281 11.003906 2.398438 16.304687.953124 3.476563 4.117187 5.886719 7.722656 5.886719zm426.679687 84.34375c-11.640625 18.878906-36.082031 25.25-55.457031 14.449219-19.371094-10.800782-26.804688-34.941406-16.863281-54.769532l36.542969-73.085937c.25-.21875.472656-.441406.71875-.65625l36.832031 73.71875c6.5 12.835937 5.824219 28.128906-1.773438 40.34375zm-33.335937-139.761719c-3.542969-.910156-7.257813.664063-9.074219 3.839844l-6.144531 12.28125c-29.582032 22.941406-71.839844 19.257812-97.003906-8.460938-25.167969-27.714843-24.765626-70.132812.917968-97.371093s68-30.125 97.148438-6.628907c29.144531 23.496094 35.304687 65.460938 14.140625 96.339844zm-161.449219-73.726562c1.605469-5.597656 2.597656-11.355469 2.960937-17.167969-.015624-6.394531 1.539063-12.691406 4.527344-18.34375 4.484375-4.617187 10.03125-8.0625 16.160156-10.03125 5.390626-2.117187 10.527344-4.820313 15.328126-8.058594 4.503906-3.539062 8.605468-7.5625 12.230468-12 3.785156-5.285156 8.828125-9.542969 14.671875-12.390625 6.207031-1.042968 12.570313-.570312 18.554688 1.382813 5.738281 1.484375 11.625 2.34375 17.550781 2.554687 5.925781-.207031 11.808594-1.050781 17.550781-2.519531 5.980469-1.960937 12.347657-2.4375 18.554688-1.394531 5.84375 2.847656 10.886719 7.109375 14.671875 12.394531 3.628906 4.429687 7.730468 8.453125 12.230468 12 4.800782 3.234375 9.941407 5.933594 15.328126 8.046875 6.128906 1.96875 11.679687 5.414062 16.167968 10.03125 2.980469 5.652344 4.53125 11.945312 4.519532 18.335938.363281 5.816406 1.355468 11.574218 2.960937 17.175781 1.9375 5.300781 4.457031 10.371093 7.511719 15.121093 3.90625 5.292969 6.417968 11.488282 7.304687 18.007813-.886719 6.523437-3.398437 12.722656-7.304687 18.023437-3.050782 4.75-5.570313 9.820313-7.511719 15.121094-1.605469 5.597656-2.597656 11.355469-2.960937 17.167969.015624 6.390625-1.539063 12.691406-4.527344 18.34375-3.644532 3.992187-8.226563 7.015625-13.328125 8.800781l-11.761719-23.519531c27.144531-34.882813 24.335938-84.457031-6.570312-116.050781-30.90625-31.597656-80.40625-35.496094-115.875-9.128906-35.472657 26.371093-46.007813 74.890624-24.660157 113.59375 21.351563 38.699218 68.011719 55.675781 109.234375 39.734374l-13.847656 27.699219h-.121094c-5.742187-1.496093-11.632812-2.363281-17.566406-2.585937-5.925781.207031-11.808594 1.050781-17.550781 2.519531-5.980469 1.960937-12.347657 2.4375-18.554688 1.394531-5.84375-2.847656-10.886719-7.109375-14.671875-12.394531-3.628906-4.429687-7.730468-8.457031-12.230468-12-3.34375-2.316406-6.90625-4.296875-10.640626-5.910156-.183593-.089844-.359374-.175781-.542968-.25-1.382813-.621094-2.769532-1.285157-4.144532-1.886719-6.128906-1.96875-11.679687-5.414062-16.167968-10.03125-2.980469-5.652344-4.53125-11.949219-4.519532-18.335938-.363281-5.816406-1.355468-11.574218-2.960937-17.175781-1.9375-5.300781-4.457031-10.375-7.511719-15.121093-3.90625-5.292969-6.417968-11.488282-7.304687-18.007813.886719-6.523437 3.398437-12.722656 7.304687-18.023437 3.050782-4.75 5.570313-9.820313 7.511719-15.121094zm-174.191406 58.160156c9.945312-.003906 19.695312 2.742188 28.175781 7.9375 2.179688 1.332031 4.863281 1.542969 7.222656.566406 2.363282-.972656 4.117188-3.015625 4.722656-5.496094 9.523438-35.917968 42.417969-60.632812 79.566407-59.792968 11.222656.027344 22.328125 2.25 32.695312 6.546875-5.242187 7.429687-8.355469 16.152343-9.007812 25.222656.742187 9.433594 4.039062 18.488281 9.542969 26.183594 2.425781 3.746093 4.457031 7.730469 6.058593 11.894531 1.222657 4.511719 1.976563 9.136719 2.253907 13.800781.109374 9.246094 2.699218 18.292969 7.503906 26.191407.53125.730468 1.210937 1.265624 1.792968 1.929687h-221.824218c-.347656-2.046875-.523438-4.117187-.527344-6.191406.875-27.769531 24.054688-49.589844 51.824219-48.792969zm0 0"/></svg>