<svg id="Capa_1" enable-background="new 0 0 512 512" height="512" viewBox="0 0 512 512" width="512" xmlns="http://www.w3.org/2000/svg"><path d="m376.991 325.522c-5.995-5.718-15.489-5.494-21.207.502-5.718 5.995-5.493 15.489.502 21.207l23.548 22.459c2.904 2.77 6.63 4.146 10.351 4.146 3.958 0 7.909-1.557 10.856-4.647 5.718-5.995 5.493-15.489-.502-21.207z"/><path d="m314.041 374.566c-2.759-7.811-11.33-11.905-19.14-9.147-7.812 2.76-11.906 11.329-9.147 19.14l10.839 30.682c2.176 6.16 7.963 10.008 14.144 10.008 1.658 0 3.345-.277 4.996-.86 7.812-2.76 11.906-11.329 9.147-19.14z"/><path d="m444.204 251.844-31.623-7.676c-8.055-1.957-16.161 2.988-18.114 11.038-1.955 8.051 2.987 16.161 11.038 18.115l31.623 7.676c1.188.289 2.379.427 3.55.427 6.762 0 12.899-4.604 14.564-11.465 1.956-8.05-2.987-16.161-11.038-18.115z"/><path d="m392.56 174.534c1.919 6.54 7.899 10.78 14.386 10.78 1.398 0 2.821-.197 4.23-.611l31.224-9.163c7.949-2.333 12.502-10.668 10.169-18.617-2.333-7.951-10.673-12.503-18.616-10.169l-31.224 9.163c-7.949 2.333-12.502 10.668-10.169 18.617z"/><path d="m360.921 109.77c3.957 0 7.909-1.557 10.856-4.647l22.459-23.547c5.718-5.995 5.493-15.489-.502-21.207-5.994-5.718-15.489-5.495-21.207.502l-22.459 23.547c-5.718 5.995-5.493 15.489.502 21.207 2.905 2.77 6.631 4.145 10.351 4.145z"/><path d="m279.752 66.94c1.189.289 2.38.427 3.551.427 6.761 0 12.899-4.604 14.564-11.465l7.677-31.622c1.955-8.05-2.987-16.161-11.037-18.115-8.056-1.955-16.162 2.989-18.115 11.038l-7.677 31.622c-1.955 8.05 2.987 16.161 11.037 18.115z"/><path d="m236.33 327.559c2.214.134 4.431.226 6.647.226 60.298 0 109.354-49.056 109.354-109.354s-49.056-109.354-109.354-109.354c-2.219 0-4.436.073-6.647.208v-34.285c0-41.355-33.645-75-75-75s-75 33.645-75 75v258.525c-19.145 19.557-30 45.962-30 73.475 0 57.897 47.103 105 105 105s105-47.103 105-105c0-27.513-10.855-53.918-30-73.475zm6.648-188.483c43.756 0 79.354 35.598 79.354 79.354s-35.598 79.354-79.354 79.354c-2.218 0-4.439-.095-6.647-.279v-158.151c2.207-.185 4.426-.278 6.647-.278zm-81.648 342.924c-41.355 0-75-33.645-75-75 0-21.301 9.113-41.675 25.004-55.899 3.18-2.845 4.996-6.91 4.996-11.176v-264.925c0-24.813 20.187-45 45-45s45 20.187 45 45v264.924c0 4.267 1.816 8.331 4.996 11.176 15.891 14.224 25.004 34.599 25.004 55.899 0 41.356-33.644 75.001-75 75.001z"/><path d="m176.331 364.58v-271.581c0-8.284-6.716-15-15-15s-15 6.716-15 15v271.581c-17.459 6.192-30.001 22.865-30.001 42.42 0 24.813 20.187 45 45 45s45-20.187 45-45c0-19.555-12.54-36.227-29.999-42.42zm-15.001 57.42c-8.271 0-15-6.729-15-15s6.729-15 15-15 15 6.729 15 15-6.728 15-15 15z"/></svg>