<?xml version="1.0" encoding="iso-8859-1"?>
<!-- Generator: Adobe Illustrator 18.1.1, SVG Export Plug-In . SVG Version: 6.00 Build 0)  -->
<svg version="1.1" id="Capa_1" xmlns="http://www.w3.org/2000/svg" xmlns:xlink="http://www.w3.org/1999/xlink" x="0px" y="0px"
	 viewBox="0 0 16 16" style="enable-background:new 0 0 16 16;" xml:space="preserve">
<g>
	<path style="fill:#fff;" d="M13,7c0-2.209-1.791-4-4-4C7.502,3,6.195,3.824,5.511,5.043C5.345,5.015,5.174,5,5,5
		C3.646,5,2.5,5.897,2.128,7.131C0.896,7.508,0,8.651,0,10c0,1.657,1.337,3,3.01,3h9.98c1.662,0,3.01-1.347,3.01-3
		S14.668,7.005,13,7z M9,12H7v-2h2V12z M9,9H7V5h2V9z"/>
</g>

</svg>
