<svg height="512pt" viewBox="0 -31 512 512" width="512pt" xmlns="http://www.w3.org/2000/svg">
<path d="m450.71875 181.257812c-5.730469-30.304687-30.378906-54.445312-60.984375-60.023437-6.480469-34.800781-37.078125-61.234375-73.734375-61.234375-19.324219 0-36.960938 7.351562-50.273438 19.398438-16.726562-10.132813-35.273437-16.429688-54.726562-18.5625v-60.835938h-30v60.839844c-26 2.886718-49.792969 13.183594-69.214844 28.730468l-51.851562-51.847656-21.210938 21.210938 51.847656 51.851562c-15.546874 19.421875-25.84375 43.214844-28.730468 69.214844h-61.839844v30h61.835938c2.136718 19.457031 8.429687 38.003906 18.566406 54.730469-9.117188 10.074219-15.550782 22.621093-18.136719 36.503906-14.859375 2.707031-28.609375 9.792969-39.675781 20.613281-14.566406 14.238282-22.589844 33.113282-22.589844 53.152344 0 41.457031 34.535156 75 76 75h240c41.355469 0 75-33.644531 75-75 0-16.875-5.613281-32.453125-15.054688-45h61.054688c41.355469 0 75-33.644531 75-75 0-36.671875-26.457031-67.277344-61.28125-73.742188zm-254.71875-91.257812c18.445312 0 36.140625 4.703125 51.871094 13.683594-2.550782 5.535156-4.464844 11.421875-5.609375 17.578125-30.363281 5.644531-54.351563 29.644531-59.996094 60.003906-30.363281 5.644531-54.359375 29.632813-60.003906 59.996094-6.15625 1.144531-12.046875 3.054687-17.578125 5.609375-8.980469-15.730469-13.683594-33.425782-13.683594-51.871094 0-57.898438 47.101562-105 105-105zm165 285c0 24.8125-20.1875 45-45 45h-240c-24.933594 0-46-20.605469-46-45s21.066406-45 46-45h15v-15c0-24.8125 20.1875-45 45-45h15v-15c0-24.8125 20.1875-45 45-45s45 20.1875 45 45v15h15c24.8125 0 45 20.1875 45 45v15h15c24.8125 0 45 20.1875 45 45zm76-75h-107.519531c-6.070313-29.757812-29.804688-53.171875-59.742188-58.738281-5.441406-29.285157-27.960937-52.644531-56.796875-59.328125 5.613282-18.457032 22.789063-31.933594 43.058594-31.933594h15v-15c0-24.8125 20.1875-45 45-45s45 20.1875 45 45v15h15c24.933594 0 46 20.605469 46 45v15h15c24.8125 0 45 20.1875 45 45s-20.1875 45-45 45zm0 0" stroke="white" fill="white"/></svg>