<?xml version="1.0" encoding="UTF-8"?>
<svg width="106px" height="31px" viewBox="0 0 106 31" version="1.1" xmlns="http://www.w3.org/2000/svg" xmlns:xlink="http://www.w3.org/1999/xlink">
    <!-- Generator: Sketch 50.2 (55047) - http://www.bohemiancoding.com/sketch -->
    <title>Acme</title>
    <desc>Created with Sketch.</desc>
    <defs></defs>
    <g id="Brand" stroke="none" stroke-width="1" fill="none" fill-rule="evenodd">
        <path d="M19.5234375,23.8476562 L8.73632812,23.8476562 L6.68554688,30 L0.143554688,30 L11.2587891,0.140625 L16.9599609,0.140625 L28.1367188,30 L21.5947266,30 L19.5234375,23.8476562 Z M10.3974609,18.8642578 L17.8623047,18.8642578 L14.109375,7.6875 L10.3974609,18.8642578 Z M38.7646484,25.6318359 C39.8584039,25.6318359 40.7470669,25.3310577 41.4306641,24.7294922 C42.1142612,24.1279267 42.4697264,23.32813 42.4970703,22.3300781 L48.0546875,22.3300781 C48.0410156,23.8339919 47.6308634,25.2114195 46.8242188,26.4624023 C46.0175741,27.7133852 44.9135812,28.6840786 43.512207,29.3745117 C42.1108328,30.0649449 40.5625085,30.4101562 38.8671875,30.4101562 C35.6952966,30.4101562 33.1933685,29.4018656 31.3613281,27.3852539 C29.5292877,25.3686423 28.6132812,22.5830256 28.6132812,19.0283203 L28.6132812,18.6386719 C28.6132812,15.220686 29.5224518,12.4931742 31.3408203,10.4560547 C33.1591888,8.41893513 35.654281,7.40039062 38.8261719,7.40039062 C41.6015764,7.40039062 43.8266518,8.18993351 45.5014648,9.76904297 C47.1762779,11.3481524 48.0273436,13.4501822 48.0546875,16.0751953 L42.4970703,16.0751953 C42.4697264,14.9267521 42.1142612,13.9936559 41.4306641,13.2758789 C40.7470669,12.5581019 39.8447322,12.1992188 38.7236328,12.1992188 C37.3427665,12.1992188 36.3002965,12.7016551 35.5961914,13.706543 C34.8920863,14.7114308 34.5400391,16.3417856 34.5400391,18.5976562 L34.5400391,19.2128906 C34.5400391,21.4961052 34.8886684,23.1367138 35.5859375,24.1347656 C36.2832066,25.1328175 37.3427663,25.6318359 38.7646484,25.6318359 Z M55.9960938,7.81054688 L56.1806641,10.2919922 C57.7529375,8.36424817 59.8788929,7.40039062 62.5585938,7.40039062 C65.4160299,7.40039062 67.3779244,8.52830903 68.4443359,10.7841797 C70.0029375,8.52830903 72.224595,7.40039062 75.109375,7.40039062 C77.515637,7.40039062 79.3066347,8.10106721 80.4824219,9.50244141 C81.658209,10.9038156 82.2460938,13.0126812 82.2460938,15.8291016 L82.2460938,30 L76.2988281,30 L76.2988281,15.8496094 C76.2988281,14.5917906 76.0527368,13.6723662 75.5605469,13.0913086 C75.0683569,12.510251 74.2002015,12.2197266 72.9560547,12.2197266 C71.1787021,12.2197266 69.9482456,13.0673743 69.2646484,14.7626953 L69.2851562,30 L63.3583984,30 L63.3583984,15.8701172 C63.3583984,14.5849545 63.1054713,13.6552763 62.5996094,13.0810547 C62.0937475,12.5068331 61.232428,12.2197266 60.015625,12.2197266 C58.333976,12.2197266 57.1171913,12.9169852 56.3652344,14.3115234 L56.3652344,30 L50.4384766,30 L50.4384766,7.81054688 L55.9960938,7.81054688 Z M96.0117188,30.4101562 C92.7577962,30.4101562 90.1088969,29.4121194 88.0649414,27.4160156 C86.0209859,25.4199119 84.9990234,22.7607588 84.9990234,19.4384766 L84.9990234,18.8642578 C84.9990234,16.635731 85.4296832,14.6430752 86.2910156,12.8862305 C87.1523481,11.1293857 88.3725507,9.77588366 89.9516602,8.82568359 C91.5307696,7.87548353 93.3320211,7.40039062 95.3554688,7.40039062 C98.3906402,7.40039062 100.779776,8.3574123 102.522949,10.2714844 C104.266122,12.1855564 105.137695,14.8993965 105.137695,18.4130859 L105.137695,20.8330078 L91.0078125,20.8330078 C91.1992197,22.2822338 91.7768506,23.4443316 92.7407227,24.3193359 C93.7045947,25.1943403 94.9247973,25.6318359 96.4013672,25.6318359 C98.6845817,25.6318359 100.468744,24.8046958 101.753906,23.1503906 L104.666016,26.4111328 C103.777339,27.6689516 102.574226,28.6498988 101.056641,29.3540039 C99.5390549,30.058109 97.8574311,30.4101562 96.0117188,30.4101562 Z M95.3349609,12.1992188 C94.1591738,12.1992188 93.2055701,12.5956992 92.4741211,13.3886719 C91.7426721,14.1816446 91.2744151,15.3163989 91.0693359,16.7929688 L99.3134766,16.7929688 L99.3134766,16.3212891 C99.2861327,15.0087825 98.9306675,13.9936559 98.2470703,13.2758789 C97.5634731,12.5581019 96.5927797,12.1992188 95.3349609,12.1992188 Z" id="Acme" fill="#096AD0"></path>
    </g>
</svg>