<?xml version="1.0" encoding="UTF-8"?>
<svg width="101px" height="78px" viewBox="0 0 101 78" version="1.1" xmlns="http://www.w3.org/2000/svg" xmlns:xlink="http://www.w3.org/1999/xlink">
    <!-- Generator: Sketch 50.2 (55047) - http://www.bohemiancoding.com/sketch -->
    <title>Asset 3</title>
    <desc>Created with Sketch.</desc>
    <defs></defs>
    <g id="Page-1" stroke="none" stroke-width="1" fill="none" fill-rule="evenodd">
        <g id="Asset-3" fill="#FFFFFF" fill-rule="nonzero">
            <polygon id="Shape" stroke="#1F2C3D" stroke-width="0.5" points="0.5 29.16 50.51 58.03 100.5 29.17 50.51 0.29"></polygon>
            <polygon id="Shape" stroke="#1F2C3D" stroke-width="0.5" points="50.51 58.03 50.51 77.67 100.5 48.81 100.5 29.17"></polygon>
            <polygon id="Shape" stroke="#1F2C3D" stroke-width="0.5" points="0.5 29.16 0.5 48.8 50.51 77.67 50.51 58.03"></polygon>
            <g id="Group" transform="translate(65.000000, 14.000000)">
                <path d="M3.45,9.89 C-0.36,12.08 -0.39,15.65 3.45,17.89 C7.76592188,20.0895252 12.8740781,20.0895252 17.19,17.89 C20.99,15.7 21.01,12.13 17.19,9.94 C12.8828835,7.72148713 7.77314857,7.70289276 3.45,9.89 Z" id="Shape"></path>
                <path d="M0.58,6.42 L0.58,13.93 C0.58,15.36 1.52,16.79 3.4,17.88 C7.71592188,20.0795252 12.8240781,20.0795252 17.14,17.88 C19.05,16.78 20.01,15.33 20,13.88 L20.0000773,6.37 C20,7.82 19,9.27 17.14,10.37 C12.8240781,12.5695252 7.71592188,12.5695252 3.4,10.37 C1.52,9.28 0.58,7.85 0.58,6.42 Z" id="Shape" stroke="#1F2C3D" stroke-width="0.5"></path>
                <path d="M3.45,2.41 C-0.36,4.61 -0.39,8.17 3.45,10.41 C7.76592188,12.6095252 12.8740781,12.6095252 17.19,10.41 C20.99,8.22 21.01,4.65 17.19,2.41 C12.8725182,0.216980897 7.76748183,0.216980897 3.45,2.41 Z" id="Shape" stroke="#1F2C3D" stroke-width="0.5"></path>
            </g>
            <g id="Group" transform="translate(40.000000, 29.000000)">
                <path d="M3.55,9.4 C-0.26,11.6 -0.29,15.16 3.49,17.4 C7.80941481,19.5996605 12.9205852,19.5996605 17.24,17.4 C21.04,15.21 21.06,11.64 17.24,9.4 C12.937254,7.21903984 7.85274601,7.21903984 3.55,9.4 Z" id="Shape"></path>
                <path d="M0.67,5.94 L0.67,13.45 C0.67,14.88 1.61,16.3 3.49,17.39 C7.8070932,19.5846418 12.9129068,19.5846418 17.23,17.39 C19.14,16.28 20.1,14.83 20.09,13.39 L20.0900773,5.88 C20.09,7.33 19.09,8.78 17.23,9.88 C12.9082555,12.0699303 7.80174453,12.0699303 3.48,9.88 C1.62,8.79 0.68,7.37 0.67,5.94 Z" id="Shape" stroke="#1F2C3D" stroke-width="0.5"></path>
                <path d="M3.55,1.93 C-0.26,4.13 -0.29,7.69 3.49,9.93 C7.81174453,12.1199303 12.9182555,12.1199303 17.24,9.93 C21.04,7.73 21.06,4.17 17.24,1.93 C12.9384158,-0.25581665 7.85158419,-0.25581665 3.55,1.93 Z" id="Shape" stroke="#1F2C3D" stroke-width="0.5"></path>
            </g>
            <g id="Group" transform="translate(40.000000, 0.000000)">
                <path d="M3.53,9.37 C-0.28,11.57 -0.3,15.13 3.48,17.37 C7.79825643,19.5597813 12.9017436,19.5597813 17.22,17.37 C21.02,15.17 21.04,11.61 17.22,9.37 C12.917254,7.18903984 7.83274601,7.18903984 3.53,9.37 Z" id="Shape"></path>
                <path d="M0.66,5.91 L0.66,13.42 C0.66,14.85 1.6,16.27 3.48,17.36 C7.79592188,19.5595252 12.9040781,19.5595252 17.22,17.36 C19.13,16.26 20.09,14.81 20.08,13.36 L20.0800773,5.85 C20.08,7.3 19.13,8.75 17.22,9.85 C12.9040781,12.0495252 7.79592188,12.0495252 3.48,9.85 C1.6,8.76 0.66,7.34 0.66,5.91 Z" id="Shape" stroke="#1F2C3D" stroke-width="0.5"></path>
                <path d="M3.53,1.9 C-0.28,4.09 -0.3,7.66 3.48,9.9 C7.79592188,12.0995252 12.9040781,12.0995252 17.22,9.9 C21,7.66 21,4.09 17.26,1.9 C12.9475718,-0.299392036 7.84242821,-0.299392036 3.53,1.9 Z" id="Shape" stroke="#1F2C3D" stroke-width="0.5"></path>
            </g>
            <g id="Group" transform="translate(15.000000, 14.000000)">
                <path d="M3.63,9.89 C-0.18,12.08 -0.2,15.65 3.58,17.89 C7.89592188,20.0895252 13.0040781,20.0895252 17.32,17.89 C21.12,15.7 21.14,12.13 17.32,9.94 C13.026403,7.73845633 7.93956359,7.71987766 3.63,9.89 Z" id="Shape"></path>
                <path d="M0.76,6.42 L0.76,13.93 C0.76,15.36 1.7,16.79 3.58,17.88 C7.89592188,20.0795252 13.0040781,20.0795252 17.32,17.88 C19.23,16.78 20.19,15.33 20.18,13.88 L20.1800773,6.37 C20.18,7.82 19.18,9.27 17.32,10.37 C13.0040781,12.5695252 7.89592188,12.5695252 3.58,10.37 C1.7,9.28 0.76,7.85 0.76,6.42 Z" id="Shape" stroke="#1F2C3D" stroke-width="0.5"></path>
                <path d="M3.63,2.41 C-0.18,4.61 -0.2,8.17 3.58,10.41 C7.89592188,12.6095252 13.0040781,12.6095252 17.32,10.41 C21.12,8.22 21.14,4.65 17.32,2.41 C13.0161002,0.233873491 7.93389981,0.233873491 3.63,2.41 Z" id="Shape" stroke="#1F2C3D" stroke-width="0.5"></path>
            </g>
        </g>
    </g>
</svg>