<?xml version="1.0" encoding="UTF-8"?>
<svg width="151px" height="107px" viewBox="0 0 151 107" version="1.1" xmlns="http://www.w3.org/2000/svg" xmlns:xlink="http://www.w3.org/1999/xlink">
    <!-- Generator: Sketch 50.2 (55047) - http://www.bohemiancoding.com/sketch -->
    <title>Asset 6</title>
    <desc>Created with Sketch.</desc>
    <defs></defs>
    <g id="Page-1" stroke="none" stroke-width="1" fill="none" fill-rule="evenodd">
        <g id="Asset-6" fill="#096AD0" fill-rule="nonzero">
            <polygon id="Shape" stroke="#1F2C3D" stroke-width="0.5" points="50.51 58.03 0.5 29.16 0.5 48.8 50.5 77.67 50.5 77.67 100.51 106.54 100.51 86.9"></polygon>
            <polygon id="Shape" stroke="#1F2C3D" stroke-width="0.5" points="100.5 29.16 50.51 0.29 0.5 29.16 50.51 58.03 100.51 86.9 150.5 58.04"></polygon>
            <g id="Group" transform="translate(65.000000, 14.000000)">
                <path d="M3.44,9.89 C-0.36,12.08 -0.39,15.64 3.44,17.89 C7.75592188,20.0895252 12.8640781,20.0895252 17.18,17.89 C20.98,15.7 21,12.13 17.18,9.94 C12.8728835,7.72148713 7.76314857,7.70289276 3.44,9.89 Z" id="Shape"></path>
                <path d="M0.57,6.42 L0.57,13.93 C0.57,15.36 1.57,16.79 3.39,17.88 C7.71174453,20.0699303 12.8182555,20.0699303 17.14,17.88 C19.05,16.77 20,15.32 20,13.88 L20,6.38 C20,7.82 19,9.27 17.13,10.38 C12.8140781,12.5795252 7.70592188,12.5795252 3.39,10.38 C1.52,9.28 0.58,7.85 0.57,6.42 Z" id="Shape" stroke="#1F2C3D" stroke-width="0.5"></path>
                <path d="M3.44,2.41 C-0.36,4.61 -0.39,8.17 3.44,10.41 C7.75592188,12.6095252 12.8640781,12.6095252 17.18,10.41 C20.98,8.21 21,4.65 17.18,2.41 C12.8636868,0.21210514 7.75631322,0.21210514 3.44,2.41 Z" id="Shape" stroke="#1F2C3D" stroke-width="0.5"></path>
            </g>
            <g id="Group" transform="translate(40.000000, 29.000000)">
                <path d="M3.54,9.4 C-0.26,11.6 -0.29,15.16 3.54,17.4 C7.85825643,19.5897813 12.9617436,19.5897813 17.28,17.4 C21.08,15.2 21.1,11.64 17.28,9.4 C12.9636868,7.20210514 7.85631322,7.20210514 3.54,9.4 Z" id="Shape"></path>
                <path d="M0.67,5.94 L0.67,13.45 C0.67,14.88 1.67,16.3 3.49,17.39 C7.80941481,19.5896605 12.9205852,19.5896605 17.24,17.39 C19.15,16.29 20.1,14.84 20.1,13.39 L20.1,5.88 C20.1,7.33 19.1,8.78 17.23,9.88 C12.9140781,12.0795252 7.80592188,12.0795252 3.49,9.88 C1.62,8.79 0.68,7.37 0.67,5.94 Z" id="Shape" stroke="#1F2C3D" stroke-width="0.5"></path>
                <path d="M3.54,1.93 C-0.26,4.12 -0.29,7.69 3.54,9.93 C7.85592188,12.1295252 12.9640781,12.1295252 17.28,9.93 C21.08,7.74 21.1,4.17 17.28,1.93 C12.9648635,-0.27279368 7.85513646,-0.27279368 3.54,1.93 Z" id="Shape" stroke="#1F2C3D" stroke-width="0.5"></path>
            </g>
            <g id="Group" transform="translate(40.000000, 0.000000)">
                <path d="M3.53,9.37 C-0.28,11.57 -0.3,15.13 3.48,17.37 C7.79825643,19.5597813 12.9017436,19.5597813 17.22,17.37 C21.02,15.17 21.04,11.61 17.22,9.37 C12.917254,7.18903984 7.83274601,7.18903984 3.53,9.37 Z" id="Shape"></path>
                <path d="M0.66,5.91 L0.66,13.42 C0.66,14.84 1.6,16.27 3.48,17.36 C7.79592188,19.5595252 12.9040781,19.5595252 17.22,17.36 C19.13,16.26 20.09,14.81 20.08,13.36 L20.0800773,5.85 C20.08,7.3 19.13,8.75 17.22,9.85 C12.9040781,12.0495252 7.79592188,12.0495252 3.48,9.85 C1.6,8.76 0.66,7.34 0.66,5.91 Z" id="Shape" stroke="#1F2C3D" stroke-width="0.5"></path>
                <path d="M3.53,1.9 C-0.28,4.09 -0.3,7.66 3.48,9.9 C7.79592188,12.0995252 12.9040781,12.0995252 17.22,9.9 C21,7.66 21,4.09 17.26,1.9 C12.9475718,-0.299392036 7.84242821,-0.299392036 3.53,1.9 Z" id="Shape" stroke="#1F2C3D" stroke-width="0.5"></path>
            </g>
            <g id="Group" transform="translate(15.000000, 14.000000)">
                <path d="M3.63,9.89 C-0.18,12.08 -0.2,15.64 3.58,17.89 C7.89592188,20.0895252 13.0040781,20.0895252 17.32,17.89 C21.12,15.7 21.14,12.13 17.32,9.94 C13.026403,7.73845633 7.93956359,7.71987766 3.63,9.89 Z" id="Shape"></path>
                <path d="M0.76,6.42 L0.76,13.93 C0.76,15.36 1.7,16.79 3.58,17.88 C7.89825643,20.0697813 13.0017436,20.0697813 17.32,17.88 C19.23,16.77 20.19,15.32 20.18,13.88 L20.1800773,6.38 C20.18,7.82 19.18,9.27 17.32,10.38 C13.0040781,12.5795252 7.89592188,12.5795252 3.58,10.38 C1.7,9.28 0.76,7.85 0.76,6.42 Z" id="Shape" stroke="#1F2C3D" stroke-width="0.5"></path>
                <path d="M3.63,2.41 C-0.18,4.61 -0.2,8.17 3.58,10.41 C7.89592188,12.6095252 13.0040781,12.6095252 17.32,10.41 C21.12,8.21 21.14,4.65 17.32,2.41 C13.017254,0.229039836 7.93274601,0.229039836 3.63,2.41 Z" id="Shape" stroke="#1F2C3D" stroke-width="0.5"></path>
            </g>
            <polygon id="Shape" stroke="#1F2C3D" stroke-width="0.5" points="100.51 86.9 100.51 106.54 150.5 77.68 150.5 58.04"></polygon>
            <g id="Group" transform="translate(115.000000, 43.000000)">
                <path d="M3.45,9.76 C-0.36,11.95 -0.38,15.52 3.45,17.76 C7.76592188,19.9595252 12.8740781,19.9595252 17.19,17.76 C20.99,15.57 21.01,12 17.19,9.76 C12.8748635,7.55720632 7.76513646,7.55720632 3.45,9.76 Z" id="Shape"></path>
                <path d="M0.58,6.29 L0.58,13.8 C0.58,15.23 1.52,16.66 3.4,17.8 C7.71592188,19.9995252 12.8240781,19.9995252 17.14,17.8 C19.05,16.7 20.01,15.25 20,13.8 L20.0000773,6.29 C20,7.74 19.05,9.19 17.14,10.29 C12.8240781,12.4895252 7.71592188,12.4895252 3.4,10.29 C1.52,9.15 0.58,7.72 0.58,6.29 Z" id="Shape" stroke="#1F2C3D" stroke-width="0.5"></path>
                <path d="M3.45,2.28 C-0.36,4.48 -0.38,8.04 3.45,10.28 C7.76592188,12.4795252 12.8740781,12.4795252 17.19,10.28 C20.99,8.09 21.01,4.52 17.19,2.28 C12.8725182,0.0869808968 7.76748183,0.0869808968 3.45,2.28 Z" id="Shape" stroke="#1F2C3D" stroke-width="0.5"></path>
            </g>
            <g id="Group" transform="translate(90.000000, 58.000000)">
                <path d="M3.55,9.27 C-0.26,11.47 -0.28,15.03 3.55,17.27 C7.86592188,19.4695252 12.9740781,19.4695252 17.29,17.27 C21.09,15.08 21.11,11.51 17.29,9.27 C12.9725182,7.0769809 7.86748183,7.0769809 3.55,9.27 Z" id="Shape"></path>
                <path d="M0.68,5.81 L0.68,13.32 C0.68,14.75 1.62,16.17 3.5,17.32 C7.81825643,19.5097813 12.9217436,19.5097813 17.24,17.32 C19.15,16.21 20.11,14.76 20.1,13.32 L20.1000773,5.81 C20.1,7.26 19.15,8.71 17.24,9.81 C12.9217436,11.9997813 7.81825643,11.9997813 3.5,9.81 C1.62,8.67 0.68,7.24 0.68,5.81 Z" id="Shape" stroke="#1F2C3D" stroke-width="0.5"></path>
                <path d="M3.55,1.8 C-0.26,4 -0.28,7.56 3.55,9.8 C7.86825643,11.9897813 12.9717436,11.9897813 17.29,9.8 C21.09,7.6 21.11,4.04 17.29,1.8 C12.9736868,-0.39789486 7.86631322,-0.39789486 3.55,1.8 Z" id="Shape" stroke="#1F2C3D" stroke-width="0.5"></path>
            </g>
            <g id="Group" transform="translate(90.000000, 29.000000)">
                <path d="M3.53,9.24 C-0.27,11.44 -0.3,15 3.53,17.24 C7.84592188,19.4395252 12.9540781,19.4395252 17.27,17.24 C21.07,15.05 21.09,11.48 17.27,9.24 C12.9525182,7.0469809 7.84748183,7.0469809 3.53,9.24 Z" id="Shape"></path>
                <path d="M0.66,5.78 L0.66,13.29 C0.66,14.72 1.61,16.14 3.48,17.29 C7.79825643,19.4797813 12.9017436,19.4797813 17.22,17.29 C19.14,16.18 20.09,14.73 20.09,13.29 L20.09,5.78 C20.09,7.23 19.09,8.68 17.23,9.78 C12.9117436,11.9697813 7.80825643,11.9697813 3.49,9.78 C1.6,8.63 0.67,7.21 0.66,5.78 Z" id="Shape" stroke="#1F2C3D" stroke-width="0.5"></path>
                <path d="M3.53,1.77 C-0.27,3.97 -0.3,7.53 3.53,9.77 C7.84825643,11.9597813 12.9517436,11.9597813 17.27,9.77 C21.07,7.57 21.09,4.01 17.27,1.77 C12.9536868,-0.42789486 7.84631322,-0.42789486 3.53,1.77 Z" id="Shape" stroke="#1F2C3D" stroke-width="0.5"></path>
            </g>
            <g id="Group" transform="translate(65.000000, 43.000000)">
                <path d="M3.63,9.76 C-0.17,11.95 -0.2,15.52 3.63,17.76 C7.94592188,19.9595252 13.0540781,19.9595252 17.37,17.76 C21.17,15.57 21.19,12 17.37,9.76 C13.0548635,7.55720632 7.94513646,7.55720632 3.63,9.76 Z" id="Shape"></path>
                <path d="M0.76,6.29 L0.76,13.8 C0.76,15.23 1.76,16.66 3.58,17.8 C7.89592188,19.9995252 13.0040781,19.9995252 17.32,17.8 C19.24,16.7 20.19,15.25 20.19,13.8 L20.19,6.29 C20.19,7.74 19.19,9.19 17.32,10.29 C13.0040781,12.4895252 7.89592188,12.4895252 3.58,10.29 C1.7,9.15 0.77,7.72 0.76,6.29 Z" id="Shape" stroke="#1F2C3D" stroke-width="0.5"></path>
                <path d="M3.63,2.28 C-0.17,4.48 -0.2,8.04 3.63,10.28 C7.94592188,12.4795252 13.0540781,12.4795252 17.37,10.28 C21.17,8.09 21.19,4.52 17.37,2.28 C13.0525182,0.0869808968 7.94748183,0.0869808968 3.63,2.28 Z" id="Shape" stroke="#1F2C3D" stroke-width="0.5"></path>
            </g>
        </g>
    </g>
</svg>