<?xml version="1.0" encoding="UTF-8"?>
<svg width="151px" height="107px" viewBox="0 0 151 107" version="1.1" xmlns="http://www.w3.org/2000/svg" xmlns:xlink="http://www.w3.org/1999/xlink">
    <!-- Generator: Sketch 50.2 (55047) - http://www.bohemiancoding.com/sketch -->
    <title>Asset 2</title>
    <desc>Created with Sketch.</desc>
    <defs></defs>
    <g id="Page-1" stroke="none" stroke-width="1" fill="none" fill-rule="evenodd">
        <g id="Asset-2" fill="#FFFFFF" fill-rule="nonzero">
            <polygon id="Shape" stroke="#1F2C3D" stroke-width="0.5" points="100.5 58.03 150.5 29.16 150.5 48.8 100.5 77.67 100.5 77.67 50.49 106.54 50.49 86.9"></polygon>
            <polygon id="Shape" stroke="#1F2C3D" stroke-width="0.5" points="50.5 29.16 100.5 0.29 150.5 29.16 100.5 58.03 50.49 86.9 0.5 58.04"></polygon>
            <g id="Group" transform="translate(65.000000, 14.000000)">
                <path d="M17.56,9.89 C21.36,12.08 21.39,15.64 17.56,17.89 C13.2440781,20.0895252 8.13592188,20.0895252 3.82,17.89 C0.02,15.7 1.49880108e-14,12.13 3.82,9.94 C8.12711648,7.72148713 13.2368514,7.70289276 17.56,9.89 Z" id="Shape"></path>
                <path d="M20.43,6.42 L20.43,13.93 C20.43,15.36 19.43,16.79 17.61,17.88 C13.2882555,20.0699303 8.18174453,20.0699303 3.86,17.88 C1.95,16.77 1,15.32 1,13.88 L1,6.38 C1,7.82 2,9.27 3.87,10.38 C8.18592188,12.5795252 13.2940781,12.5795252 17.61,10.38 C19.48,9.28 20.42,7.85 20.43,6.42 Z" id="Shape" stroke="#1F2C3D" stroke-width="0.5"></path>
                <path d="M17.56,2.41 C21.36,4.61 21.39,8.17 17.56,10.41 C13.2440781,12.6095252 8.13592188,12.6095252 3.82,10.41 C0.02,8.21 1.49880108e-14,4.65 3.82,2.41 C8.13631322,0.21210514 13.2436868,0.21210514 17.56,2.41 Z" id="Shape" stroke="#1F2C3D" stroke-width="0.5"></path>
            </g>
            <g id="Group" transform="translate(90.000000, 29.000000)">
                <path d="M17.46,9.4 C21.26,11.6 21.29,15.16 17.51,17.4 C13.1917436,19.5897813 8.08825643,19.5897813 3.77,17.4 C-0.03,15.2 -0.05,11.64 3.77,9.4 C8.07274601,7.21903984 13.157254,7.21903984 17.46,9.4 Z" id="Shape"></path>
                <path d="M20.33,5.94 L20.33,13.45 C20.33,14.88 19.33,16.3 17.51,17.39 C13.1905852,19.5896605 8.07941481,19.5896605 3.76,17.39 C1.85,16.29 0.9,14.84 0.9,13.39 L0.9,5.88 C0.9,7.33 1.85,8.78 3.77,9.88 C8.08592188,12.0795252 13.1940781,12.0795252 17.51,9.88 C19.38,8.79 20.32,7.37 20.33,5.94 Z" id="Shape" stroke="#1F2C3D" stroke-width="0.5"></path>
                <path d="M17.46,1.93 C21.26,4.12 21.29,7.69 17.51,9.93 C13.1940781,12.1295252 8.08592188,12.1295252 3.77,9.93 C-0.03,7.74 -0.05,4.17 3.77,1.93 C8.07158419,-0.25581665 13.1584158,-0.25581665 17.46,1.93 Z" id="Shape" stroke="#1F2C3D" stroke-width="0.5"></path>
            </g>
            <g id="Group" transform="translate(90.000000, 0.000000)">
                <path d="M17.47,9.37 C21.28,11.57 21.3,15.13 17.47,17.37 C13.1517436,19.5597813 8.04825643,19.5597813 3.73,17.37 C-0.07,15.17 -0.09,11.61 3.73,9.37 C8.04631322,7.17210514 13.1536868,7.17210514 17.47,9.37 Z" id="Shape"></path>
                <path d="M20.34,5.91 L20.34,13.42 C20.34,14.84 19.4,16.27 17.52,17.36 C13.2040781,19.5595252 8.09592188,19.5595252 3.78,17.36 C1.87,16.26 0.91,14.81 0.92,13.36 L0.919922678,5.85 C0.92,7.3 1.92,8.75 3.78,9.85 C8.09592188,12.0495252 13.2040781,12.0495252 17.52,9.85 C19.4,8.76 20.34,7.34 20.34,5.91 Z" id="Shape" stroke="#1F2C3D" stroke-width="0.5"></path>
                <path d="M17.47,1.9 C21.28,4.09 21.3,7.66 17.47,9.9 C13.1540781,12.0995252 8.04592188,12.0995252 3.73,9.9 C-4.4408921e-16,7.66 -4.4408921e-16,4.09 3.74,1.9 C8.05242821,-0.299392036 13.1575718,-0.299392036 17.47,1.9 Z" id="Shape" stroke="#1F2C3D" stroke-width="0.5"></path>
            </g>
            <g id="Group" transform="translate(115.000000, 14.000000)">
                <path d="M17.37,9.89 C21.18,12.08 21.2,15.64 17.37,17.89 C13.0540781,20.0895252 7.94592188,20.0895252 3.63,17.89 C-0.17,15.7 -0.19,12.13 3.63,9.94 C7.93711648,7.72148713 13.0468514,7.70289276 17.37,9.89 Z" id="Shape"></path>
                <path d="M20.24,6.42 L20.24,13.93 C20.24,15.36 19.3,16.79 17.42,17.88 C13.1017436,20.0697813 7.99825643,20.0697813 3.68,17.88 C1.77,16.77 0.81,15.32 0.82,13.88 L0.819922678,6.38 C0.82,7.82 1.82,9.27 3.68,10.38 C7.99592188,12.5795252 13.1040781,12.5795252 17.42,10.38 C19.3,9.28 20.24,7.85 20.24,6.42 Z" id="Shape" stroke="#1F2C3D" stroke-width="0.5"></path>
                <path d="M17.37,2.41 C21.18,4.61 21.2,8.17 17.37,10.41 C13.0540781,12.6095252 7.94592188,12.6095252 3.63,10.41 C-0.17,8.21 -0.19,4.65 3.63,2.41 C7.94631322,0.21210514 13.0536868,0.21210514 17.37,2.41 Z" id="Shape" stroke="#1F2C3D" stroke-width="0.5"></path>
            </g>
            <polygon id="Shape" stroke="#1F2C3D" stroke-width="0.5" points="50.49 86.9 50.49 106.54 0.5 77.68 0.5 58.04"></polygon>
            <g id="Group" transform="translate(16.000000, 43.000000)">
                <path d="M16.55,9.76 C20.36,11.95 20.38,15.52 16.6,17.76 C12.2840781,19.9595252 7.17592188,19.9595252 2.86,17.76 C-0.94,15.57 -0.96,12 2.86,9.76 C7.16158419,7.57418335 12.2484158,7.57418335 16.55,9.76 Z" id="Shape"></path>
                <path d="M19.42,6.29 L19.42,13.8 C19.42,15.23 18.48,16.66 16.6,17.8 C12.2840781,19.9995252 7.17592188,19.9995252 2.86,17.8 C0.95,16.7 -0.01,15.25 -4.4408921e-15,13.8 L-7.73223271e-05,6.29 C-4.4408921e-15,7.74 0.95,9.19 2.86,10.29 C7.17592188,12.4895252 12.2840781,12.4895252 16.6,10.29 C18.48,9.15 19.42,7.72 19.42,6.29 Z" id="Shape" stroke="#1F2C3D" stroke-width="0.5"></path>
                <path d="M16.55,2.28 C20.36,4.48 20.38,8.04 16.6,10.28 C12.2840781,12.4795252 7.17592188,12.4795252 2.86,10.28 C-0.94,8.09 -0.96,4.52 2.86,2.28 C7.16389981,0.103873491 12.2461002,0.103873491 16.55,2.28 Z" id="Shape" stroke="#1F2C3D" stroke-width="0.5"></path>
            </g>
            <g id="Group" transform="translate(40.000000, 58.000000)">
                <path d="M17.45,9.27 C21.26,11.47 21.28,15.03 17.45,17.27 C13.1340781,19.4695252 8.02592188,19.4695252 3.71,17.27 C-0.09,15.08 -0.11,11.51 3.71,9.27 C8.02748183,7.0769809 13.1325182,7.0769809 17.45,9.27 Z" id="Shape"></path>
                <path d="M20.32,5.81 L20.32,13.32 C20.32,14.75 19.38,16.17 17.5,17.32 C13.1817436,19.5097813 8.07825643,19.5097813 3.76,17.32 C1.85,16.21 0.89,14.76 0.9,13.32 L0.899922678,5.81 C0.9,7.26 1.9,8.71 3.76,9.81 C8.07825643,11.9997813 13.1817436,11.9997813 17.5,9.81 C19.38,8.67 20.32,7.24 20.32,5.81 Z" id="Shape" stroke="#1F2C3D" stroke-width="0.5"></path>
                <path d="M17.45,1.8 C21.26,4 21.28,7.56 17.45,9.8 C13.1317436,11.9897813 8.02825643,11.9897813 3.71,9.8 C-0.09,7.6 -0.11,4.04 3.71,1.8 C8.02631322,-0.39789486 13.1336868,-0.39789486 17.45,1.8 Z" id="Shape" stroke="#1F2C3D" stroke-width="0.5"></path>
            </g>
            <g id="Group" transform="translate(40.000000, 29.000000)">
                <path d="M17.47,9.24 C21.27,11.44 21.3,15 17.52,17.24 C13.2040781,19.4395252 8.09592188,19.4395252 3.78,17.24 C-0.02,15.05 -0.04,11.48 3.78,9.24 C8.08389981,7.06387349 13.1661002,7.06387349 17.47,9.24 Z" id="Shape"></path>
                <path d="M20.34,5.78 L20.34,13.29 C20.34,14.72 19.34,16.14 17.52,17.29 C13.2017436,19.4797813 8.09825643,19.4797813 3.78,17.29 C1.86,16.18 0.91,14.73 0.91,13.29 L0.91,5.78 C0.91,7.23 1.91,8.68 3.78,9.78 C8.09825643,11.9697813 13.2017436,11.9697813 17.52,9.78 C19.4,8.63 20.33,7.21 20.34,5.78 Z" id="Shape" stroke="#1F2C3D" stroke-width="0.5"></path>
                <path d="M17.47,1.77 C21.27,3.97 21.3,7.53 17.52,9.77 C13.2017436,11.9597813 8.09825643,11.9597813 3.78,9.77 C-0.02,7.57 -0.04,4.01 3.78,1.77 C8.08274601,-0.410960164 13.167254,-0.410960164 17.47,1.77 Z" id="Shape" stroke="#1F2C3D" stroke-width="0.5"></path>
            </g>
            <g id="Group" transform="translate(65.000000, 43.000000)">
                <path d="M17.37,9.76 C21.17,11.95 21.2,15.52 17.37,17.76 C13.0540781,19.9595252 7.94592188,19.9595252 3.63,17.76 C-0.17,15.57 -0.19,12 3.63,9.76 C7.94513646,7.55720632 13.0548635,7.55720632 17.37,9.76 Z" id="Shape"></path>
                <path d="M20.24,6.29 L20.24,13.8 C20.24,15.23 19.24,16.66 17.42,17.8 C13.1040781,19.9995252 7.99592188,19.9995252 3.68,17.8 C1.76,16.7 0.81,15.25 0.81,13.8 L0.81,6.29 C0.81,7.74 1.81,9.19 3.68,10.29 C7.99592188,12.4895252 13.1040781,12.4895252 17.42,10.29 C19.3,9.15 20.23,7.72 20.24,6.29 Z" id="Shape" stroke="#1F2C3D" stroke-width="0.5"></path>
                <path d="M17.37,2.28 C21.17,4.48 21.2,8.04 17.37,10.28 C13.0540781,12.4795252 7.94592188,12.4795252 3.63,10.28 C-0.17,8.09 -0.19,4.52 3.63,2.28 C7.94748183,0.0869808968 13.0525182,0.0869808968 17.37,2.28 Z" id="Shape" stroke="#1F2C3D" stroke-width="0.5"></path>
            </g>
        </g>
    </g>
</svg>