<?xml version="1.0" encoding="UTF-8"?>
<svg width="151px" height="108px" viewBox="0 0 151 108" version="1.1" xmlns="http://www.w3.org/2000/svg" xmlns:xlink="http://www.w3.org/1999/xlink">
    <!-- Generator: Sketch 50.2 (55047) - http://www.bohemiancoding.com/sketch -->
    <title>Asset 1</title>
    <desc>Created with Sketch.</desc>
    <defs></defs>
    <g id="Page-1" stroke="none" stroke-width="1" fill="none" fill-rule="evenodd">
        <g id="Asset-1" transform="translate(0.000000, 1.000000)" fill="#096AD0" fill-rule="nonzero">
            <polygon id="Shape" stroke="#1F2C3D" stroke-width="0.5" points="100.34 57.95 150.35 29.08 150.35 48.72 100.34 77.59 100.34 77.59 50.34 106.46 50.34 86.83"></polygon>
            <polygon id="Shape" stroke="#1F2C3D" stroke-width="0.5" points="50.34 29.09 100.34 0.21 150.35 29.08 100.34 57.95 50.34 86.83 0.35 57.96"></polygon>
            <g id="Group" transform="translate(65.000000, 14.000000)">
                <path d="M17.4,9.81 C21.21,12.01 21.24,15.57 17.4,17.81 C13.0817436,19.9997813 7.97825643,19.9997813 3.66,17.81 C-0.14,15.61 -0.16,12.05 3.66,9.81 C7.97513646,7.60720632 13.0848635,7.60720632 17.4,9.81 Z" id="Shape"></path>
                <path d="M20.27,6.34 L20.27,13.85 C20.27,15.28 19.33,16.71 17.45,17.8 C13.1340781,19.9995252 8.02592188,19.9995252 3.71,17.8 C1.8,16.7 0.84,15.25 0.85,13.8 L0.849922678,6.29 C0.85,7.74 1.85,9.19 3.71,10.29 C8.02592188,12.4895252 13.1340781,12.4895252 17.45,10.29 C19.33,9.2 20.27,7.77 20.27,6.34 Z" id="Shape" stroke="#1F2C3D" stroke-width="0.5"></path>
                <path d="M17.4,2.33 C21.21,4.53 21.24,8.09 17.4,10.33 C13.0840781,12.5295252 7.97592188,12.5295252 3.66,10.33 C-0.14,8.14 -0.16,4.57 3.66,2.38 C7.96831108,0.166381716 13.0756925,0.147795903 17.4,2.33 Z" id="Shape" stroke="#1F2C3D" stroke-width="0.5"></path>
            </g>
            <g id="Group" transform="translate(90.000000, 29.000000)">
                <path d="M17.3,9.32 C21.11,11.52 21.13,15.08 17.3,17.32 C12.9840781,19.5195252 7.87592188,19.5195252 3.56,17.32 C-0.24,15.13 -0.26,11.56 3.56,9.32 C7.87748183,7.1269809 12.9825182,7.1269809 17.3,9.32 Z" id="Shape"></path>
                <path d="M20.17,5.86 L20.17,13.37 C20.17,14.8 19.23,16.23 17.35,17.37 C13.0317436,19.5597813 7.92825643,19.5597813 3.61,17.37 C1.7,16.26 0.74,14.81 0.75,13.37 L0.749922678,5.86 C0.75,7.31 1.75,8.76 3.61,9.86 C7.92825643,12.0497813 13.0317436,12.0497813 17.35,9.86 C19.23,8.72 20.17,7.29 20.17,5.86 Z" id="Shape" stroke="#1F2C3D" stroke-width="0.5"></path>
                <path d="M17.3,1.85 C21.11,4.05 21.13,7.61 17.3,9.85 C12.9817436,12.0397813 7.87825643,12.0397813 3.56,9.85 C-0.24,7.65 -0.26,4.09 3.56,1.85 C7.87631322,-0.34789486 12.9836868,-0.34789486 17.3,1.85 Z" id="Shape" stroke="#1F2C3D" stroke-width="0.5"></path>
            </g>
            <g id="Group" transform="translate(90.000000, 0.000000)">
                <path d="M17.32,9.29 C21.13,11.49 21.15,15.05 17.37,17.29 C13.0540781,19.4895252 7.94592188,19.4895252 3.63,17.29 C-0.17,15.1 -0.19,11.53 3.63,9.29 C7.93389981,7.11387349 13.0161002,7.11387349 17.32,9.29 Z" id="Shape"></path>
                <path d="M20.19,5.83 L20.19,13.34 C20.19,14.77 19.25,16.2 17.37,17.29 C13.0517436,19.4797813 7.94825643,19.4797813 3.63,17.29 C1.72,16.18 0.76,14.73 0.76,13.29 L0.76,5.78 C0.76,7.23 1.76,8.68 3.62,9.78 C7.93825643,11.9697813 13.0417436,11.9697813 17.36,9.78 C19.25,8.69 20.19,7.26 20.19,5.83 Z" id="Shape" stroke="#1F2C3D" stroke-width="0.5"></path>
                <path d="M17.32,1.82 C21.13,4.02 21.15,7.58 17.37,9.82 C13.0517436,12.0097813 7.94825643,12.0097813 3.63,9.82 C-0.17,7.62 -0.19,4.06 3.63,1.82 C7.93274601,-0.360960164 13.017254,-0.360960164 17.32,1.82 Z" id="Shape" stroke="#1F2C3D" stroke-width="0.5"></path>
            </g>
            <g id="Group" transform="translate(115.000000, 14.000000)">
                <path d="M17.22,9.81 C21.02,12.01 21.05,15.57 17.27,17.81 C12.9517436,19.9997813 7.84825643,19.9997813 3.53,17.81 C-0.27,15.61 -0.29,12.05 3.53,9.81 C7.83158419,7.62418335 12.9184158,7.62418335 17.22,9.81 Z" id="Shape"></path>
                <path d="M20.09,6.34 L20.09,13.85 C20.09,15.28 19.15,16.71 17.27,17.8 C12.9540781,19.9995252 7.84592188,19.9995252 3.53,17.8 C1.62,16.7 0.66,15.25 0.66,13.8 L0.66,6.29 C0.66,7.74 1.66,9.19 3.52,10.29 C7.83592188,12.4895252 12.9440781,12.4895252 17.26,10.29 C19.15,9.2 20.09,7.77 20.09,6.34 Z" id="Shape" stroke="#1F2C3D" stroke-width="0.5"></path>
                <path d="M17.22,2.33 C21.02,4.53 21.05,8.09 17.27,10.33 C12.9540781,12.5295252 7.84592188,12.5295252 3.53,10.33 C-0.27,8.14 -0.29,4.57 3.53,2.38 C7.82477653,0.183308619 12.9092923,0.164738437 17.22,2.33 Z" id="Shape" stroke="#1F2C3D" stroke-width="0.5"></path>
            </g>
            <polygon id="Shape" stroke="#1F2C3D" stroke-width="0.5" points="50.34 86.83 50.34 106.46 0.35 77.6 0.35 57.96"></polygon>
            <g id="Group" transform="translate(15.000000, 43.000000)">
                <path d="M17.4,9.68 C21.2,11.88 21.23,15.44 17.45,17.68 C13.1317436,19.8697813 8.02825643,19.8697813 3.71,17.68 C-0.09,15.48 -0.11,11.92 3.71,9.68 C8.01274601,7.49903984 13.097254,7.49903984 17.4,9.68 Z" id="Shape"></path>
                <path d="M20.27,6.22 L20.27,13.73 C20.27,15.16 19.33,16.58 17.45,17.67 C13.1340781,19.8695252 8.02592188,19.8695252 3.71,17.67 C1.8,16.57 0.84,15.12 0.84,13.67 L0.84,6.16 C0.84,7.61 1.84,9.06 3.7,10.16 C8.01592188,12.3595252 13.1240781,12.3595252 17.44,10.16 C19.33,9.07 20.27,7.65 20.27,6.22 Z" id="Shape" stroke="#1F2C3D" stroke-width="0.5"></path>
                <path d="M17.4,2.21 C21.2,4.4 21.23,7.97 17.45,10.16 C13.1340781,12.3595252 8.02592188,12.3595252 3.71,10.16 C-0.09,7.97 -0.11,4.4 3.71,2.21 C8.01158419,0.0241833503 13.0984158,0.0241833503 17.4,2.21 Z" id="Shape" stroke="#1F2C3D" stroke-width="0.5"></path>
            </g>
            <g id="Group" transform="translate(40.000000, 58.000000)">
                <path d="M17.3,9.2 C21.1,11.39 21.13,14.96 17.35,17.2 C13.0340781,19.3995252 7.92592188,19.3995252 3.61,17.2 C-0.19,15.01 -0.21,11.44 3.61,9.2 C7.91158419,7.01418335 12.9984158,7.01418335 17.3,9.2 Z" id="Shape"></path>
                <path d="M20.17,5.73 L20.17,13.24 C20.17,14.67 19.23,16.1 17.35,17.24 C13.0340781,19.4395252 7.92592188,19.4395252 3.61,17.24 C1.69,16.14 0.74,14.68 0.74,13.24 L0.74,5.73 C0.74,7.18 1.74,8.63 3.6,9.73 C7.91592188,11.9295252 13.0240781,11.9295252 17.34,9.73 C19.23,8.59 20.17,7.16 20.17,5.73 Z" id="Shape" stroke="#1F2C3D" stroke-width="0.5"></path>
                <path d="M17.3,1.72 C21.1,3.92 21.13,7.48 17.35,9.72 C13.0340781,11.9195252 7.92592188,11.9195252 3.61,9.72 C-0.19,7.53 -0.21,3.96 3.61,1.72 C7.91389981,-0.456126509 12.9961002,-0.456126509 17.3,1.72 Z" id="Shape" stroke="#1F2C3D" stroke-width="0.5"></path>
            </g>
            <g id="Group" transform="translate(40.000000, 29.000000)">
                <path d="M17.32,9.17 C21.12,11.36 21.15,14.93 17.32,17.12 C13.0005852,19.3196605 7.88941481,19.3196605 3.57,17.12 C-0.23,14.93 -0.25,11.36 3.57,9.17 C7.88863103,6.96707568 13.001369,6.96707568 17.32,9.17 Z" id="Shape"></path>
                <path d="M20.19,5.7 L20.19,13.21 C20.19,14.64 19.25,16.07 17.37,17.16 C13.0540781,19.3595252 7.94592188,19.3595252 3.63,17.16 C1.72,16.06 0.77,14.6 0.77,13.16 L0.77,5.65 C0.77,7.09 1.77,8.55 3.63,9.65 C7.94941481,11.8496605 13.0605852,11.8496605 17.38,9.65 C19.24,8.56 20.18,7.13 20.19,5.7 Z" id="Shape" stroke="#1F2C3D" stroke-width="0.5"></path>
                <path d="M17.32,1.69 C21.12,3.89 21.15,7.45 17.32,9.69 C13.0005852,11.8896605 7.88941481,11.8896605 3.57,9.69 C-0.23,7.5 -0.25,3.93 3.57,1.69 C7.89097154,-0.50316353 12.9990285,-0.50316353 17.32,1.69 Z" id="Shape" stroke="#1F2C3D" stroke-width="0.5"></path>
            </g>
            <g id="Group" transform="translate(65.000000, 43.000000)">
                <path d="M17.21,9.68 C21.02,11.88 21.05,15.44 17.27,17.68 C12.9482555,19.8699303 7.84174453,19.8699303 3.52,17.68 C-0.28,15.48 -0.3,11.92 3.52,9.68 C7.82274601,7.49903984 12.907254,7.49903984 17.21,9.68 Z" id="Shape"></path>
                <path d="M20.09,6.22 L20.09,13.73 C20.09,15.16 19.15,16.58 17.27,17.67 C12.9540781,19.8695252 7.84592188,19.8695252 3.53,17.67 C1.62,16.57 0.67,15.12 0.67,13.67 L0.67,6.16 C0.67,7.61 1.67,9.06 3.53,10.16 C7.84941481,12.3596605 12.9605852,12.3596605 17.28,10.16 C19.14,9.07 20.08,7.65 20.09,6.22 Z" id="Shape" stroke="#1F2C3D" stroke-width="0.5"></path>
                <path d="M17.21,2.21 C21.02,4.4 21.05,7.97 17.27,10.16 C12.9505852,12.3596605 7.83941481,12.3596605 3.52,10.16 C-0.28,7.97 -0.3,4.4 3.52,2.21 C7.82158419,0.0241833503 12.9084158,0.0241833503 17.21,2.21 Z" id="Shape" stroke="#1F2C3D" stroke-width="0.5"></path>
            </g>
        </g>
    </g>
</svg>