<?xml version="1.0" encoding="UTF-8"?>
<svg width="101px" height="78px" viewBox="0 0 101 78" version="1.1" xmlns="http://www.w3.org/2000/svg" xmlns:xlink="http://www.w3.org/1999/xlink">
    <!-- Generator: Sketch 50.2 (55047) - http://www.bohemiancoding.com/sketch -->
    <title>Asset 7</title>
    <desc>Created with Sketch.</desc>
    <defs></defs>
    <g id="Page-1" stroke="none" stroke-width="1" fill="none" fill-rule="evenodd">
        <g id="Asset-7" fill="#096AD0" fill-rule="nonzero">
            <polygon id="Shape" stroke="#1F2C3D" stroke-width="0.35" points="0.35 29.09 50.35 57.96 100.35 29.09 50.35 0.21"></polygon>
            <polygon id="Shape" stroke="#1F2C3D" stroke-width="0.35" points="50.35 57.96 50.35 77.59 100.35 48.73 100.35 29.09"></polygon>
            <polygon id="Shape" stroke="#1F2C3D" stroke-width="0.35" points="0.35 29.09 0.35 48.72 50.35 77.59 50.35 57.96"></polygon>
            <g id="Group" transform="translate(65.000000, 14.000000)">
                <path d="M3.29,9.81 C-0.51,12.01 -0.54,15.57 3.24,17.81 C7.55825643,19.9997813 12.6617436,19.9997813 16.98,17.81 C20.78,15.61 20.8,12.05 16.98,9.81 C12.677254,7.62903984 7.59274601,7.62903984 3.29,9.81 Z" id="Shape"></path>
                <path d="M0.42,6.35 L0.42,13.86 C0.42,15.28 1.42,16.71 3.24,17.8 C7.56212486,20.003057 12.6778751,20.003057 17,17.8 C18.91,16.7 19.86,15.25 19.86,13.8 L19.86,6.29 C19.86,7.74 18.91,9.19 16.99,10.29 C12.6740781,12.4895252 7.56592188,12.4895252 3.25,10.29 C1.37,9.2 0.43,7.77 0.42,6.35 Z" id="Shape" stroke="#1F2C3D" stroke-width="0.35"></path>
                <path d="M3.29,2.34 C-0.51,4.53 -0.54,8.1 3.24,10.34 C7.55592188,12.5395252 12.6640781,12.5395252 16.98,10.34 C20.78,8.15 20.8,4.58 16.98,2.39 C12.686403,0.188456332 7.59956359,0.169877663 3.29,2.34 Z" id="Shape" stroke="#1F2C3D" stroke-width="0.35"></path>
            </g>
            <g id="Group" transform="translate(40.000000, 29.000000)">
                <path d="M3.39,9.33 C-0.41,11.52 -0.44,15.08 3.39,17.33 C7.70592188,19.5295252 12.8140781,19.5295252 17.13,17.33 C20.93,15.14 20.95,11.57 17.13,9.33 C12.8148635,7.12720632 7.70513646,7.12720632 3.39,9.33 Z" id="Shape"></path>
                <path d="M0.52,5.86 L0.52,13.37 C0.52,14.8 1.52,16.23 3.34,17.37 C7.65941481,19.5696605 12.7705852,19.5696605 17.09,17.37 C19,16.21 20,14.76 20,13.32 L20,5.81 C20,7.25 19,8.71 17.13,9.81 C12.8140781,12.0095252 7.70592188,12.0095252 3.39,9.81 C1.46,8.72 0.53,7.29 0.52,5.86 Z" id="Shape" stroke="#1F2C3D" stroke-width="0.35"></path>
                <path d="M3.39,1.85 C-0.41,4.05 -0.44,7.61 3.39,9.85 C7.70592188,12.0495252 12.8140781,12.0495252 17.13,9.85 C20.93,7.65 20.95,4.09 17.13,1.85 C12.8136868,-0.34789486 7.70631322,-0.34789486 3.39,1.85 Z" id="Shape" stroke="#1F2C3D" stroke-width="0.35"></path>
            </g>
            <g id="Group" transform="translate(40.000000, 0.000000)">
                <path d="M3.38,9.29 C-0.43,11.49 -0.46,15.05 3.32,17.29 C7.63941481,19.4896605 12.7505852,19.4896605 17.07,17.29 C20.87,15.1 20.89,11.53 17.07,9.29 C12.7661002,7.11387349 7.68389981,7.11387349 3.38,9.29 Z" id="Shape"></path>
                <path d="M0.51,5.83 L0.51,13.34 C0.51,14.77 1.45,16.2 3.33,17.29 C7.64825643,19.4797813 12.7517436,19.4797813 17.07,17.29 C19,16.18 20,14.73 20,13.28 L20,5.77 C20,7.22 19,8.67 17.14,9.77 C12.8182555,11.9599303 7.71174453,11.9599303 3.39,9.77 C1.45,8.69 0.51,7.26 0.51,5.83 Z" id="Shape" stroke="#1F2C3D" stroke-width="0.35"></path>
                <path d="M3.38,1.82 C-0.43,4.02 -0.46,7.58 3.32,9.82 C7.64174453,12.0099303 12.7482555,12.0099303 17.07,9.82 C20.87,7.62 20.89,4.06 17.07,1.82 C12.767254,-0.360960164 7.68274601,-0.360960164 3.38,1.82 Z" id="Shape" stroke="#1F2C3D" stroke-width="0.35"></path>
            </g>
            <g id="Group" transform="translate(15.000000, 14.000000)">
                <path d="M3.47,9.81 C-0.33,12.01 -0.36,15.57 3.47,17.81 C7.79174453,19.9999303 12.8982555,19.9999303 17.22,17.81 C21.02,15.61 21.04,12.05 17.22,9.81 C12.9001947,7.61196757 7.78980534,7.61196757 3.47,9.81 Z" id="Shape"></path>
                <path d="M0.6,6.35 L0.6,13.86 C0.6,15.28 1.54,16.71 3.42,17.8 C7.73592188,19.9995252 12.8440781,19.9995252 17.16,17.8 C19.07,16.7 20.02,15.25 20.02,13.8 L20.02,6.29 C20.02,7.74 19.02,9.19 17.16,10.29 C12.8405852,12.4896605 7.72941481,12.4896605 3.41,10.29 C1.55,9.2 0.61,7.77 0.6,6.35 Z" id="Shape" stroke="#1F2C3D" stroke-width="0.35"></path>
                <path d="M3.47,2.34 C-0.33,4.53 -0.36,8.1 3.47,10.34 C7.78941481,12.5396605 12.9005852,12.5396605 17.22,10.34 C21.02,8.15 21.04,4.58 17.22,2.39 C12.9093836,0.171355228 7.79663779,0.152763425 3.47,2.34 Z" id="Shape" stroke="#1F2C3D" stroke-width="0.35"></path>
            </g>
        </g>
    </g>
</svg>