<?xml version="1.0" encoding="UTF-8"?>
<svg width="100px" height="69px" viewBox="0 0 100 69" version="1.1" xmlns="http://www.w3.org/2000/svg" xmlns:xlink="http://www.w3.org/1999/xlink">
    <!-- Generator: Sketch 50.2 (55047) - http://www.bohemiancoding.com/sketch -->
    <title>Icon Copy</title>
    <desc>Created with Sketch.</desc>
    <defs></defs>
    <g id="Components" stroke="none" stroke-width="1" fill="none" fill-rule="evenodd">
        <path d="M97.029703,50.82 L70.9306931,23.46 C70.3712871,22.873 69.350495,22.873 68.7910891,23.46 L45.960396,47.395 C45.3910891,47.991 45.4079208,48.94 45.9990099,49.515 C46.590099,50.09 47.5316832,50.074 48.0990099,49.476 L69.8613861,26.663 L96.4554455,54.541 C96.6207921,54.715 96.8188119,54.834 97.029703,54.909 L97.029703,66 L56.0742574,66 L22.8425743,31.455 C22.2821782,30.874 21.2722772,30.874 20.7118812,31.455 L2.97029703,49.898 L2.97029703,3 L97.029703,3 L97.029703,50.82 Z M2.97029703,66 L2.97029703,54.178 C2.99306931,54.156 3.02376238,54.149 3.04554455,54.126 L21.7772277,34.652 L51.9316832,66 L2.97029703,66 Z M98.5148515,-5.68434189e-14 C99.3346535,-5.68434189e-14 100,0.671 100,1.5 L100,67.5 C100,68.329 99.3346535,69 98.5148515,69 L1.48514851,69 C0.665346535,69 0,68.329 0,67.5 L0,1.5 C0,0.671 0.665346535,-5.68434189e-14 1.48514851,-5.68434189e-14 L98.5148515,-5.68434189e-14 Z M42.5742574,32.0001 C47.4881188,32.0001 51.4851485,27.9621 51.4851485,23.0001 C51.4851485,18.0381 47.4881188,14.0001 42.5742574,14.0001 C37.660396,14.0001 33.6633663,18.0381 33.6633663,23.0001 C33.6633663,27.9621 37.660396,32.0001 42.5742574,32.0001 Z M42.5742574,17.0001 C45.850495,17.0001 48.5148515,19.6911 48.5148515,23.0001 C48.5148515,26.3091 45.850495,29.0001 42.5742574,29.0001 C39.2980198,29.0001 36.6336634,26.3091 36.6336634,23.0001 C36.6336634,19.6911 39.2980198,17.0001 42.5742574,17.0001 Z" id="Icon-Copy" fill="#096AD0"></path>
    </g>
</svg>