<?xml version="1.0" encoding="UTF-8"?>
<svg width="67px" height="59px" viewBox="0 0 67 59" version="1.1" xmlns="http://www.w3.org/2000/svg" xmlns:xlink="http://www.w3.org/1999/xlink">
    <!-- Generator: Sketch 50.2 (55047) - http://www.bohemiancoding.com/sketch -->
    <title>Group 3</title>
    <desc>Created with Sketch.</desc>
    <defs></defs>
    <g id="landing-page" stroke="none" stroke-width="1" fill="none" fill-rule="evenodd" fill-opacity="0.0995244565">
        <g id="Extra-large:-Desktops---12-col" transform="translate(-1022.000000, -4795.000000)" fill="#E6F2FF" stroke="#FFFFFF">
            <g id="Group-3" transform="translate(1022.000000, 4795.000000)">
                <path d="M0.5,9 L0.5,16 C0.5,20.5203061 15.3133049,24.5 33.5,24.5 C51.6866951,24.5 66.5,20.5203061 66.5,16 L66.5,9 C66.5,4.47969385 51.6866951,0.5 33.5,0.5 C15.3133049,0.5 0.5,4.47969385 0.5,9 Z" id="Combined-Shape"></path>
                <path d="M-8.32667268e-16,21.0841492 L0.204464018,21.0000168 L0.204457117,21.5 L0,21.5 L0,21.0841492 Z M0.5,22.3746285 L0.5,33 C0.5,37.5203061 15.3133049,41.5 33.5,41.5 C51.6866951,41.5 66.5,37.5203061 66.5,33 L66.5,22.3746285 C62.8287454,26.5655301 49.3746659,29.5 33.5,29.5 C17.6253341,29.5 4.17125462,26.5655301 0.5,22.3746285 Z M67.0000069,21.084152 L67.000041,21.5 L66.795577,21.5000168 L66.795536,21.0000168 L67.0000069,21.084152 Z" id="Combined-Shape-Copy-2"></path>
                <path d="M-2.22044605e-16,38.0841492 L0.204464018,38.0000168 L0.204457117,38.5 L0,38.5 L0,38.0841492 Z M0.5,39.3746285 L0.5,50 C0.5,54.5203061 15.3133049,58.5 33.5,58.5 C51.6866951,58.5 66.5,54.5203061 66.5,50 L66.5,39.3746285 C62.8287454,43.5655301 49.3746659,46.5 33.5,46.5 C17.6253341,46.5 4.17125462,43.5655301 0.5,39.3746285 Z M67.0000069,38.084152 L67.000041,38.5 L66.795577,38.5000168 L66.795536,38.0000168 L67.0000069,38.084152 Z" id="Combined-Shape-Copy-3"></path>
            </g>
        </g>
    </g>
</svg>