<?xml version="1.0" encoding="UTF-8"?>
<svg width="890px" height="514px" viewBox="0 0 890 514" version="1.1" xmlns="http://www.w3.org/2000/svg" xmlns:xlink="http://www.w3.org/1999/xlink">
    <!-- Generator: Sketch 50.2 (55047) - http://www.bohemiancoding.com/sketch -->
    <title>5b3bed5903cf0f6ca466f97e_Macbook 890px</title>
    <desc>Created with Sketch.</desc>
    <defs>
        <polygon id="path-1" points="0 418 679 418 679 0 0 0"></polygon>
    </defs>
    <g id="Page-1" stroke="none" stroke-width="1" fill="none" fill-rule="evenodd">
        <g id="5b3bed5903cf0f6ca466f97e_Macbook-890px">
            <g id="Macbook" fill-rule="nonzero">
                <path d="M104.172414,0 C90.2698994,0 79,11.2490299 79,25.1257996 L79,474.249467 C79,483.499949 86.5139655,491 95.7816092,491 L792.218391,491 C801.487083,491 809,483.499949 809,474.249467 L809,25.1257996 C809,11.2490299 797.730101,0 783.827586,0 L104.172414,0 Z" id="Shape" fill="#E6F2FF"></path>
                <path d="M104.172414,3 C91.9255102,3 82,12.9071301 82,25.1257996 L82,474.249467 C82,481.841849 88.1695763,488 95.7816092,488 L792.218391,488 C799.831081,488 806,481.842239 806,474.249467 L806,25.1257996 C806,12.9071301 796.07449,3 783.827586,3 L104.172414,3 Z M104.172414,0 L783.827586,0 C797.730101,0 809,11.2490299 809,25.1257996 L809,474.249467 C809,483.499949 801.487083,491 792.218391,491 L95.7816092,491 C86.5139655,491 79,483.499949 79,474.249467 L79,25.1257996 C79,11.2490299 90.2698994,0 104.172414,0 Z" id="Shape" fill="#096AD0"></path>
                <polygon id="Shape" fill="#096AD0" points="106 452 789 452 789 30 106 30"></polygon>
                <path d="M890,488 L447.739666,488 L0,488 L0,503.016 L0,503.126 C1.0322017,503.102 20.019912,514 34.5531867,514 L447.478745,514 L855.689991,514 C870.120985,514 888.973017,503.102 889.959296,503.102 C889.986432,503.102 890,503.016 890,503.016 L890,488 Z" id="Shape" fill="#E6F2FF"></path>
                <path d="M3.61507484,501.411362 C3.74629887,501.473513 4.75286351,501.951363 5.08071476,502.106469 C8.15652401,503.561622 10.6123717,504.664899 13.365312,505.783743 C17.9072817,507.62968 22.1947222,509.052819 26.1935759,509.952845 C29.2480914,510.640328 32.0502236,511 34.5531867,511 L855.689991,511 C858.167349,511 860.940898,510.642034 863.963495,509.957667 C867.944411,509.05632 872.21435,507.627366 876.727625,505.775542 C879.463647,504.652936 881.935516,503.530653 884.921302,502.099521 C885.155058,501.987478 885.386737,501.876114 885.679145,501.73532 C886.034793,501.564015 886.034793,501.564015 886.366621,501.404275 C886.613953,501.285293 886.820014,501.186479 887,501.100667 L887,491 L3,491 L3,501.121283 C3.17878506,501.205095 3.3802644,501.300151 3.61507484,501.411362 Z M890,488 L890,503.016 C890,503.016 889.986432,503.102 889.959296,503.102 C888.973017,503.102 870.120985,514 855.689991,514 L34.5531867,514 C20.019912,514 1.0322017,503.102 0,503.126 L0,488 L890,488 Z" id="Shape" fill="#096AD0"></path>
                <polygon id="Line" fill="#096AD0" points="2 501 1 503 887 503 888 501"></polygon>
                <path d="M491.254626,498 L389.744362,498 C384.361318,498 380,493.566756 380,488.100802 L380,488 L501,488 L501,488.100802 C501,493.566756 496.636657,498 491.254626,498" id="Shape" fill="#096AD0"></path>
                <path d="M444,17.5 C444,19.4328052 442.433832,21 440.5,21 C438.566168,21 437,19.4328052 437,17.5 C437,15.5671948 438.566168,14 440.5,14 C442.433832,14 444,15.5671948 444,17.5" id="Oval" fill="#096AD0"></path>
            </g>
            <g id="Screen" transform="translate(108.000000, 32.000000)">
                <g id="Mask" fill="#FFFFFF" fill-rule="nonzero">
                    <polygon id="path-1" points="0 418 679 418 679 0 0 0"></polygon>
                </g>
                <g id="Icon-Clipped">
                    <mask id="mask-2" fill="white">
                        <use xlink:href="#path-1"></use>
                    </mask>
                    <g id="path-1"></g>
                </g>
            </g>
        </g>
    </g>
</svg>