<?xml version="1.0" encoding="UTF-8"?>
<svg width="44px" height="44px" viewBox="0 0 44 44" version="1.1" xmlns="http://www.w3.org/2000/svg" xmlns:xlink="http://www.w3.org/1999/xlink">
    <!-- Generator: Sketch 50.2 (55047) - http://www.bohemiancoding.com/sketch -->
    <title>dribbble</title>
    <desc>Created with Sketch.</desc>
    <defs></defs>
    <g id="dribbble" stroke="none" stroke-width="1" fill="none" fill-rule="evenodd">
        <g id="dribble">
            <rect id="Rectangle" x="0" y="0" width="44" height="44"></rect>
            <path d="M32.7762098,19.7862896 C32.6326219,19.0787818 32.4152996,18.3829149 32.1345916,17.7180904 C31.8603516,17.0662002 31.5175516,16.4375919 31.120421,15.8503733 C30.7271712,15.2683285 30.27571,14.719913 29.7789734,14.2232348 C29.2809431,13.7252631 28.7337567,13.273855 28.1503499,12.8806514 C27.5630623,12.4822741 26.93438,12.1421012 26.2824131,11.8653066 C25.6175104,11.5859251 24.9215617,11.3673349 24.2152643,11.2250573 C23.4908567,11.0763125 22.7457517,11 22.0006468,11 C21.2542483,11 20.5091433,11.0763125 19.7847357,11.2250573 C19.0784383,11.3673349 18.3824896,11.5859251 17.7175869,11.8653066 C17.06562,12.1421012 16.4369377,12.4822741 15.8483566,12.8806514 C15.2662433,13.273855 14.7190569,13.7252631 14.2210266,14.2232348 C13.7229964,14.719913 13.2728288,15.2683285 12.879579,15.8503733 C12.4811548,16.4375919 12.1396484,17.0662002 11.8641148,17.7180904 C11.5834068,18.3829149 11.3673781,19.0787818 11.2224966,19.7862896 C11.0750279,20.5080252 11,21.2543359 11,21.9993533 C11,22.7456641 11.0750279,23.4919748 11.2224966,24.2162973 C11.3673781,24.9212182 11.5834068,25.6183785 11.8641148,26.2819096 C12.1396484,26.9337998 12.4811548,27.5637016 12.879579,28.1522135 C13.2728288,28.7342583 13.7229964,29.280087 14.2210266,29.7780587 C14.7190569,30.2760303 15.2662433,30.726145 15.8483566,31.1193486 C16.4369377,31.5177259 17.06562,31.8591922 17.7175869,32.1346934 C18.3824896,32.4153683 19.0784383,32.6300782 19.7847357,32.7749427 C20.5091433,32.9249809 21.2542483,33 22.0006468,33 C22.7457517,33 23.4908567,32.9249809 24.2152643,32.7749427 C24.9215617,32.6300782 25.6175104,32.4153683 26.2824131,32.1346934 C26.93438,31.8591922 27.5630623,31.5177259 28.1503499,31.1193486 C28.7337567,30.726145 29.2809431,30.2760303 29.7789734,29.7780587 C30.27571,29.280087 30.7271712,28.7342583 31.120421,28.1522135 C31.5175516,27.5637016 31.8603516,26.9337998 32.1345916,26.2819096 C32.4152996,25.6183785 32.6326219,24.9212182 32.7762098,24.2162973 C32.9249721,23.4919748 33,22.7456641 33,21.9993533 C33,21.2543359 32.9249721,20.5080252 32.7762098,19.7862896 L32.7762098,19.7862896 Z M31.3920739,21.9062261 C31.2562474,21.8764772 28.0766155,21.1922512 24.849121,21.5983891 C24.7818545,21.4380034 24.7145881,21.2763243 24.6460281,21.1146452 C24.4494032,20.6541831 24.2398424,20.1988947 24.0212266,19.7513669 C27.7312283,18.236757 29.2369613,16.058616 29.2550714,16.0327474 C30.571941,17.6340173 31.3700829,19.6776412 31.3920739,21.9062261 L31.3920739,21.9062261 Z M28.2046804,14.950144 C28.1813959,14.9863602 26.843829,17.023517 23.296819,18.3518725 C21.69148,15.4015521 19.92703,13.0578517 19.7860293,12.8715974 C20.4962074,12.6995708 21.2374316,12.6064436 22.0006468,12.6064436 C24.378256,12.6064436 26.5488916,13.4937386 28.2046804,14.950144 L28.2046804,14.950144 Z M19.7498089,12.879358 C19.7498089,12.8806514 19.7485153,12.8806514 19.7485153,12.8806514 C19.7485153,12.8806514 19.7368731,12.8832383 19.7200564,12.8871186 C19.7291115,12.8845317 19.7394602,12.8832383 19.7498089,12.879358 L19.7498089,12.879358 Z M17.9918269,13.5040861 C18.1160111,13.6722323 19.8545893,16.0262802 21.4806256,18.9171027 C16.9698947,20.116115 13.054213,20.068258 12.8058447,20.0643777 C13.4164168,17.1541537 15.3710237,14.7419013 17.9918269,13.5040861 L17.9918269,13.5040861 Z M12.605339,21.9993533 C12.605339,21.899759 12.6105133,21.8014581 12.6131005,21.7031572 C12.7786794,21.7070375 17.4213559,21.8118055 22.2580702,20.3644541 C22.5271359,20.8908813 22.7845593,21.4263625 23.0199918,21.9605503 C22.8958076,21.995473 22.772917,22.0329825 22.6500265,22.073079 C17.5804669,23.7118584 15.0088199,28.2725028 15.0088199,28.2725028 C15.0088199,28.2725028 15.0127007,28.2763831 15.0127007,28.2776765 C13.5160228,26.6130284 12.605339,24.4128991 12.605339,21.9993533 L12.605339,21.9993533 Z M22.0006468,31.3935564 C19.7265244,31.3935564 17.6412654,30.5851608 16.015229,29.241284 C16.1394132,29.3408784 16.2260834,29.40555 16.2260834,29.40555 C16.2260834,29.40555 18.0267537,25.4786878 23.5982243,23.537245 C23.6189216,23.5294844 23.639619,23.5230172 23.6616099,23.5165501 C24.9836538,26.9519078 25.5282531,29.8285026 25.6679603,30.6498324 C24.5412477,31.1284026 23.3006997,31.3935564 22.0006468,31.3935564 L22.0006468,31.3935564 Z M27.2500147,29.790993 C27.1542894,29.2244694 26.653672,26.4668705 25.4208855,23.0819566 C28.4543423,22.5969193 31.0816135,23.4285966 31.2756512,23.4919748 C30.8578232,26.1085896 29.3585582,28.3669234 27.2500147,29.790993 L27.2500147,29.790993 Z" id="Shape" fill="#096AD0"></path>
        </g>
    </g>
</svg>