<?xml version="1.0" encoding="UTF-8"?>
<svg width="100px" height="35px" viewBox="0 0 100 35" version="1.1" xmlns="http://www.w3.org/2000/svg" xmlns:xlink="http://www.w3.org/1999/xlink">
    <!-- Generator: Sketch 50.2 (55047) - http://www.bohemiancoding.com/sketch -->
    <title>dropbox logo copy</title>
    <desc>Created with Sketch.</desc>
    <defs></defs>
    <g id="dropbox-logo-copy" stroke="none" stroke-width="1" fill="none" fill-rule="evenodd">
        <g id="Dropbox_logo_2017" transform="translate(0.000000, 7.000000)" fill="#096AD0" fill-rule="nonzero">
            <path d="M11.7044572,3.64852539 L5.93069644,7.29705078 L11.7044572,10.9455762 L5.93069644,14.5941016 L0.15693573,10.9151718 L5.93069644,7.2666464 L0.15693573,3.64852539 L5.93069644,0 L11.7044572,3.64852539 Z M5.89998495,15.7494679 L11.6737457,12.1009425 L17.4475064,15.7494679 L11.6737457,19.3979933 L5.89998495,15.7494679 Z M11.7044572,10.9151718 L17.4782179,7.2666464 L11.7044572,3.64852539 L17.4475064,0 L23.2212671,3.64852539 L17.4475064,7.29705078 L23.2212671,10.9455762 L17.4475064,14.5941016 L11.7044572,10.9151718 Z" id="Shape"></path>
            <path d="M27.7358566,3.64852539 L32.4040036,3.64852539 C35.3830184,3.64852539 37.8399378,5.35117057 37.8399378,9.24293098 L37.8399378,10.0638492 C37.8399378,13.986014 35.5365759,15.7494679 32.496138,15.7494679 L27.7358566,15.7494679 L27.7358566,3.64852539 Z M30.3463335,5.83764062 L30.3463335,13.5299483 L32.3425806,13.5299483 C34.0317127,13.5299483 35.1680379,12.4353907 35.1680379,10.0030404 L35.1680379,9.36454849 C35.1680379,6.93219824 33.9702897,5.83764062 32.2504461,5.83764062 L30.3463335,5.83764062 Z M39.221955,5.95925813 L41.3103366,5.95925813 L41.648163,8.2395865 C42.0474124,6.68896321 43.0608917,5.868045 44.9035813,5.868045 L45.5485226,5.868045 L45.5485226,8.48282153 L44.4736204,8.48282153 C42.3545273,8.48282153 41.832432,9.2125266 41.832432,11.2800243 L41.832432,15.7798723 L39.2526665,15.7798723 L39.2526665,5.95925813 L39.221955,5.95925813 Z M46.070618,11.0671937 L46.070618,10.7935543 C46.070618,7.50988142 48.189711,5.71602311 51.0765914,5.71602311 C54.0248947,5.71602311 56.0825648,7.50988142 56.0825648,10.7935543 L56.0825648,11.0671937 C56.0825648,14.2900578 54.0863177,16.0231073 51.0765914,16.0231073 C47.8825961,15.9927029 46.070618,14.2900578 46.070618,11.0671937 Z M53.4413764,11.0367893 L53.4413764,10.7935543 C53.4413764,8.96929158 52.5200316,7.87473396 51.0458799,7.87473396 C49.6024397,7.87473396 48.6503834,8.87807844 48.6503834,10.7935543 L48.6503834,11.0367893 C48.6503834,12.8002432 49.5717282,13.8035877 51.0458799,13.8035877 C52.5200316,13.7731833 53.4413764,12.8002432 53.4413764,11.0367893 Z M57.4338705,5.95925813 L59.583675,5.95925813 L59.8293669,7.81392521 C60.3514623,6.5673457 61.4570761,5.71602311 63.0847852,5.71602311 C65.6031277,5.71602311 67.2615483,7.50988142 67.2615483,10.8239587 L67.2615483,11.0975981 C67.2615483,14.3204621 65.4188587,16.0231073 63.0847852,16.0231073 C61.5184991,16.0231073 60.4435968,15.3238066 59.9215014,14.1988446 L59.9215014,19.1547583 L57.403159,19.1547583 L57.4338705,5.95925813 Z M64.6510714,11.0367893 L64.6510714,10.8239587 C64.6510714,8.87807844 63.6375921,7.90513834 62.2862864,7.90513834 C60.8428462,7.90513834 59.8907899,8.99969596 59.8907899,10.8239587 L59.8907899,11.0063849 C59.8907899,12.7394345 60.8121347,13.8339921 62.2555749,13.8339921 C63.7297266,13.8035877 64.6510714,12.861052 64.6510714,11.0367893 Z M71.0697734,13.9556096 L70.854793,15.7494679 L68.6435655,15.7494679 L68.6435655,2.67558528 L71.1619079,2.67558528 L71.1619079,7.69230769 C71.7147148,6.41532381 72.8203286,5.71602311 74.3866147,5.71602311 C76.7513997,5.74642749 78.5019548,7.35785953 78.5019548,10.611128 L78.5019548,10.9151718 C78.5019548,14.1684403 76.8435342,16.0231073 74.3251917,16.0231073 C72.6667711,15.9927029 71.5918688,15.2325935 71.0697734,13.9556096 Z M75.8607664,10.9151718 L75.8607664,10.6719368 C75.8607664,8.87807844 74.8779986,7.87473396 73.4959814,7.87473396 C72.0832527,7.87473396 71.1004849,8.99969596 71.1004849,10.7023411 L71.1004849,10.9151718 C71.1004849,12.7394345 72.0525412,13.8035877 73.4652699,13.8035877 C74.9701331,13.8035877 75.8607664,12.861052 75.8607664,10.9151718 Z M79.6075685,11.0671937 L79.6075685,10.7935543 C79.6075685,7.50988142 81.7266616,5.71602311 84.6135419,5.71602311 C87.5618453,5.71602311 89.6195153,7.50988142 89.6195153,10.7935543 L89.6195153,11.0671937 C89.6195153,14.2900578 87.5925568,16.0231073 84.6135419,16.0231073 C81.4195466,15.9927029 79.6075685,14.2900578 79.6075685,11.0671937 Z M87.0090384,11.0367893 L87.0090384,10.7935543 C87.0090384,8.96929158 86.0876936,7.87473396 84.6135419,7.87473396 C83.1701017,7.87473396 82.2180455,8.87807844 82.2180455,10.7935543 L82.2180455,11.0367893 C82.2180455,12.8002432 83.1393903,13.8035877 84.6135419,13.8035877 C86.0876936,13.7731833 87.0090384,12.8002432 87.0090384,11.0367893 Z M92.9977796,10.6719368 L89.5273808,5.95925813 L92.5063957,5.95925813 L94.5026427,8.90848282 L96.5296013,5.95925813 L99.4779046,5.95925813 L95.9460829,10.6415324 L99.6621736,15.7494679 L96.7445817,15.7494679 L94.4719312,12.4961995 L92.2607037,15.7494679 L89.2202659,15.7494679 L92.9977796,10.6719368 Z" id="Shape"></path>
        </g>
    </g>
</svg>