<?xml version="1.0" encoding="UTF-8"?>
<svg width="100px" height="35px" viewBox="0 0 100 35" version="1.1" xmlns="http://www.w3.org/2000/svg" xmlns:xlink="http://www.w3.org/1999/xlink">
    <!-- Generator: Sketch 50.2 (55047) - http://www.bohemiancoding.com/sketch -->
    <title>facebook logo copy</title>
    <desc>Created with Sketch.</desc>
    <defs></defs>
    <g id="facebook-logo-copy" stroke="none" stroke-width="1" fill="none" fill-rule="evenodd">
        <g id="Facebook-reversed" transform="translate(0.000000, 7.000000)" fill="#096AD0" fill-rule="nonzero">
            <path d="M53.2203397,10.2004716 C52.3666651,10.2004716 51.7512919,10.4861503 51.1275024,10.7773133 L51.1275024,17.3634212 C51.7251244,17.4216059 52.067622,17.4216059 52.634866,17.4216059 C54.6837799,17.4216059 54.9646029,16.463939 54.9646029,15.1266389 L54.9646029,11.9808355 C54.9646029,10.9935991 54.6435981,10.2004716 53.2203397,10.2004716 Z M6.27711962,20.7371948 L2.09168469,20.7371948 L2.09168469,4.69340819 C2.09168469,1.78630688 3.27220383,0.0576889535 6.6270933,0.0576889535 L9.42034258,0.0576889535 L9.42034258,3.62175621 L7.67444498,3.62175621 C6.36823397,3.62175621 6.28225933,4.1196667 6.28225933,5.04919507 L6.27711962,20.7371948 Z M0,10.3962497 L0,6.83289795 L9.43996794,6.83289795 L9.06990239,10.3962497 L0,10.3962497 Z M16.3948211,12.2755773 C16.3948211,10.8230997 16.2317488,10.3962512 14.0428938,10.3962512 L10.463956,10.3962512 L10.8139297,6.83289942 L14.7260206,6.83289942 C19.5289325,6.83289942 20.5818909,8.38147751 20.5818909,12.304193 L20.5818909,20.7639024 L17.0936005,20.7639024 L16.9424435,19.8634663 C15.3495718,20.7639024 13.9279493,20.9098421 12.9901689,20.9098421 C10.4319488,20.9098421 9.06990144,19.1652471 9.06990144,16.7529561 C9.06990144,13.9066625 10.6588014,12.8908104 13.5015794,12.8908104 L16.7464115,12.8908104 L16.7464115,15.7437796 L14.5272038,15.7437796 C13.6433909,15.7437796 13.2548689,15.9116575 13.2548689,16.6966771 C13.2548689,17.4769282 13.6155895,17.8823151 14.4117919,17.8823151 C15.2659335,17.8823151 15.7715029,17.5980674 16.3948211,17.3061884 L16.3948211,12.2755773 Z M32.4445555,10.657605 C30.27369,10.2779719 29.6503718,10.1945101 28.6058239,10.1945101 C26.7295622,10.1945101 26.1625488,10.6170662 26.1625488,12.243145 L26.1625488,15.3193169 C26.1625488,16.945634 26.7295622,17.3700982 28.6058239,17.3700982 C29.6503718,17.3700982 30.27369,17.2852055 32.4445555,16.9036648 L32.4445555,20.3795003 C30.5430622,20.8144567 29.3043699,20.9289189 28.2572517,20.9289189 C23.7634292,20.9289189 21.9771139,18.5166279 21.9771139,15.0322073 L21.9771139,12.5359773 C21.9771139,9.04845705 23.7634287,6.63211207 28.2572517,6.63211207 C29.3043699,6.63211207 30.5430622,6.74705142 32.4445555,7.1839154 L32.4445555,10.657605 Z M37.8675167,15.3193169 C37.8675167,16.945634 38.4349952,17.3700982 40.3107895,17.3700982 C41.99711,17.3700982 43.0262392,17.2852055 45.193134,16.9036648 L45.193134,20.3795003 C43.1033397,20.8144567 42.0144019,20.9289189 39.9638517,20.9289189 C35.469799,20.9289189 33.6825474,18.5166279 33.6825474,15.0322073 L33.6825474,12.1782829 C33.6825474,9.12953463 35.0086172,6.63211207 39.6136459,6.63211207 C44.2186746,6.63211207 45.54311,9.10044181 45.54311,12.1782829 L45.54311,15.0322073 L37.7990431,15.0322073 L37.7990431,12.1782829 L41.3576746,12.1782829 L41.3576746,11.6240953 C41.3576746,10.6378123 41.0333971,9.84110791 39.6136459,9.84110791 C38.1922584,9.84110791 37.8675167,10.6378123 37.8675167,11.6240953 L37.8675167,15.3193169 Z M59.1493349,15.0980233 C59.1493349,18.4660736 58.2064163,20.9222419 52.4932919,20.9222419 C50.4303589,20.9222419 49.2201722,20.7371948 46.9432392,20.3795003 L46.9432392,1.12767216 L51.1275024,0.414906279 L51.1275024,7.14909984 C52.0316411,6.80618986 53.2021148,6.63211207 54.2674545,6.63211207 C58.4521914,6.63211207 59.1493349,8.54696923 59.1493349,11.6240953 L59.1493349,15.0980233 Z M91.3501962,20.7371948 L87.1645311,20.7371948 L87.1645311,1.12767216 L91.3501962,0.414906279 L91.3501962,20.7371948 Z M99.7215359,20.7371948 L95.1858947,20.7371948 L91.0190526,13.6371529 L95.1858947,6.83289795 L99.7215359,6.83289795 L95.5339952,13.6052451 L99.7215359,20.7371948 Z" id="path4"></path>
            <path d="M66.4562632,10.2004716 C65.0325407,10.2004716 64.5391196,10.9935991 64.5391196,11.9808355 L64.5391196,15.5844878 C64.5391196,16.5745855 65.0325407,17.3700982 66.4562632,17.3700982 C67.8762536,17.3700982 68.3734115,16.5745855 68.3734115,15.5844878 L68.3734115,11.9808355 C68.3734115,10.9935991 67.8762536,10.2004716 66.4562632,10.2004716 Z M72.5623493,15.17147 C72.5623493,18.0769021 71.3872057,20.8945805 66.4702823,20.8945805 C61.5510239,20.8945805 60.3539187,18.0769021 60.3539187,15.17147 L60.3539187,12.3661919 C60.3539187,9.45932888 61.5510239,6.64117381 66.4702823,6.64117381 C71.3872057,6.64117381 72.5623493,9.45932888 72.5623493,12.3661919 L72.5623493,15.17147 Z" id="path6"></path>
            <g id="use8" transform="translate(73.690287, 6.348837)">
                <path d="M6.16918182,3.85163442 C4.74545933,3.85163442 4.25203828,4.64476193 4.25203828,5.6319983 L4.25203828,9.23565056 C4.25203828,10.2257483 4.74545933,11.021261 6.16918182,11.021261 C7.58917225,11.021261 8.08633014,10.2257483 8.08633014,9.23565056 L8.08633014,5.6319983 C8.08633014,4.64476193 7.58917225,3.85163442 6.16918182,3.85163442 Z M12.2752679,8.82263281 C12.2752679,11.7280649 11.1001244,14.5457433 6.18320096,14.5457433 C1.26394258,14.5457433 0.0668373206,11.7280649 0.0668373206,8.82263281 L0.0668373206,6.01735465 C0.0668373206,3.11049167 1.26394258,0.292336605 6.18320096,0.292336605 C11.1001244,0.292336605 12.2752679,3.11049167 12.2752679,6.01735465 L12.2752679,8.82263281 Z" id="path6"></path>
            </g>
        </g>
    </g>
</svg>