<?xml version="1.0" encoding="UTF-8"?>
<svg width="24px" height="24px" viewBox="0 0 24 24" version="1.1" xmlns="http://www.w3.org/2000/svg" xmlns:xlink="http://www.w3.org/1999/xlink">
    <!-- Generator: Sketch 50.2 (55047) - http://www.bohemiancoding.com/sketch -->
    <title>icon/form</title>
    <desc>Created with Sketch.</desc>
    <defs></defs>
    <g id="icon/form" stroke="none" stroke-width="1" fill="none" fill-rule="evenodd">
        <polygon id="Shape" points="0 0 24 0 24 24 0 24"></polygon>
        <path d="M19,3 L5,3 C3.9,3 3,3.9 3,5 L3,9 C3,10.1 3.9,11 5,11 L19,11 C20.1,11 21,10.1 21,9 L21,5 C21,3.9 20.1,3 19,3 Z M19,9 L5,9 L5,5 L19,5 L19,9 Z" id="Shape" fill="#FFFFFF" fill-rule="nonzero"></path>
        <path d="M16,13 L5,13 C3.9,13 3,13.9 3,15 L3,19 C3,20.1 3.9,21 5,21 L16,21 C17.1,21 18,20.1 18,19 L18,15 C18,13.9 17.1,13 16,13 Z M16,19 L5,19 L5,15 L16,15 L16,19 Z" id="Shape-Copy" fill="#FFFFFF" fill-rule="nonzero"></path>
    </g>
</svg>