<?xml version="1.0" encoding="UTF-8"?>
<svg width="100px" height="35px" viewBox="0 0 100 35" version="1.1" xmlns="http://www.w3.org/2000/svg" xmlns:xlink="http://www.w3.org/1999/xlink">
    <!-- Generator: Sketch 50.2 (55047) - http://www.bohemiancoding.com/sketch -->
    <title>google logo copy</title>
    <desc>Created with Sketch.</desc>
    <defs></defs>
    <g id="google-logo-copy" stroke="none" stroke-width="1" fill="none" fill-rule="evenodd">
        <g id="google" transform="translate(0.000000, 1.000000)" fill="#096AD0" fill-rule="nonzero">
            <path d="M42.8703704,17.2993333 C42.8703704,21.9816667 39.1703704,25.432 34.6296296,25.432 C30.0888889,25.432 26.3888889,21.9816667 26.3888889,17.2993333 C26.3888889,12.584 30.0888889,9.16666667 34.6296296,9.16666667 C39.1703704,9.16666667 42.8703704,12.584 42.8703704,17.2993333 Z M39.262963,17.2993333 C39.262963,14.3733333 37.1185185,12.3713333 34.6296296,12.3713333 C32.1407407,12.3713333 29.9962963,14.3733333 29.9962963,17.2993333 C29.9962963,20.196 32.1407407,22.2273333 34.6296296,22.2273333 C37.1185185,22.2273333 39.262963,20.1923333 39.262963,17.2993333 Z" id="Shape"></path>
            <path d="M60.6481481,17.2993333 C60.6481481,21.9816667 56.9481481,25.432 52.4074074,25.432 C47.8666667,25.432 44.1666667,21.9816667 44.1666667,17.2993333 C44.1666667,12.5876667 47.8666667,9.16666667 52.4074074,9.16666667 C56.9481481,9.16666667 60.6481481,12.584 60.6481481,17.2993333 Z M57.0407407,17.2993333 C57.0407407,14.3733333 54.8962963,12.3713333 52.4074074,12.3713333 C49.9185185,12.3713333 47.7740741,14.3733333 47.7740741,17.2993333 C47.7740741,20.196 49.9185185,22.2273333 52.4074074,22.2273333 C54.8962963,22.2273333 57.0407407,20.1923333 57.0407407,17.2993333 Z" id="Shape"></path>
            <path d="M77.6851852,9.658 L77.6851852,24.2586667 C77.6851852,30.2646667 74.1074074,32.7176667 69.8777778,32.7176667 C65.8962963,32.7176667 63.5,30.0813333 62.5962963,27.9253333 L65.737037,26.631 C66.2962963,27.9546667 67.6666667,29.5166667 69.8740741,29.5166667 C72.5814815,29.5166667 74.2592593,27.863 74.2592593,24.75 L74.2592593,23.5803333 L74.1333333,23.5803333 C73.3259259,24.5666667 71.7703704,25.4283333 69.8074074,25.4283333 C65.7,25.4283333 61.937037,21.8863333 61.937037,17.3286667 C61.937037,12.738 65.7,9.16666667 69.8074074,9.16666667 C71.7666667,9.16666667 73.3222222,10.0283333 74.1333333,10.9853333 L74.2592593,10.9853333 L74.2592593,9.66166667 L77.6851852,9.66166667 L77.6851852,9.658 Z M74.5148148,17.3286667 C74.5148148,14.465 72.5851852,12.3713333 70.1296296,12.3713333 C67.6407407,12.3713333 65.5555556,14.465 65.5555556,17.3286667 C65.5555556,20.163 67.6407407,22.2273333 70.1296296,22.2273333 C72.5851852,22.2273333 74.5148148,20.163 74.5148148,17.3286667 Z" id="Shape"></path>
            <polygon id="Shape" points="83.3333333 1.1 83.3333333 24.9333333 79.8148148 24.9333333 79.8148148 1.1"></polygon>
            <path d="M97.0444444,19.976 L99.8444444,21.824 C98.9407407,23.1476667 96.762963,25.4283333 93,25.4283333 C88.3333333,25.4283333 84.8481481,21.857 84.8481481,17.2956667 C84.8481481,12.4593333 88.362963,9.163 92.5962963,9.163 C96.8592593,9.163 98.9444444,12.5216667 99.6259259,14.3366667 L100,15.2606667 L89.0185185,19.7633333 C89.8592593,21.395 91.1666667,22.2273333 93,22.2273333 C94.837037,22.2273333 96.1111111,21.3326667 97.0444444,19.976 Z M88.4259259,17.05 L95.7666667,14.0323333 C95.362963,13.0166667 94.1481481,12.309 92.7185185,12.309 C90.8851852,12.309 88.3333333,13.9113333 88.4259259,17.05 Z" id="Shape"></path>
            <path d="M13.0703704,15.1836667 L13.0703704,11.7333333 L24.8148148,11.7333333 C24.9296296,12.3346667 24.9888889,13.046 24.9888889,13.816 C24.9888889,16.4046667 24.2740741,19.6056667 21.9703704,21.8863333 C19.7296296,24.1963333 16.8666667,25.4283333 13.0740741,25.4283333 C6.04444444,25.4283333 0.133333333,19.7596667 0.133333333,12.8003333 C0.133333333,5.841 6.04444444,0.172333333 13.0740741,0.172333333 C16.962963,0.172333333 19.7333333,1.683 21.8148148,3.652 L19.3555556,6.08666667 C17.862963,4.70066667 15.8407407,3.62266667 13.0703704,3.62266667 C7.93703704,3.62266667 3.92222222,7.71833333 3.92222222,12.8003333 C3.92222222,17.8823333 7.93703704,21.978 13.0703704,21.978 C16.4,21.978 18.2962963,20.6543333 19.5111111,19.4516667 C20.4962963,18.4763333 21.1444444,17.083 21.4,15.18 L13.0703704,15.1836667 Z" id="Shape"></path>
        </g>
    </g>
</svg>