<?xml version="1.0" encoding="UTF-8"?>
<svg width="550px" height="235px" viewBox="0 0 550 235" version="1.1" xmlns="http://www.w3.org/2000/svg" xmlns:xlink="http://www.w3.org/1999/xlink">
    <!-- Generator: Sketch 50.2 (55047) - http://www.bohemiancoding.com/sketch -->
    <title>Group 22</title>
    <desc>Created with Sketch.</desc>
    <defs>
        <rect id="path-1" x="0" y="0" width="315" height="188"></rect>
        <rect id="path-3" x="0" y="0" width="127" height="168"></rect>
        <rect id="path-5" x="0" y="0" width="67" height="113"></rect>
    </defs>
    <g id="landing-page" stroke="none" stroke-width="1" fill="none" fill-rule="evenodd">
        <g id="Extra-large:-Desktops---12-col" transform="translate(-155.000000, -2928.000000)">
            <g id="Group-40" transform="translate(0.000000, 2752.000000)">
                <g id="Group-9" transform="translate(155.000000, 176.000000)">
                    <g id="Group-22">
                        <g id="Group-21">
                            <rect id="Rectangle-4" stroke="#096AD0" fill="#E6F2FF" x="11.5" y="0.5" width="351" height="234" rx="10"></rect>
                            <circle id="Oval-3" stroke="#096AD0" fill="#E6F2FF" cx="187.5" cy="10.5" r="2"></circle>
                            <g id="Group-36" transform="translate(28.000000, 21.000000)">
                                <mask id="mask-2" fill="white">
                                    <use xlink:href="#path-1"></use>
                                </mask>
                                <rect stroke="#096AD0" x="-0.5" y="-0.5" width="316" height="189"></rect>
                                <g id="Group-35" mask="url(#mask-2)" fill="#FFFFFF" stroke="#E6F2FF">
                                    <g transform="translate(25.000000, -3.000000)">
                                        <rect id="Rectangle-17" x="0.5" y="0.5" width="17" height="192"></rect>
                                        <rect id="Rectangle-17-Copy" x="22.5" y="0.5" width="17" height="192"></rect>
                                        <rect id="Rectangle-17-Copy-2" x="46.5" y="0.5" width="17" height="192"></rect>
                                        <rect id="Rectangle-17-Copy-3" x="69.5" y="0.5" width="17" height="192"></rect>
                                        <rect id="Rectangle-17-Copy-4" x="92.5" y="0.5" width="17" height="192"></rect>
                                        <rect id="Rectangle-17-Copy-5" x="115.5" y="0.5" width="17" height="192"></rect>
                                        <rect id="Rectangle-17-Copy-6" x="137.5" y="0.5" width="17" height="192"></rect>
                                        <rect id="Rectangle-17-Copy-7" x="160.5" y="0.5" width="17" height="192"></rect>
                                        <rect id="Rectangle-17-Copy-8" x="183.5" y="0.5" width="17" height="192"></rect>
                                        <rect id="Rectangle-17-Copy-9" x="206.5" y="0.5" width="17" height="192"></rect>
                                        <rect id="Rectangle-17-Copy-10" x="228.5" y="0.5" width="17" height="192"></rect>
                                        <rect id="Rectangle-17-Copy-11" x="251.5" y="0.5" width="17" height="192"></rect>
                                    </g>
                                </g>
                            </g>
                            <path d="M0.512932059,225.5 C0.772938519,230.514282 4.92101214,234.5 10,234.5 L342,234.5 C347.078988,234.5 351.227061,230.514282 351.487068,225.5 L0.512932059,225.5 Z" id="Rectangle-4" stroke="#096AD0" fill="#E6F2FF"></path>
                        </g>
                        <g id="Group-34" transform="translate(338.000000, 32.000000)">
                            <rect id="Rectangle-4-Copy-6" stroke="#096AD0" fill="#E6F2FF" x="0.5" y="0.5" width="155" height="202" rx="10"></rect>
                            <circle id="Oval-3" stroke="#096AD0" fill="#E6F2FF" cx="78" cy="195" r="4.5"></circle>
                            <circle id="Oval-3" stroke="#096AD0" fill="#E6F2FF" cx="78" cy="8" r="1.5"></circle>
                            <g id="Group-37" transform="translate(15.000000, 18.000000)">
                                <mask id="mask-4" fill="white">
                                    <use xlink:href="#path-3"></use>
                                </mask>
                                <rect stroke="#096AD0" x="-0.5" y="-0.5" width="128" height="169"></rect>
                                <g id="Group-35" mask="url(#mask-4)" fill="#FFFFFF" stroke="#E6F2FF">
                                    <g transform="translate(9.000000, -5.000000)">
                                        <rect id="Rectangle-17-Copy" x="0.5" y="0.5" width="14" height="192"></rect>
                                        <rect id="Rectangle-17-Copy-2" x="19.5" y="0.5" width="14" height="192"></rect>
                                        <rect id="Rectangle-17-Copy-3" x="38.5" y="0.5" width="14" height="192"></rect>
                                        <rect id="Rectangle-17-Copy-4" x="57.5" y="0.5" width="14" height="192"></rect>
                                        <rect id="Rectangle-17-Copy-5" x="76.5" y="0.5" width="14" height="192"></rect>
                                        <rect id="Rectangle-17-Copy-6" x="95.5" y="0.5" width="14" height="192"></rect>
                                    </g>
                                </g>
                            </g>
                        </g>
                        <g id="Group-33" transform="translate(466.000000, 102.000000)">
                            <rect id="Rectangle-4-Copy-7" stroke="#096AD0" fill="#E6F2FF" x="0.5" y="0.5" width="83" height="132" rx="10"></rect>
                            <circle id="Oval-3" stroke="#096AD0" fill="#E6F2FF" cx="42" cy="5" r="1.5"></circle>
                            <g id="Group-38" transform="translate(9.000000, 10.000000)">
                                <mask id="mask-6" fill="white">
                                    <use xlink:href="#path-5"></use>
                                </mask>
                                <rect stroke="#096AD0" x="-0.5" y="-0.5" width="68" height="114"></rect>
                                <g id="Group-35" mask="url(#mask-6)" fill="#FFFFFF" stroke="#E6F2FF">
                                    <g transform="translate(5.000000, -37.000000)">
                                        <rect id="Rectangle-17-Copy" x="0.5" y="0.5" width="11" height="177"></rect>
                                        <rect id="Rectangle-17-Copy-2" x="15.5" y="0.5" width="11" height="177"></rect>
                                        <rect id="Rectangle-17-Copy-3" x="30.5" y="0.5" width="11" height="177"></rect>
                                        <rect id="Rectangle-17-Copy-4" x="45.5" y="0.5" width="11" height="177"></rect>
                                    </g>
                                </g>
                            </g>
                        </g>
                    </g>
                </g>
            </g>
        </g>
    </g>
</svg>