<?xml version="1.0" encoding="UTF-8"?>
<svg width="24px" height="24px" viewBox="0 0 24 24" version="1.1" xmlns="http://www.w3.org/2000/svg" xmlns:xlink="http://www.w3.org/1999/xlink">
    <!-- Generator: Sketch 50.2 (55047) - http://www.bohemiancoding.com/sketch -->
    <title>icon/header</title>
    <desc>Created with Sketch.</desc>
    <defs></defs>
    <g id="icon/header" stroke="none" stroke-width="1" fill="none" fill-rule="evenodd">
        <g id="cc" transform="translate(12.000000, 12.000000) rotate(-180.000000) translate(-12.000000, -12.000000) ">
            <g id="Bounding_Boxes">
                <polygon id="Shape" points="0 0 24 0 24 24 0 24"></polygon>
            </g>
            <g id="Outline" transform="translate(1.000000, 3.000000)" fill="#FFFFFF" fill-rule="nonzero">
                <path d="M20,0 L2,0 C0.9,0 0,0.9 0,2 L0,16 C0,17.1 0.9,18 2,18 L20,18 C21.1,18 22,17.1 22,16 L22,2 C22,0.9 21.1,0 20,0 Z M20,16 L2,16 L2,2 L20,2 L20,16 Z" id="Shape"></path>
                <rect id="Rectangle-path" x="4" y="12" width="14" height="3"></rect>
            </g>
        </g>
    </g>
</svg>