<?xml version="1.0" encoding="UTF-8"?>
<svg width="44px" height="44px" viewBox="0 0 44 44" version="1.1" xmlns="http://www.w3.org/2000/svg" xmlns:xlink="http://www.w3.org/1999/xlink">
    <!-- Generator: Sketch 50.2 (55047) - http://www.bohemiancoding.com/sketch -->
    <title>instagram</title>
    <desc>Created with Sketch.</desc>
    <defs></defs>
    <g id="instagram" stroke="none" stroke-width="1" fill="none" fill-rule="evenodd">
        <g id="Instagram">
            <g id="Group-3">
                <rect id="Rectangle-7" x="0" y="0" width="44" height="44"></rect>
                <path d="M22.001,10 C18.742,10 18.333,10.01425 17.053,10.0725 C15.7755,10.131 14.9035,10.33325 14.1405,10.63 C13.35125,10.9365 12.68175,11.3465 12.01475,12.01375 C11.34725,12.68075 10.93725,13.35025 10.62975,14.13925 C10.33225,14.9025 10.12975,15.77475 10.07225,17.05175 C10.015,18.33175 10,18.741 10,22 C10,25.259 10.0145,25.66675 10.0725,26.94675 C10.13125,28.22425 10.3335,29.09625 10.63,29.85925 C10.93675,30.6485 11.34675,31.318 12.014,31.985 C12.68075,32.6525 13.35025,33.0635 14.139,33.37 C14.9025,33.66675 15.77475,33.869 17.052,33.9275 C18.332,33.98575 18.74075,34 21.9995,34 C25.25875,34 25.6665,33.98575 26.9465,33.9275 C28.224,33.869 29.097,33.66675 29.8605,33.37 C30.6495,33.0635 31.318,32.6525 31.98475,31.985 C32.65225,31.318 33.06225,30.6485 33.36975,29.8595 C33.66475,29.09625 33.86725,28.224 33.92725,26.947 C33.98475,25.667 33.99975,25.259 33.99975,22 C33.99975,18.741 33.98475,18.332 33.92725,17.052 C33.86725,15.7745 33.66475,14.9025 33.36975,14.1395 C33.06225,13.35025 32.65225,12.68075 31.98475,12.01375 C31.31725,11.34625 30.64975,10.93625 29.85975,10.63 C29.09475,10.33325 28.22225,10.131 26.94475,10.0725 C25.66475,10.01425 25.25725,10 21.99725,10 L22.001,10 Z M20.9245,12.1625 C21.244,12.162 21.6005,12.1625 22.001,12.1625 C25.205,12.1625 25.58475,12.174 26.85,12.2315 C28.02,12.285 28.655,12.4805 29.078,12.64475 C29.638,12.86225 30.03725,13.12225 30.457,13.54225 C30.877,13.96225 31.137,14.36225 31.355,14.92225 C31.51925,15.34475 31.715,15.97975 31.76825,17.14975 C31.82575,18.41475 31.83825,18.79475 31.83825,21.99725 C31.83825,25.19975 31.82575,25.57975 31.76825,26.84475 C31.71475,28.01475 31.51925,28.64975 31.355,29.07225 C31.1375,29.63225 30.877,30.031 30.457,30.45075 C30.037,30.87075 29.63825,31.13075 29.078,31.34825 C28.6555,31.51325 28.02,31.70825 26.85,31.76175 C25.585,31.81925 25.205,31.83175 22.001,31.83175 C18.79675,31.83175 18.417,31.81925 17.152,31.76175 C15.982,31.70775 15.347,31.51225 14.92375,31.348 C14.36375,31.1305 13.96375,30.8705 13.54375,30.4505 C13.12375,30.0305 12.86375,29.6315 12.64575,29.07125 C12.4815,28.64875 12.28575,28.01375 12.2325,26.84375 C12.175,25.57875 12.1635,25.19875 12.1635,21.99425 C12.1635,18.78975 12.175,18.41175 12.2325,17.14675 C12.286,15.97675 12.4815,15.34175 12.64575,14.91875 C12.86325,14.35875 13.12375,13.95875 13.54375,13.53875 C13.96375,13.11875 14.36375,12.85875 14.92375,12.64075 C15.34675,12.47575 15.982,12.28075 17.152,12.227 C18.259,12.177 18.688,12.162 20.9245,12.1595 L20.9245,12.1625 Z M28.4065,14.155 C27.6115,14.155 26.9665,14.79925 26.9665,15.5945 C26.9665,16.3895 27.6115,17.0345 28.4065,17.0345 C29.2015,17.0345 29.8465,16.3895 29.8465,15.5945 C29.8465,14.7995 29.2015,14.1545 28.4065,14.1545 L28.4065,14.155 Z M22.001,15.8375 C18.59775,15.8375 15.8385,18.59675 15.8385,22 C15.8385,25.40325 18.59775,28.16125 22.001,28.16125 C25.40425,28.16125 28.1625,25.40325 28.1625,22 C28.1625,18.59675 25.404,15.8375 22.00075,15.8375 L22.001,15.8375 Z M22.001,18 C24.21,18 26.001,19.79075 26.001,22 C26.001,24.209 24.21,26 22.001,26 C19.79175,26 18.001,24.209 18.001,22 C18.001,19.79075 19.79175,18 22.001,18 L22.001,18 Z" id="Shape" fill="#096AD0"></path>
            </g>
        </g>
    </g>
</svg>