<?xml version="1.0" encoding="UTF-8"?>
<svg width="204px" height="49px" viewBox="0 0 204 49" version="1.1" xmlns="http://www.w3.org/2000/svg" xmlns:xlink="http://www.w3.org/1999/xlink">
    <!-- Generator: Sketch 50.2 (55047) - http://www.bohemiancoding.com/sketch -->
    <title>Legowerk Copy 3</title>
    <desc>Created with Sketch.</desc>
    <defs></defs>
    <g id="Brand" stroke="none" stroke-width="1" fill="none" fill-rule="evenodd">
        <path d="M7.87590175,32.1162109 L23.4276596,32.1162109 L23.4276596,38 L0.551683,38 L0.551683,2.453125 L7.87590175,2.453125 L7.87590175,32.1162109 Z M37.3981373,38.4882812 C33.52442,38.4882812 30.3709684,37.3001421 27.937688,34.9238281 C25.5044076,32.5475142 24.2877857,29.3818557 24.2877857,25.4267578 L24.2877857,24.7431641 C24.2877857,22.090156 24.8004759,19.7179467 25.8258716,17.6264648 C26.8512674,15.534983 28.3038896,13.923671 30.1837818,12.7924805 C32.063674,11.6612899 34.208021,11.0957031 36.6168873,11.0957031 C40.2301866,11.0957031 43.0743964,12.2350146 45.1496021,14.5136719 C47.2248078,16.7923291 48.2623951,20.0230911 48.2623951,24.2060547 L48.2623951,27.0869141 L31.441106,27.0869141 C31.6689717,28.8121831 32.3566276,30.1956328 33.5040943,31.2373047 C34.651561,32.2789766 36.1041831,32.7998047 37.8620044,32.7998047 C40.580117,32.7998047 42.7041192,31.815114 44.2340748,29.8457031 L47.7008716,33.7275391 C46.6429236,35.2249424 45.2106463,36.3927367 43.4039966,37.230957 C41.597347,38.0691774 39.5954139,38.4882812 37.3981373,38.4882812 Z M36.5924732,16.8085938 C35.1927266,16.8085938 34.0574841,17.2805942 33.1867115,18.2246094 C32.3159389,19.1686245 31.75849,20.5195225 31.5143482,22.2773438 L41.3288013,22.2773438 L41.3288013,21.7158203 C41.2962491,20.1533125 40.8730762,18.9448285 40.0592701,18.090332 C39.2454639,17.2358356 38.0898765,16.8085938 36.5924732,16.8085938 Z M49.3178337,24.5966797 C49.3178337,20.543925 50.2821795,17.2806113 52.2109001,14.8066406 C54.1396207,12.3326699 56.7396923,11.0957031 60.0111931,11.0957031 C62.908343,11.0957031 65.1625522,12.0885317 66.7738884,14.0742188 L67.0668571,11.5839844 L73.4633415,11.5839844 L73.4633415,37.1210938 C73.4633415,39.4323032 72.9384444,41.4423743 71.8886345,43.1513672 C70.8388245,44.8603601 69.3617885,46.1624304 67.4574821,47.0576172 C65.5531757,47.952804 63.3233803,48.4003906 60.768029,48.4003906 C58.8311704,48.4003906 56.9431684,48.0138385 55.1039665,47.2407227 C53.2647646,46.4676068 51.8731769,45.4707092 50.9291618,44.25 L54.0541618,39.953125 C55.8119831,41.9225359 57.9441232,42.9072266 60.4506462,42.9072266 C62.3224003,42.9072266 63.7790915,42.4067433 64.8207634,41.4057617 C65.8624353,40.4047802 66.3832634,38.9847097 66.3832634,37.1455078 L66.3832634,35.7294922 C64.7556511,37.5686941 62.615373,38.4882812 59.9623649,38.4882812 C56.7885209,38.4882812 54.221001,37.2472455 52.2597282,34.7651367 C50.2984554,32.283028 49.3178337,28.9912314 49.3178337,24.8896484 L49.3178337,24.5966797 Z M56.3734978,25.109375 C56.3734978,27.5019651 56.8536362,29.3777601 57.8139274,30.7368164 C58.7742187,32.0958727 60.0925649,32.7753906 61.7690056,32.7753906 C63.9174538,32.7753906 65.4555244,31.9697346 66.3832634,30.3583984 L66.3832634,19.25 C65.4392482,17.6386638 63.9174536,16.8330078 61.8178337,16.8330078 C60.1251169,16.8330078 58.7945638,17.5247327 57.8261345,18.9082031 C56.8577051,20.2916736 56.3734978,22.3587102 56.3734978,25.109375 Z M75.8615536,24.5478516 C75.8615536,21.9273958 76.3661058,19.5918071 77.3752254,17.5410156 C78.3843451,15.4902241 79.8369673,13.9033259 81.7331356,12.7802734 C83.6293039,11.6572209 85.8306166,11.0957031 88.3371395,11.0957031 C91.9016104,11.0957031 94.8109238,12.186187 97.0651668,14.3671875 C99.3194099,16.548188 100.576722,19.5103979 100.83714,23.2539062 L100.885968,25.0605469 C100.885968,29.1133015 99.754794,32.3644083 97.4924129,34.8139648 C95.2300318,37.2635214 92.1945804,38.4882812 88.3859676,38.4882812 C84.5773548,38.4882812 81.5378344,37.2675903 79.2673153,34.8261719 C76.9967961,32.3847534 75.8615536,29.0644741 75.8615536,24.8652344 L75.8615536,24.5478516 Z M82.9172176,25.0605469 C82.9172176,27.5670698 83.3892181,29.4835546 84.3332333,30.8100586 C85.2772484,32.1365626 86.6281463,32.7998047 88.3859676,32.7998047 C90.0949605,32.7998047 91.4295826,32.1447006 92.3898739,30.8344727 C93.3501651,29.5242448 93.8303036,27.4287253 93.8303036,24.5478516 C93.8303036,22.090157 93.3501651,20.1858792 92.3898739,18.8349609 C91.4295826,17.4840427 90.0786847,16.8085938 88.3371395,16.8085938 C86.6118705,16.8085938 85.2772484,17.4799738 84.3332333,18.8227539 C83.3892181,20.1655341 82.9172176,22.2447776 82.9172176,25.0605469 Z M126.282227,28.4052734 L129.749023,11.5839844 L136.560547,11.5839844 L129.822266,38 L123.914063,38 L118.90918,21.3740234 L113.904297,38 L108.020508,38 L101.282227,11.5839844 L108.09375,11.5839844 L111.536133,28.3808594 L116.370117,11.5839844 L121.472656,11.5839844 L126.282227,28.4052734 Z M150.286884,38.4882812 C146.413167,38.4882812 143.259715,37.3001421 140.826435,34.9238281 C138.393154,32.5475142 137.176532,29.3818557 137.176532,25.4267578 L137.176532,24.7431641 C137.176532,22.090156 137.689223,19.7179467 138.714618,17.6264648 C139.740014,15.534983 141.192636,13.923671 143.072528,12.7924805 C144.952421,11.6612899 147.096768,11.0957031 149.505634,11.0957031 C153.118933,11.0957031 155.963143,12.2350146 158.038349,14.5136719 C160.113554,16.7923291 161.151142,20.0230911 161.151142,24.2060547 L161.151142,27.0869141 L144.329853,27.0869141 C144.557718,28.8121831 145.245374,30.1956328 146.392841,31.2373047 C147.540308,32.2789766 148.99293,32.7998047 150.750751,32.7998047 C153.468864,32.7998047 155.592866,31.815114 157.122821,29.8457031 L160.589618,33.7275391 C159.53167,35.2249424 158.099393,36.3927367 156.292743,37.230957 C154.486094,38.0691774 152.484161,38.4882812 150.286884,38.4882812 Z M149.48122,16.8085938 C148.081473,16.8085938 146.946231,17.2805942 146.075458,18.2246094 C145.204686,19.1686245 144.647237,20.5195225 144.403095,22.2773438 L154.217548,22.2773438 L154.217548,21.7158203 C154.184996,20.1533125 153.761823,18.9448285 152.948017,18.090332 C152.134211,17.2358356 150.978623,16.8085938 149.48122,16.8085938 Z M178.075721,18.2001953 C177.11543,18.0699863 176.269084,18.0048828 175.536659,18.0048828 C172.867374,18.0048828 171.117717,18.9081941 170.287635,20.7148438 L170.287635,38 L163.231971,38 L163.231971,11.5839844 L169.89701,11.5839844 L170.092323,14.7333984 C171.508345,12.3082561 173.469589,11.0957031 175.976112,11.0957031 C176.757366,11.0957031 177.48978,11.2014963 178.173377,11.4130859 L178.075721,18.2001953 Z M189.140925,27.4042969 L186.601863,29.9433594 L186.601863,38 L179.546199,38 L179.546199,0.5 L186.601863,0.5 L186.601863,21.2763672 L187.96905,19.5185547 L194.731746,11.5839844 L203.203425,11.5839844 L193.657527,22.5947266 L204.033503,38 L195.928035,38 L189.140925,27.4042969 Z" id="Legowerk-Copy-3" fill="#096AD0"></path>
    </g>
</svg>