<?xml version="1.0" encoding="UTF-8"?>
<svg width="1440px" height="1440px" viewBox="0 0 1440 1440" version="1.1" xmlns="http://www.w3.org/2000/svg" xmlns:xlink="http://www.w3.org/1999/xlink">
    <!-- Generator: Sketch 50.2 (55047) - http://www.bohemiancoding.com/sketch -->
    <title>Map</title>
    <desc>Created with Sketch.</desc>
    <defs></defs>
    <g id="Components-design" stroke="none" stroke-width="1" fill="none" fill-rule="evenodd">
        <g id="Map">
            <rect id="Rectangle" fill="#E6F2FF" x="0" y="0" width="1440" height="1436"></rect>
            <path d="M1144.85005,1397.03098 L1241.23138,1415.88661 L1237.51341,1437.88485 L1254.95929,1437.88485 L1297.00099,1198.18976 L1306.72493,1437.88485 L1323.88481,1437.88485 L1320.73883,1357.03418 L1364.78252,1355.89142 L1369.35849,1437.88485 L1377.93843,1437.88485 L1373.36246,1355.60572 L1439.428,1353.89158 L1439.428,1336.75009 L1385.08838,1338.17855 L1381.08441,1309.32372 L1439.714,1311.03786 L1439.714,1302.46712 L1379.94042,1300.75297 L1371.93247,1244.47177 L1407.39623,1205.61774 L1440,1226.18752 L1440,1215.90263 L1413.40218,1199.04683 L1440,1169.62062 L1440,1156.76451 L1370.21648,1233.61549 C1366.49851,1212.18864 1357.34657,1158.19296 1353.3426,1135.33765 L1440,1150.1936 L1440,1132.76643 L1396.8143,1125.33845 L1407.11023,1061.05788 C1418.55015,1063.34342 1429.70407,1065.62895 1440,1067.91448 L1440,1050.20161 L1415.40417,1045.05917 L1440,1013.63311 L1440,985.635353 L1396.5283,1041.05949 L1340.18669,1029.34614 L1364.21053,861.073899 L1440,874.787087 L1440,845.646563 L1431.99206,844.218106 L1440,789.936739 L1440,671.374805 L1431.13406,731.370001 L1350.48262,711.942985 C1354.48659,690.801821 1365.35452,634.520614 1369.35849,613.093758 L1440,626.235563 L1440,608.808387 L1394.52632,600.237645 L1430.27607,405.396106 L1440,407.110254 L1440,377.969731 L1416.54816,373.68436 L1422.84012,329.687883 L1440,325.973895 L1440,317.117461 L1423.98411,320.545758 L1437.99801,223.41068 L1440,223.696371 L1440,6.85659376 L1434.85204,42.853711 L1380.79841,46.2820079 L1378.22443,6.49587051e-13 L1369.64449,6.49587051e-13 L1372.21847,46.8533907 L1326.45879,49.7103047 L1324.4568,6.49587051e-13 L1307.29692,6.49587051e-13 L1309.29891,50.8530704 L1245.80735,54.8527501 L1255.53128,0.285691407 L1238.0854,0.285691407 L1228.64747,53.424293 L1132.83813,27.9977578 L1137.9861,0.285691407 L1108.8143,0.285691407 L1099.09037,53.1386016 L1033.31082,64.2805665 L1025.30288,0.285691407 L1007.857,0.285691407 L1016.15094,67.1374805 L951.80139,77.993754 L924.059583,21.7125469 C940.36147,16.855793 968.103277,8.8564336 997.847071,0.285691407 L936.0715,0.285691407 L916.337637,5.99951954 L913.477656,0.285691407 L881.445879,0.285691407 L888.309831,13.9988789 C878.299901,16.855793 864.857994,20.5697813 851.416087,24.2837696 C849.414101,18.5699414 846.268123,9.99919923 843.122145,0.285691407 L833.970209,0.285691407 L843.122145,26.5693008 C827.106256,31.1403633 812.806356,35.140043 807.086395,36.5685 L765.616683,23.7123867 L768.190665,0.285691407 L759.610725,0.285691407 L757.322741,20.8554727 L704.12711,4.2853711 L705.5571,0 L687.253227,0 L680.389275,18.8556328 L634.915591,0 L618.899702,0 L604.885799,36.2828086 L539.678252,13.7131875 C542.252234,9.14212501 544.826216,4.5710625 547.400199,0 L527.380338,0 C517.656405,16.5701016 507.074479,32.5688203 495.920556,46.8533907 L488.19861,0 L470.752731,0 L473.040715,13.1418047 L429.569017,38.8540313 L406.689176,0 L396.679245,0 L450.446872,91.1355587 C449.30288,91.9926329 447.87289,92.8497071 446.728898,93.7067813 C429.569017,104.848746 407.261172,113.133797 381.521351,119.419008 L390.101291,6.49587051e-13 L381.521351,6.49587051e-13 L372.655412,121.418848 C363.217478,123.418688 353.493545,125.132836 343.483615,126.846984 L334.04568,0.285691407 L316.599801,0.285691407 L319.74578,43.1394024 L215.9285,30.5689805 L215.070506,0.285691407 L197.910626,0.285691407 L198.482622,28.5691407 L174.458788,25.7122266 L148.718967,0.571382813 L136.421053,0.571382813 L160.444886,23.9980781 L72.9294935,13.4274961 L74.6454816,0.571382813 L66.0655412,0.571382813 L64.6355511,12.5704219 L30.0297915,8.28505079 L31.1737835,0.571382813 L2.0019861,0.571382813 L0.857994042,7.71366798 L0.857994042,224.553446 L75.5034757,238.266633 L88.3733863,299.975977 L0.857994042,318.260227 L0.857994042,327.11666 L27.1698113,321.688524 L35.4637537,385.397707 L0.857994042,378.826805 L0.857994042,407.967329 L38.8957299,415.109614 L10.0099305,611.37961 L0.857994042,609.665462 L0.857994042,627.092637 L7.43594836,628.235403 L0.857994042,672.23188 L0.857994042,790.793813 L24.3098312,631.378008 L105.819265,646.519653 L84.3694141,861.359591 L1.14399206,846.503638 L1.14399206,875.644161 L77.5054618,889.357349 L1.14399206,986.778118 L1.14399206,1014.77588 L76.9334657,918.212181 L56.0556107,1062.77203 L0.857994042,1051.34438 L0.857994042,1069.05724 C23.1658391,1073.62831 41.75571,1077.62799 53.4816286,1079.91352 L44.6156902,1141.33717 L0.857994042,1133.90919 L0.857994042,1151.33637 L6.00595829,1152.19344 L0.857994042,1157.90727 L0.857994042,1170.76338 L16.0158888,1153.90759 L42.041708,1158.47865 L30.8877855,1236.47241 L0.571996028,1217.33108 L0.571996028,1227.61597 L29.4577954,1245.90022 L21.163853,1304.46696 L0.857994042,1303.89558 L0.857994042,1312.46632 L20.019861,1313.0377 L16.5878848,1337.60717 L0.857994042,1338.17855 L0.857994042,1355.32003 L14.0139027,1355.03434 L2.0019861,1439.599 L31.1737835,1439.599 L43.1857001,1356.4628 L76.0754717,1360.74817 L66.3515392,1439.31331 L74.9314796,1439.31331 L81.795432,1385.31763 L136.707051,1439.31331 L149.004965,1439.31331 L82.939424,1374.74705 L84.6554121,1361.89093 L196.480636,1376.74689 L197.910626,1439.31331 L215.070506,1439.31331 L213.640516,1379.03242 L313.167825,1392.17422 L316.599801,1439.31331 L334.04568,1439.31331 L332.329692,1415.02954 L383.809335,1406.1731 L381.521351,1439.31331 L390.101291,1439.31331 L390.959285,1429.31411 L396.965243,1439.31331 L406.975174,1439.31331 L392.103277,1414.17246 L392.675273,1404.74465 L463.316783,1392.74561 L471.038729,1439.31331 L488.484608,1439.31331 L464.174777,1293.325 L587.153923,1302.75281 C573.712016,1343.89238 553.978153,1394.45976 527.952334,1439.31331 L547.972195,1439.31331 C558.554121,1420.17198 567.992056,1400.45927 576.571996,1381.03226 L633.771599,1402.74481 L619.471698,1439.31331 L635.487587,1439.31331 L629.767627,1437.02777 L658.367428,1363.60508 L710.991063,1375.88981 L687.825223,1439.31331 L706.129096,1439.31331 L749.886792,1319.03722 L773.624628,1315.89462 L759.896723,1439.31331 L768.476663,1439.31331 L773.910626,1389.88869 L813.092354,1379.31811 L834.256207,1439.31331 L843.408143,1439.31331 C835.400199,1416.45799 825.390268,1387.88885 821.386296,1377.03258 L847.698113,1369.89029 L881.731877,1439.31331 L913.763654,1439.31331 L899.177756,1409.31571 L1013.86296,1373.88997 L1007.571,1418.74352 L936.643496,1439.31331 L998.419067,1439.31331 C1001.56504,1438.45623 1004.71102,1437.59916 1008.143,1436.45639 L1008.429,1439.31331 L1025.87488,1439.31331 L1025.01688,1431.59964 C1060.19464,1421.31475 1095.0864,1411.31555 1115.96425,1405.31603 L1109.67229,1439.31331 L1138.84409,1439.31331 L1144.85005,1397.03098 L1144.85005,1397.03098 Z M1129.40616,1322.46552 L1039.03078,1310.18079 L1048.18272,1246.47161 L1140.56008,1262.18463 L1129.40616,1322.46552 L1129.40616,1322.46552 Z M936.357498,1209.90311 L942.649454,1175.04876 L1038.45879,1193.04731 L1033.59682,1226.47321 L936.357498,1209.90311 L936.357498,1209.90311 Z M1031.30884,1243.61469 L1027.30487,1270.75538 L963.813307,1261.61325 L970.105263,1233.3298 L1031.30884,1243.61469 L1031.30884,1243.61469 Z M710.705065,1209.33172 L668.09136,1208.18896 L674.669315,1171.62046 L710.705065,1189.04763 C710.133069,1192.47593 709.847071,1195.61854 709.847071,1199.04683 C709.847071,1202.47513 710.133069,1205.90343 710.705065,1209.33172 L710.705065,1209.33172 Z M723.860973,1238.47225 C726.148957,1241.32916 728.722939,1243.90038 731.296922,1246.18592 L698.979146,1289.03963 L668.377358,1237.04379 L723.860973,1238.47225 L723.860973,1238.47225 Z M721.858987,1162.19264 L639.777557,1122.76723 L729.008937,1090.19841 L742.450844,1143.90839 C734.156902,1148.47945 727.292949,1154.76467 721.858987,1162.19264 L721.858987,1162.19264 Z M153.008937,1071.05708 L163.590864,1047.3447 L294.577954,1016.20433 L275.702085,1081.62767 L153.008937,1071.05708 L153.008937,1071.05708 Z M271.698113,1098.48346 L262.832175,1143.33701 L230.800397,1135.33765 L233.088381,1095.34085 L271.698113,1098.48346 L271.698113,1098.48346 Z M88.9453823,146.845383 C118.11718,149.130914 151.864945,150.845063 187.328699,151.416445 L187.042701,159.987188 L84.6554121,191.698934 L88.9453823,146.845383 L88.9453823,146.845383 Z M53.7676266,126.275602 L63.4915591,71.708543 L157.584906,83.4218907 C156.726912,93.4210899 154.152929,119.419008 152.722939,132.846504 C114.971202,131.418047 80.6514399,128.846824 53.7676266,126.275602 L53.7676266,126.275602 Z M276.560079,241.409239 L287.714002,340.829848 C261.974181,343.686762 185.040715,352.543196 157.584906,355.971493 L169.596822,251.694129 L276.560079,241.409239 L276.560079,241.409239 Z M186.756703,169.129313 L184.182721,233.124188 L162.446872,235.124028 L142.427011,231.410039 L136.707051,184.556649 L186.756703,169.129313 L186.756703,169.129313 Z M288.857994,349.40059 L292.861966,385.397707 L152.436941,402.539192 L156.726912,364.827926 L288.857994,349.40059 L288.857994,349.40059 Z M880.873883,342.543996 L864.857994,398.825204 L799.078451,424.251739 C789.354518,397.396746 781.91857,371.113137 777.6286,355.40011 L880.873883,342.543996 L880.873883,342.543996 Z M790.784508,287.976938 L841.120159,281.977418 L846.840119,317.688844 L795.074479,323.974055 L790.784508,287.976938 L790.784508,287.976938 Z M1041.03277,654.233321 L980.115194,639.948751 L1010.43098,545.099204 L1062.76862,554.812711 C1059.05065,572.239887 1049.61271,614.807907 1041.03277,654.233321 L1041.03277,654.233321 Z M1071.34856,556.241169 L1135.69811,568.240208 L1051.6147,646.519653 L1071.34856,556.241169 L1071.34856,556.241169 Z M497.064548,575.953876 L596.591857,566.526059 L607.459782,609.665462 L488.19861,613.093758 L497.064548,575.953876 L497.064548,575.953876 Z M497.064548,501.102727 L588.011917,532.814473 L592.301887,549.670266 L504.500497,557.955317 L497.064548,501.102727 L497.064548,501.102727 Z M950.085402,639.948751 L933.783515,690.801821 L862.856008,662.804063 L881.731877,615.37929 L950.085402,639.948751 L950.085402,639.948751 Z M884.877855,607.094239 L901.179742,565.954676 C925.489573,579.953555 949.227408,592.238286 962.955313,599.094879 L952.659384,631.6637 L884.877855,607.094239 L884.877855,607.094239 Z M838.546177,677.088633 L805.084409,648.805184 L845.124131,591.952594 L866.287984,607.094239 L838.546177,677.088633 L838.546177,677.088633 Z M835.114201,685.373684 L833.398213,689.373364 L749.600794,696.515649 L707.559086,640.520133 L749.314796,612.522376 L835.114201,685.373684 L835.114201,685.373684 Z M741.020854,699.943946 L670.093347,740.797817 L653.79146,676.802942 L700.123138,645.662579 C708.131082,655.947469 732.726912,688.51629 741.020854,699.943946 L741.020854,699.943946 Z M702.125124,633.949231 C698.40715,629.378169 691.829196,620.807426 686.967229,614.807907 L721.858987,589.667063 L742.450844,607.094239 L702.125124,633.949231 L702.125124,633.949231 Z M694.975174,638.805985 L651.789474,667.660817 L645.783515,644.234122 L679.817279,619.664661 L694.975174,638.805985 L694.975174,638.805985 Z M648.357498,771.366798 L572.282026,748.797177 L629.481629,696.515649 L648.357498,771.366798 L648.357498,771.366798 Z M562.558093,745.940262 L464.174777,716.799739 L486.196624,621.950192 L609.461768,618.236204 L626.907646,686.802141 L562.558093,745.940262 L562.558093,745.940262 Z M455.880834,562.526379 L442.438928,448.535508 L481.048659,442.82168 L496.206554,558.812391 L455.880834,562.526379 L455.880834,562.526379 Z M455.02284,579.953555 L488.19861,576.81095 L472.182721,645.091196 L439.292949,634.520614 L455.02284,579.953555 L455.02284,579.953555 Z M470.180735,653.661938 L455.880834,714.228516 L419.559086,703.372243 L436.718967,642.805665 L470.180735,653.661938 L470.180735,653.661938 Z M460.7428,733.655532 L413.839126,860.788208 L378.947368,846.217946 L414.983118,719.942344 L460.7428,733.655532 L460.7428,733.655532 Z M469.036743,736.226755 L513.938431,749.654251 L494.490566,807.363915 C481.620655,803.364235 457.88282,795.936259 448.158888,793.079345 L469.036743,736.226755 L469.036743,736.226755 Z M508.218471,820.791411 C517.084409,823.934016 532.242304,829.076462 550.260179,835.361673 L521.660377,900.213622 L483.050645,895.642559 L508.218471,820.791411 L508.218471,820.791411 Z M511.078451,812.50636 L530.526316,754.225313 L597.163853,773.93802 L581.147964,836.79013 L511.078451,812.50636 L511.078451,812.50636 Z M605.457795,776.509243 L653.219464,790.793813 L672.953327,869.073259 L589.155909,839.647044 L605.457795,776.509243 L605.457795,776.509243 Z M672.667329,749.368559 L709.561072,728.227395 L727.578947,792.507962 L680.389275,780.508923 L672.667329,749.368559 L672.667329,749.368559 Z M716.997021,723.656333 L748.7428,705.372083 L829.680238,698.515489 L786.20854,807.363915 L737.016882,794.793493 L716.997021,723.656333 L716.997021,723.656333 Z M824.246276,759.082067 L863.142006,771.93818 L849.128103,823.362634 L803.368421,811.649286 L824.246276,759.082067 L824.246276,759.082067 Z M827.392254,751.082708 L859.424032,670.517731 L930.923535,698.80118 L905.75571,777.080626 L827.392254,751.082708 L827.392254,751.082708 Z M934.069513,783.365837 L1006.42701,796.22195 L945.795432,897.356708 L908.329692,863.359431 L934.069513,783.365837 L934.069513,783.365837 Z M942.935452,755.939462 L977.541212,648.233801 L1039.31678,662.804063 C1033.02483,691.087512 1027.59086,716.799739 1024.73088,729.084469 L970.963257,761.081907 L942.935452,755.939462 L942.935452,755.939462 Z M1046.75273,669.089274 L1072.49255,700.515329 L1035.02681,722.799259 L1046.75273,669.089274 L1046.75273,669.089274 Z M968.389275,582.524778 C939.503476,567.954516 874.581927,533.385856 844.266137,507.673629 C842.836147,506.530864 841.406157,505.102407 839.976167,503.67395 L909.473684,444.250137 L987.551142,523.100965 L968.389275,582.524778 L968.389275,582.524778 Z M863.428004,460.820239 L840.834161,417.395145 L867.717974,407.110254 L897.17577,432.251098 L863.428004,460.820239 L863.428004,460.820239 Z M856.85005,466.534067 L829.680238,489.675071 C819.670308,474.247735 810.518371,453.392262 802.224429,431.965407 L832.540218,420.252059 L856.85005,466.534067 L856.85005,466.534067 Z M833.112214,520.815434 C846.554121,532.24309 866.001986,545.099204 886.307845,557.098243 L869.71996,598.809188 L789.640516,540.813833 L826.53426,514.244532 C828.822244,516.530063 830.82423,518.815594 833.112214,520.815434 L833.112214,520.815434 Z M838.260179,586.810149 L798.506455,643.091356 L729.294935,584.238926 L782.204568,546.241969 L838.260179,586.810149 L838.260179,586.810149 Z M732.726912,560.52654 L717.283019,509.387778 L755.606753,491.103528 L771.622642,532.814473 L732.726912,560.52654 L732.726912,560.52654 Z M714.709037,500.817036 L702.411122,459.963165 L729.580933,423.108973 L752.460775,482.818477 L714.709037,500.817036 L714.709037,500.817036 Z M717.855015,571.097122 L641.207547,626.235563 L613.46574,516.815754 L696.405164,500.817036 L717.855015,571.097122 L717.855015,571.097122 Z M611.749752,508.245012 L579.145978,379.398188 L657.223436,369.970371 L694.11718,492.531985 L611.749752,508.245012 L611.749752,508.245012 Z M585.723932,522.815274 L495.920556,491.389219 L489.342602,441.678914 L562.558093,430.822641 L585.723932,522.815274 L585.723932,522.815274 Z M441.294935,439.964766 L436.146971,396.825364 L550.260179,382.826485 L560.270109,422.251899 L441.294935,439.964766 L441.294935,439.964766 Z M430.999007,368.541914 L422.419067,331.402032 L544.25422,337.11586 L548.830189,354.257344 L430.999007,368.541914 L430.999007,368.541914 Z M437.290963,552.812872 L355.209533,458.820399 L351.777557,407.110254 L418.98709,398.825204 L437.290963,552.812872 L437.290963,552.812872 Z M348.631579,378.541114 L342.625621,341.401231 C365.79146,337.972934 391.817279,333.687563 404.973188,331.973414 L414.125124,370.541754 L348.631579,378.541114 L348.631579,378.541114 Z M343.197617,408.25302 L346.343595,456.534868 L310.021847,459.963165 L311.165839,411.967008 L343.197617,408.25302 L343.197617,408.25302 Z M349.203575,465.10561 L435.860973,564.526219 L306.875869,576.81095 L309.735849,469.10529 C321.461768,467.676832 342.339623,465.676993 349.203575,465.10561 L349.203575,465.10561 Z M436.432969,581.667704 L365.219464,831.647684 L330.327706,812.220669 L404.401192,584.810309 L436.432969,581.667704 L436.432969,581.667704 Z M374.3714,863.073739 L463.316783,900.213622 L453.306852,929.925528 L366.363456,890.214423 L374.3714,863.073739 L374.3714,863.073739 Z M421.847071,864.216505 L445.01291,800.793012 L491.630586,815.363274 L468.750745,883.929212 L421.847071,864.216505 L421.847071,864.216505 Z M480.190665,904.213302 L519.372393,908.784364 L510.506455,967.065411 L468.750745,938.49627 L480.190665,904.213302 L480.190665,904.213302 Z M528.52433,906.213142 L558.268123,838.218587 C581.71996,846.503638 608.603774,855.931454 632.055611,863.930813 L606.029791,997.063009 L572.854022,1009.63343 L518.228401,972.207856 L528.52433,906.213142 L528.52433,906.213142 Z M660.083416,995.063169 L674.669315,1047.3447 L613.179742,1073.05692 L585.151936,1023.63231 L660.083416,995.063169 L660.083416,995.063169 Z M615.753724,993.634712 L640.635551,867.073419 C654.649454,871.930173 666.947368,876.215544 675.813307,879.358149 L696.97716,962.78004 L615.753724,993.634712 L615.753724,993.634712 Z M685.251241,799.364555 L781.346574,823.934016 L756.464747,856.788528 L703.555114,871.930173 L685.251241,799.364555 L685.251241,799.364555 Z M790.49851,826.219548 L881.159881,849.360552 L779.916584,900.785005 L763.900695,861.073899 L790.49851,826.219548 L790.49851,826.219548 Z M857.422046,825.648165 L871.14995,774.795095 L903.181728,785.365677 L887.737835,833.361833 L857.422046,825.648165 L857.422046,825.648165 Z M905.469712,872.787247 L986.693148,946.209938 L980.68719,957.637595 C939.503476,949.638235 903.753724,942.781642 884.305859,939.067653 L905.469712,872.787247 L905.469712,872.787247 Z M952.373386,903.641919 L1015.57895,798.22179 L1059.62264,806.221149 L990.69712,938.49627 L952.373386,903.641919 L952.373386,903.641919 Z M1068.48858,807.649606 L1082.50248,810.220829 L1055.33267,972.207856 C1033.31082,967.922485 1011.00298,963.637114 989.553128,959.637435 L1068.48858,807.649606 L1068.48858,807.649606 Z M1073.35055,916.783724 L1144.27805,933.639517 L1135.69811,987.635192 C1114.24826,983.635513 1089.36643,978.778759 1063.62661,973.922005 L1073.35055,916.783724 L1073.35055,916.783724 Z M1084.21847,995.34886 L1132.55214,1004.49099 L1111.10228,1093.6267 L1071.34856,1085.62734 L1084.21847,995.34886 L1084.21847,995.34886 Z M1140.84608,1006.20513 L1186.03376,1014.77588 L1169.44588,1105.34005 L1119.68222,1095.34085 L1140.84608,1006.20513 L1140.84608,1006.20513 Z M1144.27805,989.349341 L1152.85799,935.067974 L1200.04767,938.781962 L1189.17974,997.920083 C1178.59782,995.920243 1163.15392,992.777638 1144.27805,989.349341 L1144.27805,989.349341 Z M1154.28798,926.497231 L1160.00794,890.214423 L1207.76961,896.785325 L1201.47766,930.21122 L1154.28798,926.497231 L1154.28798,926.497231 Z M1161.43793,881.643681 L1170.30387,825.933856 L1219.20953,834.79029 L1209.4856,888.214583 L1161.43793,881.643681 L1161.43793,881.643681 Z M1145.70804,925.068774 L1074.78054,908.212981 L1091.08242,811.649286 L1161.72393,824.219708 L1145.70804,925.068774 L1145.70804,925.068774 Z M996.989076,765.652969 L1083.64647,714.228516 L1147.71003,792.793653 L996.989076,765.652969 L996.989076,765.652969 Z M1091.08242,709.657454 L1203.76564,642.805665 L1228.93347,673.374645 L1115.96425,739.940743 L1091.08242,709.657454 L1091.08242,709.657454 Z M1079.9285,695.944266 L1050.18471,659.661458 L1145.13605,571.097122 L1192.61172,629.092477 L1079.9285,695.944266 L1079.9285,695.944266 Z M1148.85402,507.959321 L1081.35849,499.102887 C1083.36048,486.246774 1085.36246,474.247735 1086.50645,468.248215 L1153.14399,481.675711 L1148.85402,507.959321 L1148.85402,507.959321 Z M1147.42403,516.244372 L1141.70407,551.670106 L1074.49454,539.099684 C1075.63853,531.386016 1077.64052,519.386977 1079.6425,507.102247 L1147.42403,516.244372 L1147.42403,516.244372 Z M1066.2006,537.671227 L1016.15094,528.243411 L1038.45879,458.249016 L1077.92651,466.248375 L1066.2006,537.671227 L1066.2006,537.671227 Z M993.5571,504.245333 L922.915591,432.822481 L978.399206,385.397707 L1024.44489,408.824403 L993.5571,504.245333 L993.5571,504.245333 Z M903.753724,426.251579 L873.437934,400.539352 L890.311817,341.401231 L993.5571,328.830809 C994.98709,334.258946 996.989076,339.401391 999.849057,343.972453 L903.753724,426.251579 L903.753724,426.251579 Z M864,315.689004 L850.272095,227.981742 L908.901688,218.839617 L922.629593,308.546719 L864,315.689004 L864,315.689004 Z M816.238332,500.531344 L779.05859,527.386336 L735.87289,415.109614 L765.616683,374.827125 C775.340616,409.395786 793.644489,466.248375 816.238332,500.531344 L816.238332,500.531344 Z M699.265144,449.678274 L674.383317,367.68484 L760.468719,357.114258 C761.040715,359.114098 761.612711,361.399629 762.184707,363.970852 L699.265144,449.678274 L699.265144,449.678274 Z M685.537239,337.401551 L657.795432,340.829848 L610.60576,265.121625 L685.823237,253.408278 L685.537239,337.401551 L685.537239,337.401551 Z M648.357498,341.972614 L576.285998,350.829047 L604.885799,272.26391 L648.357498,341.972614 L648.357498,341.972614 Z M562.558093,337.972934 L523.948361,188.84202 L606.315789,217.982543 L562.558093,337.972934 L562.558093,337.972934 Z M541.966236,327.973735 L475.042701,324.831129 L457.024826,223.982063 L513.652433,218.553926 L541.966236,327.973735 L541.966236,327.973735 Z M466.176763,324.545438 L420.41708,322.545598 L398.681231,229.981582 L448.444886,225.124828 L466.176763,324.545438 L466.176763,324.545438 Z M402.971202,323.402672 L341.481629,332.830489 L335.47567,295.690606 L394.677259,287.691246 L402.971202,323.402672 L402.971202,323.402672 Z M340.051639,379.683879 L310.021847,383.397868 L306.017875,347.40075 C312.881827,346.257985 322.891758,344.829528 334.331678,343.115379 L340.051639,379.683879 L340.051639,379.683879 Z M306.589871,593.952434 L395.249255,585.667383 L350.061569,723.942024 L303.729891,704.8007 L306.589871,593.952434 L306.589871,593.952434 Z M347.487587,732.227075 L322.319762,809.363755 L301.155909,805.935458 L303.443893,714.228516 L347.487587,732.227075 L347.487587,732.227075 Z M319.459782,817.648805 L299.153923,879.929532 L300.869911,814.5062 C306.875869,815.363274 314.597815,816.791731 319.459782,817.648805 L319.459782,817.648805 Z M327.753724,820.50572 L362.93148,840.218427 L325.46574,971.636474 L297.151936,957.923286 L298.295929,910.212821 L327.753724,820.50572 L327.753724,820.50572 Z M364.36147,898.499474 L450.73287,937.924888 L423.849057,1018.48986 L341.481629,978.778759 L364.36147,898.499474 L364.36147,898.499474 Z M465.890765,947.067013 L563.130089,1013.63311 L479.332671,1045.63055 L439.292949,1026.20353 L465.890765,947.067013 L465.890765,947.067013 Z M476.758689,1076.19953 L553.692155,1113.33941 L533.672294,1150.47929 L465.318769,1135.90903 L476.758689,1076.19953 L476.758689,1076.19953 Z M500.782522,1055.91544 L576.857994,1026.77492 L605.171797,1076.19953 L571.996028,1089.91272 L500.782522,1055.91544 L500.782522,1055.91544 Z M677.243297,1055.91544 L688.397219,1096.19793 L628.909633,1117.91047 L582.291956,1095.62654 L677.243297,1055.91544 L677.243297,1055.91544 Z M668.377358,991.920563 L700.981132,979.350142 L726.720953,1081.62767 L696.405164,1092.76963 L668.377358,991.920563 L668.377358,991.920563 Z M705.5571,880.215224 L756.464747,865.644962 L805.370407,986.206735 L737.588878,1007.3479 L705.5571,880.215224 L705.5571,880.215224 Z M783.34856,908.784364 L879.443893,859.931134 L828.250248,1019.34694 L783.34856,908.784364 L783.34856,908.784364 Z M878.871897,955.923446 L960.953327,971.636474 L945.223436,1060.20081 L851.416087,1041.34518 L878.871897,955.923446 L878.871897,955.923446 Z M959.237339,1080.77059 L1051.9007,1099.62622 L1044.75074,1149.90791 L955.233366,1103.6259 L959.237339,1080.77059 L959.237339,1080.77059 Z M962.097319,1063.62911 L977.82721,974.779079 L1067.05859,991.920563 L1054.18868,1082.19905 L962.097319,1063.62911 L962.097319,1063.62911 Z M1068.77458,1102.76883 L1166.2999,1122.48154 L1156.57597,1174.76306 L1061.05263,1155.90743 L1068.77458,1102.76883 L1068.77458,1102.76883 Z M1177.45382,1221.04507 L1219.20953,1226.47321 L1206.33962,1292.75361 L1165.15591,1287.61117 L1177.45382,1221.04507 L1177.45382,1221.04507 Z M1178.88381,1212.47433 L1198.04568,1108.19697 L1240.65938,1115.62494 L1220.63952,1217.90247 L1178.88381,1212.47433 L1178.88381,1212.47433 Z M1201.19166,1091.34117 L1214.34757,1020.4897 C1227.78947,1023.34662 1250.09732,1027.91768 1276.40914,1033.34582 L1260.96524,1101.62606 L1201.19166,1091.34117 L1201.19166,1091.34117 Z M1217.20755,1003.63391 L1233.22344,916.212341 L1336.18272,930.496911 L1322.45482,1025.63215 L1217.20755,1003.63391 L1217.20755,1003.63391 Z M1230.07746,807.363915 L1160.57994,794.793493 L1121.11221,746.797337 L1234.08143,680.231239 L1250.95531,700.80102 L1230.07746,807.363915 L1230.07746,807.363915 Z M1266.9712,708.80038 L1338.47071,726.227555 C1334.46673,746.511645 1324.1708,798.22179 1319.30884,823.362634 L1247.23734,810.50652 L1266.9712,708.80038 L1266.9712,708.80038 Z M1255.24528,678.517091 L1170.30387,574.81111 L1271.54717,593.952434 L1255.24528,678.517091 L1255.24528,678.517091 Z M1158.57795,555.098403 L1175.45184,449.106891 L1296.429,466.534067 L1274.97915,577.096641 L1158.57795,555.098403 L1158.57795,555.098403 Z M1223.4995,438.536309 L1233.50943,367.68484 L1313.01688,382.540793 L1299.86097,449.678274 L1223.4995,438.536309 L1223.4995,438.536309 Z M1229.50546,337.687243 L1196.90169,331.687723 L1207.19762,272.835293 L1240.08739,276.26359 L1229.50546,337.687243 L1229.50546,337.687243 Z M1224.92949,365.970692 C1222.06951,385.683399 1217.20755,421.109133 1214.91956,437.107852 L1178.31182,431.679715 L1190.03774,359.114098 L1224.92949,365.970692 L1224.92949,365.970692 Z M1179.74181,328.259426 L1117.39424,316.546078 L1117.39424,312.83209 C1117.39424,303.975657 1115.39225,295.404914 1112.24628,287.691246 L1171.16187,252.265512 L1187.17776,286.834172 L1179.74181,328.259426 L1179.74181,328.259426 Z M1173.16385,356.257184 L1154.57398,472.819278 L1041.31877,449.963965 L1065.6286,374.541434 C1084.21847,371.398828 1100.23436,359.971172 1109.3863,343.972453 L1173.16385,356.257184 L1173.16385,356.257184 Z M1054.47468,346.829368 C1035.59881,346.829368 1020.15492,331.402032 1020.15492,312.546399 C1020.15492,293.690766 1035.59881,278.26343 1054.47468,278.26343 C1073.35055,278.26343 1088.79444,293.690766 1088.79444,312.546399 C1088.79444,331.402032 1073.35055,346.829368 1054.47468,346.829368 L1054.47468,346.829368 Z M1035.59881,372.827286 L1026.73287,400.539352 L985.263158,379.398188 L1010.43098,357.971332 C1017.29494,364.542235 1025.87488,369.68468 1035.59881,372.827286 L1035.59881,372.827286 Z M992.699106,299.975977 L931.209533,307.403953 L917.195631,217.41116 L982.689176,207.12627 L1011.57498,265.978699 C1002.42304,275.120824 995.559086,286.834172 992.699106,299.975977 L992.699106,299.975977 Z M835.972195,212.554406 L831.682224,178.271438 L956.949355,154.559051 L974.967229,191.127551 L835.972195,212.554406 L835.972195,212.554406 Z M833.112214,230.552965 L839.690169,273.406676 L789.640516,279.406196 L784.77855,237.980942 L833.112214,230.552965 L833.112214,230.552965 Z M786.494538,325.116821 L694.403178,336.258785 L694.403178,251.979821 L776.484608,239.123707 L786.494538,325.116821 L786.494538,325.116821 Z M697.263158,234.266953 L726.720953,128.561133 L763.042701,142.27432 L742.164846,227.124668 L697.263158,234.266953 L697.263158,234.266953 Z M688.111221,235.69541 L614.323734,247.123067 L666.089374,105.420129 L718.999007,125.418527 L688.111221,235.69541 L688.111221,235.69541 Z M609.17577,209.983184 L566.848064,195.127231 L581.71996,141.702938 L627.193644,160.55857 L609.17577,209.983184 L609.17577,209.983184 Z M558.840119,192.270317 L521.374379,179.128512 L503.070506,109.134117 L573.998014,138.560332 L558.840119,192.270317 L558.840119,192.270317 Z M509.362463,201.983824 L391.245283,213.125789 L385.811321,174.843141 L496.492552,152.844902 L509.362463,201.983824 L509.362463,201.983824 Z M392.675273,279.406196 L334.04568,287.405555 L326.037736,236.838176 L381.521351,231.410039 L392.675273,279.406196 L392.675273,279.406196 Z M326.89573,297.119063 L332.901688,334.258946 L305.159881,338.544317 L300.869911,300.54736 L326.89573,297.119063 L326.89573,297.119063 Z M299.725919,291.976617 L294.005958,239.69509 L317.457795,237.409559 L325.46574,288.262629 L299.725919,291.976617 L299.725919,291.976617 Z M294.005958,414.252539 L292.861966,461.677313 C279.134062,462.820079 251.392254,465.391301 240.238332,466.248375 L241.95432,420.252059 L294.005958,414.252539 L294.005958,414.252539 Z M222.506455,696.229958 L221.076465,735.083989 C211.352532,734.798298 188.186693,733.941223 178.462761,733.655532 L180.178749,693.373044 L222.506455,696.229958 L222.506455,696.229958 Z M183.324727,675.945868 L225.938431,607.094239 L223.078451,678.802782 L183.324727,675.945868 L183.324727,675.945868 Z M220.504469,743.654731 L218.788481,789.936739 C204.774578,787.079825 189.902681,784.222911 176.174777,781.651688 L177.890765,742.226274 L220.504469,743.654731 L220.504469,743.654731 Z M218.216485,798.507481 L211.066534,856.217145 L165.878848,844.503798 L175.030785,789.936739 L218.216485,798.507481 L218.216485,798.507481 Z M215.642502,889.071657 L240.810328,895.356868 L238.236346,929.639837 L212.210526,917.069415 L215.642502,889.071657 L215.642502,889.071657 Z M216.786495,880.215224 L226.510427,799.935938 L247.67428,803.935618 L241.668322,886.214743 L216.786495,880.215224 L216.786495,880.215224 Z M256.25422,805.935458 L283.71003,811.363595 L280.278054,949.638235 L246.816286,933.639517 L256.25422,805.935458 L256.25422,805.935458 Z M227.368421,791.650887 L229.084409,744.226114 C240.238332,744.797497 270.268123,746.511645 285.14002,747.368719 L283.71003,802.792852 C272.270109,800.507321 251.106256,796.22195 227.368421,791.650887 L227.368421,791.650887 Z M229.656405,735.36968 L231.086395,696.801341 L286.57001,700.80102 L285.712016,738.797977 L229.656405,735.36968 L229.656405,735.36968 Z M231.658391,679.374165 L235.090367,594.809508 L289.42999,590.809829 L287.142006,683.088153 L231.658391,679.374165 L231.658391,679.374165 Z M235.376365,586.238766 L236.806356,552.241489 L290.287984,553.669946 L289.42999,582.239087 L235.376365,586.238766 L235.376365,586.238766 Z M237.378352,535.100004 L239.666336,475.104809 L292.28997,470.533747 L290.573982,536.528461 L237.378352,535.100004 L237.378352,535.100004 Z M154.724926,431.108332 L233.088381,421.680516 L231.372393,466.819758 L151.292949,465.962684 L154.724926,431.108332 L154.724926,431.108332 Z M231.086395,475.3905 L228.798411,534.814313 L144.714995,532.528782 L150.434955,474.533426 L231.086395,475.3905 L231.086395,475.3905 Z M228.226415,552.241489 L226.796425,589.667063 L199.340616,634.234922 L141.855015,561.669305 L142.999007,549.955958 L228.226415,552.241489 L228.226415,552.241489 Z M194.192651,641.94859 L173.314796,675.374485 L130.415094,672.23188 L140.425025,573.954036 L194.192651,641.94859 L194.192651,641.94859 Z M171.598808,692.515969 L167.594836,779.651848 C148.718967,775.93786 131.845084,772.509563 120.97716,770.509723 L128.985104,689.373364 L171.598808,692.515969 L171.598808,692.515969 Z M116.115194,528.529102 L81.509434,523.672348 L98.6693148,424.823122 L126.125124,429.965567 L116.115194,528.529102 L116.115194,528.529102 Z M119.833168,779.080466 L166.450844,788.222591 L149.862959,886.786126 L110.681231,867.930493 L119.833168,779.080466 L119.833168,779.080466 Z M164.448858,853.07454 L209.922542,864.787888 L203.916584,912.784044 L158.156902,890.785806 L164.448858,853.07454 L164.448858,853.07454 Z M208.206554,947.067013 L301.441907,991.920563 L297.151936,1006.77652 L167.594836,1037.63119 L208.206554,947.067013 L208.206554,947.067013 Z M309.449851,995.634552 L355.209533,1017.63279 L335.189672,1086.48442 L284.854022,1082.19905 L309.449851,995.634552 L309.449851,995.634552 Z M370.939424,1025.34646 L410.40715,1044.20209 L381.521351,1164.76386 L331.757696,1159.62142 L370.939424,1025.34646 L370.939424,1025.34646 Z M439.578947,1179.61982 L435.288977,1201.61806 L320.317776,1198.47545 L329.183714,1168.19216 L439.578947,1179.61982 L439.578947,1179.61982 Z M390.101291,1165.62094 L418.415094,1048.20177 L460.7428,1068.77155 L441.008937,1171.33477 L390.101291,1165.62094 L390.101291,1165.62094 Z M463.888779,1144.47977 L586.295929,1170.76338 L582.005958,1205.61774 L453.020854,1201.90375 L463.888779,1144.47977 L463.888779,1144.47977 Z M542.538232,1152.47913 L561.700099,1117.0534 L604.313803,1137.62318 L589.155909,1162.47833 L542.538232,1152.47913 L542.538232,1152.47913 Z M595.161867,1168.76354 L611.749752,1141.33717 L666.375372,1167.62078 L659.225422,1207.90327 L590.299901,1205.90343 L595.161867,1168.76354 L595.161867,1168.76354 Z M772.766634,1164.76386 C791.642502,1164.76386 807.086395,1180.1912 807.086395,1199.04683 C807.086395,1217.90247 791.642502,1233.3298 772.766634,1233.3298 C753.890765,1233.3298 738.446872,1217.90247 738.446872,1199.04683 C738.73287,1180.1912 753.890765,1164.76386 772.766634,1164.76386 L772.766634,1164.76386 Z M789.926514,1138.48026 C784.492552,1137.0518 778.772592,1136.19472 772.766634,1136.19472 L770.192651,1136.19472 L739.876862,1015.63295 L808.802383,994.206095 L824.246276,1032.48874 L789.926514,1138.48026 L789.926514,1138.48026 Z M846.268123,1057.91528 L942.363456,1077.34229 L940.933466,1085.91304 L824.246276,1162.47833 C821.672294,1159.05004 819.098312,1155.90743 815.952334,1153.05052 L846.268123,1057.91528 L846.268123,1057.91528 Z M938.645482,1097.34069 L919.197617,1206.7605 L835.400199,1192.47593 C834.542205,1184.19088 832.25422,1176.47721 828.536246,1169.62062 L938.645482,1097.34069 L938.645482,1097.34069 Z M961.811321,1231.61565 L955.233366,1260.18479 L878.299901,1249.04283 L893.171797,1219.90231 L961.811321,1231.61565 L961.811321,1231.61565 Z M944.079444,1166.19232 L953.517378,1112.48234 L1043.32075,1158.76434 L1039.60278,1184.19088 L944.079444,1166.19232 L944.079444,1166.19232 Z M1143.70606,1245.04315 L1050.7567,1229.33012 L1059.90864,1164.47817 L1154.85998,1183.04811 L1143.70606,1245.04315 L1143.70606,1245.04315 Z M1187.74975,1387.60316 L1148.28203,1379.88949 L1163.72592,1295.89622 L1204.62363,1301.03867 L1187.74975,1387.60316 L1187.74975,1387.60316 Z M1244.37736,1398.74513 L1204.62363,1391.03146 L1229.79146,1261.89894 L1266.9712,1270.18399 L1244.37736,1398.74513 L1244.37736,1398.74513 Z M1268.40119,1261.32756 L1231.50745,1253.04251 L1257.81927,1118.19617 L1292.71102,1124.19568 L1268.40119,1261.32756 L1268.40119,1261.32756 Z M1376.50844,1338.17855 L1320.16683,1339.60701 L1318.73684,1302.46712 L1364.49652,1252.18543 C1367.07051,1271.89814 1373.64846,1318.46584 1376.50844,1338.17855 L1376.50844,1338.17855 Z M1362.78054,1241.32916 L1318.16485,1290.46808 L1311.58689,1127.90967 L1344.19067,1133.33781 L1362.78054,1241.32916 L1362.78054,1241.32916 Z M1389.95035,1056.77251 L1379.65442,1121.62446 L1269.54518,1102.76883 L1284.98908,1034.77427 C1317.30685,1041.91656 1354.77259,1049.63023 1389.95035,1056.77251 L1389.95035,1056.77251 Z M1337.89871,921.926169 L1235.22542,907.641599 L1247.80933,839.932735 L1347.33664,857.645602 L1337.89871,921.926169 L1337.89871,921.926169 Z M1371.64647,832.79045 L1327.88878,825.076782 L1336.75472,779.651848 L1379.65442,788.222591 L1371.64647,832.79045 L1371.64647,832.79045 Z M1414.83217,840.504118 L1380.22642,834.218907 L1388.52036,789.936739 L1421.41013,796.507641 L1414.83217,840.504118 L1414.83217,840.504118 Z M1428.27408,747.654411 L1422.26812,787.651208 L1338.18471,770.795415 L1346.76465,727.941704 L1428.27408,747.654411 L1428.27408,747.654411 Z M1341.90268,709.086071 L1270.40318,691.658895 L1288.99305,597.09504 L1360.77855,610.522536 L1341.90268,709.086071 L1341.90268,709.086071 Z M1385.66038,597.666422 L1292.13903,579.953555 L1307.86892,499.959961 L1400.53227,518.529903 L1385.66038,597.666422 L1385.66038,597.666422 Z M1433.42205,50.8530704 L1423.41212,119.990391 L1384.80238,119.419008 L1381.37041,53.9956758 L1433.42205,50.8530704 L1433.42205,50.8530704 Z M1384.23039,136.560492 L1420.83813,137.131875 L1401.10427,273.692367 L1371.64647,273.692367 L1384.23039,136.560492 L1384.23039,136.560492 Z M1370.78848,282.548801 L1399.96028,282.548801 L1387.66236,367.399149 L1363.35253,362.828086 L1370.78848,282.548801 L1370.78848,282.548801 Z M1355.05859,361.113938 L1338.7567,357.971332 L1329.60477,135.703418 L1375.65045,136.560492 L1355.05859,361.113938 L1355.05859,361.113938 Z M1372.50447,54.5670586 L1375.93644,119.419008 L1329.03277,118.561934 L1326.45879,57.4239727 L1372.50447,54.5670586 L1372.50447,54.5670586 Z M1329.89076,385.683399 L1421.41013,402.824883 L1401.67627,510.244852 L1309.29891,491.674911 L1329.89076,385.683399 L1329.89076,385.683399 Z M1321.31082,354.828727 L1238.0854,339.1157 C1241.23138,320.260067 1246.95134,288.262629 1248.95333,277.120664 L1318.73684,284.548641 L1321.31082,354.828727 L1321.31082,354.828727 Z M1318.16485,275.692207 L1208.62761,263.97886 L1216.92155,217.41116 L1315.87686,216.554086 L1318.16485,275.692207 L1318.16485,275.692207 Z M1243.80536,62.2807266 L1309.01291,58.2810469 L1311.58689,122.561613 L1233.22344,121.990231 L1243.80536,62.2807266 L1243.80536,62.2807266 Z M1232.07944,130.560973 L1312.44489,131.132356 L1315.59086,207.697653 L1218.63754,208.554727 L1232.07944,130.560973 L1232.07944,130.560973 Z M1130.83615,35.140043 L1226.64548,60.5665782 L1216.34955,119.419008 L1120.54022,91.1355587 L1130.83615,35.140043 L1130.83615,35.140043 Z M1214.91956,127.98975 L1192.32572,257.122266 L1119.39623,99.7063009 L1214.91956,127.98975 L1214.91956,127.98975 Z M1113.67627,128.561133 L1167.44389,244.266153 L1108.2423,279.977578 C1103.38034,272.26391 1097.08838,265.407317 1089.36643,260.264871 L1113.67627,128.561133 L1113.67627,128.561133 Z M1096.80238,60.8522696 L1061.91063,250.265672 C1059.90864,249.979981 1057.90665,249.979981 1055.61867,249.979981 L1033.59682,71.708543 L1096.80238,60.8522696 L1096.80238,60.8522696 Z M1016.43694,74.5654571 L1038.45879,251.979821 C1037.88679,251.979821 1037.60079,252.265512 1037.0288,252.265512 L954.66137,84.8503477 L1016.43694,74.5654571 L1016.43694,74.5654571 Z M895.173784,28.5691407 L953.23138,146.559692 L896.031778,157.415965 L856.278054,39.4254141 L895.173784,28.5691407 L895.173784,28.5691407 Z M847.984111,41.7109454 C856.278054,65.9947149 880.873883,139.703098 887.451837,159.130113 L830.82423,169.700695 L815.666336,50.567379 L847.984111,41.7109454 L847.984111,41.7109454 Z M819.098312,215.125629 L751.602781,225.696211 L771.336643,145.416926 L812.234359,160.844262 L819.098312,215.125629 L819.098312,215.125629 Z M810.804369,151.130754 L729.580933,120.276082 L748.7428,78.2794454 L804.226415,98.5635353 L810.804369,151.130754 L810.804369,151.130754 Z M761.040715,39.1397227 L798.220457,50.567379 L803.082423,88.8500274 L751.888779,70.280086 L761.040715,39.1397227 L761.040715,39.1397227 Z M697.263158,19.4270156 L753.032771,36.8541914 L742.736842,71.708543 L721.858987,117.419168 L668.949355,97.4207696 L697.263158,19.4270156 L697.263158,19.4270156 Z M624.90566,4.5710625 L676.385303,25.997918 L665.23138,56.2812071 L611.749752,37.7112657 L624.90566,4.5710625 L624.90566,4.5710625 Z M606.315789,54.2813672 L659.225422,72.5656173 L630.053625,152.27352 L584.007944,133.132195 L606.315789,54.2813672 L606.315789,54.2813672 Z M529.382324,27.7120664 L598.307845,51.4244532 L576.285998,129.98959 L500.496524,98.5635353 L493.91857,73.7083829 C506.788481,59.709504 518.514399,44.282168 529.382324,27.7120664 L529.382324,27.7120664 Z M432.428997,45.1392422 L473.040715,21.1411641 L479.904667,62.8521094 C472.182721,71.1371602 464.174777,78.2794454 455.880834,84.8503477 L432.428997,45.1392422 L432.428997,45.1392422 Z M454.736842,107.134277 C463.316783,101.420449 471.896723,94.849547 479.904667,87.7072618 L494.776564,144.845543 L384.953327,166.55809 L380.663357,135.98911 C409.549156,129.132516 435.002979,119.704699 454.736842,107.134277 L454.736842,107.134277 Z M371.797418,137.703258 L382.379345,213.982863 L267.408143,224.839137 L261.688183,150.27368 C300.297915,148.845223 338.049652,144.845543 371.797418,137.703258 L371.797418,137.703258 Z M319.74578,59.4238126 L324.893744,127.98975 C290.573982,132.275121 253.680238,133.98927 217.358491,133.98927 L215.356504,46.5676993 L319.74578,59.4238126 L319.74578,59.4238126 Z M253.39424,150.845063 L259.114201,225.981903 L192.762661,232.267114 L196.194638,151.702137 C214.784508,151.702137 234.232373,151.416445 253.39424,150.845063 L253.39424,150.845063 Z M171.026812,41.4252539 L197.624628,44.5678594 L198.482622,79.9935938 L167.02284,75.9939141 C167.880834,68.2802462 169.88282,51.7101446 171.026812,41.4252539 L171.026812,41.4252539 Z M198.76862,88.564336 L199.912612,133.98927 C186.756703,133.98927 173.886792,133.703578 161.30288,133.132195 L166.164846,84.5646563 L198.76862,88.564336 L198.76862,88.564336 Z M26.0258193,23.7123867 L162.446872,40.2824883 L158.4429,74.8511485 L21.163853,57.7096641 L26.0258193,23.7123867 L26.0258193,23.7123867 Z M20.019861,66.2804063 L54.9116187,70.5657774 L45.1876862,125.418527 C31.4597815,123.99007 20.305859,122.847305 12.0119166,121.990231 L20.019861,66.2804063 L20.019861,66.2804063 Z M73.5014896,218.839617 L0,205.412121 L9.43793446,139.131715 C24.3098312,140.845863 49.1916584,143.702777 80.3654419,145.988309 L73.5014896,218.839617 L73.5014896,218.839617 Z M83.7974181,200.841059 L127.841112,187.127871 L133.275074,229.695891 L82.08143,220.268074 L83.7974181,200.841059 L83.7974181,200.841059 Z M83.225422,238.266633 L152.150943,250.837055 L134.705065,402.539192 L116.68719,399.110895 L83.225422,238.266633 L83.225422,238.266633 Z M34.3197617,317.974535 L88.6593843,306.546879 L107.535253,397.396746 L43.1857001,385.397707 L34.3197617,317.974535 L34.3197617,317.974535 Z M25.4538232,612.808067 L54.3396226,416.538071 L90.0893744,423.108973 L56.0556107,618.236204 L25.4538232,612.808067 L25.4538232,612.808067 Z M64.6355511,619.950352 L80.0794439,531.957399 L115.543198,536.814153 L106.391261,627.66402 L64.6355511,619.950352 L64.6355511,619.950352 Z M106.963257,898.213782 L192.762661,939.353345 L134.705065,1069.34293 L83.225422,1065.05756 L106.963257,898.213782 L106.963257,898.213782 Z M80.6514399,1082.19905 L216.214499,1093.6267 L213.926514,1133.6235 L71.7855015,1144.76547 L80.6514399,1082.19905 L80.6514399,1082.19905 Z M213.354518,1142.47993 L210.20854,1195.04715 L174.744786,1193.90439 L174.744786,1145.33685 L213.354518,1142.47993 L213.354518,1142.47993 Z M70.3555114,1153.90759 L166.164846,1146.47961 L166.164846,1194.19008 L64.9215492,1191.33317 L70.3555114,1153.90759 L70.3555114,1153.90759 Z M121.549156,1347.89206 L44.0436941,1337.60717 L55.7696127,1256.18511 L129.271102,1266.18431 L121.549156,1347.89206 L121.549156,1347.89206 Z M56.9136048,1247.61437 L60.917577,1219.90231 L133.275074,1221.90215 L130.129096,1257.61357 L56.9136048,1247.61437 L56.9136048,1247.61437 Z M156.440914,1352.46312 L130.129096,1349.03482 L137.565045,1267.32708 L164.734856,1271.04107 L156.440914,1352.46312 L156.440914,1352.46312 Z M165.59285,1262.47033 L138.423039,1258.75634 L141.855015,1221.90215 L169.596822,1222.75922 L165.59285,1262.47033 L165.59285,1262.47033 Z M204.202582,1359.03402 L173.600794,1355.03434 L181.894737,1273.04091 L209.922542,1274.75506 L204.202582,1359.03402 L204.202582,1359.03402 Z M182.752731,1264.18447 L187.042701,1223.3306 L299.725919,1226.47321 L302.871897,1271.04107 L182.752731,1264.18447 L182.752731,1264.18447 Z M212.782522,1360.17679 L218.788481,1275.04075 L303.729891,1279.8975 L310.593843,1373.31859 L212.782522,1360.17679 L212.782522,1360.17679 Z M302.585899,1197.90407 L227.654419,1195.90423 L230.514399,1144.19408 L312.023833,1165.04956 L302.585899,1197.90407 L302.585899,1197.90407 Z M271.412115,1145.62254 L280.564052,1099.34053 L330.327706,1103.6259 L314.883813,1156.76451 L271.412115,1145.62254 L271.412115,1145.62254 Z M316.885799,1227.04459 L434.716981,1230.47289 L439.864945,1260.75618 L320.317776,1271.04107 L316.885799,1227.04459 L316.885799,1227.04459 Z M320.889772,1279.32612 L441.294935,1269.04123 L448.730884,1313.0377 L324.321748,1326.4652 L320.889772,1279.32612 L320.889772,1279.32612 Z M330.041708,1404.74465 L325.46574,1343.89238 L451.304866,1330.17919 L459.884806,1382.46072 L330.041708,1404.74465 L330.041708,1404.74465 Z M461.028798,1282.75442 L452.448858,1230.75858 L604.885799,1235.04395 C601.453823,1248.18576 596.019861,1268.46984 588.297915,1292.46792 L461.028798,1282.75442 L461.028798,1282.75442 Z M635.201589,1393.0313 L578.287984,1371.31875 C581.71996,1362.74801 585.151936,1354.17727 588.297915,1345.89222 L648.0715,1359.8911 L635.201589,1393.0313 L635.201589,1393.0313 Z M594.303873,1329.60781 C608.889772,1288.75393 618.041708,1253.89958 622.331678,1235.61533 L658.08143,1236.7581 L692.973188,1296.4676 L656.65144,1344.17807 L594.303873,1329.60781 L594.303873,1329.60781 Z M715.281033,1357.89126 L666.089374,1346.4636 L699.83714,1302.18143 L731.010924,1315.03754 L715.281033,1357.89126 L715.281033,1357.89126 Z M734.156902,1306.75249 L705.271102,1294.75345 L738.160874,1251.61405 C742.450844,1254.47097 746.740814,1256.47081 751.602781,1258.18495 L734.156902,1306.75249 L734.156902,1306.75249 Z M751.888779,1308.18095 L768.762661,1261.61325 L772.766634,1261.61325 C779.630586,1261.61325 786.494538,1260.47049 792.786495,1258.47065 L813.092354,1299.8959 L751.888779,1308.18095 L751.888779,1308.18095 Z M773.910626,1379.03242 L781.346574,1313.0377 L817.382324,1308.18095 L842.836147,1360.17679 L773.910626,1379.03242 L773.910626,1379.03242 Z M843.980139,1297.61037 L817.382324,1243.329 C826.248262,1234.47257 832.540218,1222.75922 834.828203,1209.90311 L884.019861,1218.18816 L843.980139,1297.61037 L843.980139,1297.61037 Z M894.315789,1399.88789 L879.157895,1369.31891 L929.493545,1355.03434 L937.787488,1386.4604 L894.315789,1399.88789 L894.315789,1399.88789 Z M1014.14896,1362.74801 L946.08143,1383.88917 L938.073486,1352.46312 L1019.01092,1329.32211 L1014.14896,1362.74801 L1014.14896,1362.74801 Z M1021.58491,1310.75217 L871.435948,1353.60588 L848.842105,1307.32388 L874.295929,1257.32788 L1026.16087,1279.32612 L1021.58491,1310.75217 L1021.58491,1310.75217 Z M1024.44489,1411.88693 L1036.4568,1327.32227 L1078.78451,1333.0361 L1068.77458,1399.03082 L1024.44489,1411.88693 L1024.44489,1411.88693 Z M1117.96624,1384.74625 L1078.21251,1396.1739 L1087.65045,1334.17887 L1126.26018,1339.32131 L1117.96624,1384.74625 L1117.96624,1384.74625 Z" fill="#096AD0" opacity="0.300000012"></path>
        </g>
    </g>
</svg>