<?xml version="1.0" encoding="UTF-8"?>
<svg width="148px" height="75px" viewBox="0 0 148 75" version="1.1" xmlns="http://www.w3.org/2000/svg" xmlns:xlink="http://www.w3.org/1999/xlink">
    <!-- Generator: Sketch 50.2 (55047) - http://www.bohemiancoding.com/sketch -->
    <title>logo / medium blue</title>
    <desc>Created with Sketch.</desc>
    <defs></defs>
    <g id="Brand" stroke="none" stroke-width="1" fill="none" fill-rule="evenodd">
        <g id="Artboard-2-Copy-11" transform="translate(-79.000000, -137.000000)" fill="#096AD0">
            <g id="Logotype-/-white" transform="translate(79.000000, 137.000000)">
                <g id="logo-/-medium-blue">
                    <path d="M49.4974747,25.5391052 L73.5391052,1.49747468 L97.5807358,25.5391052 L73.5391052,49.5807358 L49.4974747,73.6223664 L25.4558441,49.5807358 L49.4974747,25.5391052 Z M4.26325641e-13,24.1248917 L24.0416306,0.0832611207 L48.0832611,24.1248917 L24.0416306,48.1665222 L4.26325641e-13,24.1248917 Z M57.9827561,67.9655121 L67.882251,58.0660172 L71.4177849,61.6015511 L61.51829,71.501046 L57.9827561,67.9655121 Z M82.0243866,43.9238816 L91.9238816,34.0243866 L95.4594155,37.5599205 L85.5599205,47.4594155 L82.0243866,43.9238816 Z" id="logo"></path>
                    <path d="M98.9949494,26.9533188 L123.03658,2.91168825 L147.07821,26.9533188 L123.03658,50.9949494 L98.9949494,75.0365799 L74.9533188,50.9949494 L98.9949494,26.9533188 Z M107.480231,69.3797257 L117.379726,59.4802307 L120.91526,63.0157646 L111.015765,72.9152596 L107.480231,69.3797257 Z M131.521861,45.3380951 L141.421356,35.4386002 L144.95689,38.9741341 L135.057395,48.873629 L131.521861,45.3380951 Z" id="logo"></path>
                </g>
            </g>
        </g>
    </g>
</svg>