<?xml version="1.0" encoding="UTF-8"?>
<svg width="80px" height="80px" viewBox="0 0 80 80" version="1.1" xmlns="http://www.w3.org/2000/svg" xmlns:xlink="http://www.w3.org/1999/xlink">
    <!-- Generator: Sketch 50.2 (55047) - http://www.bohemiancoding.com/sketch -->
    <title>baseline-play_circle_outline-24px</title>
    <desc>Created with Sketch.</desc>
    <defs></defs>
    <g id="Platforma-📕" stroke="none" stroke-width="1" fill="none" fill-rule="evenodd">
        <g id="baseline-play_circle_outline-24px" transform="translate(-8.000000, -8.000000)">
            <polygon id="Shape" points="0 0 96 0 96 96 0 96"></polygon>
            <path d="M40,66 L64,48 L40,30 L40,66 Z M48,8 C25.92,8 8,25.92 8,48 C8,70.08 25.92,88 48,88 C70.08,88 88,70.08 88,48 C88,25.92 70.08,8 48,8 Z M48,80 C30.36,80 16,65.64 16,48 C16,30.36 30.36,16 48,16 C65.64,16 80,30.36 80,48 C80,65.64 65.64,80 48,80 Z" id="Shape" fill="#096AD0" fill-rule="nonzero"></path>
        </g>
    </g>
</svg>