<?xml version="1.0" encoding="UTF-8"?>
<svg width="100px" height="35px" viewBox="0 0 100 35" version="1.1" xmlns="http://www.w3.org/2000/svg" xmlns:xlink="http://www.w3.org/1999/xlink">
    <!-- Generator: Sketch 50.2 (55047) - http://www.bohemiancoding.com/sketch -->
    <title>spotify logo copy</title>
    <desc>Created with Sketch.</desc>
    <defs></defs>
    <g id="spotify-logo-copy" stroke="none" stroke-width="1" fill="none" fill-rule="evenodd">
        <g id="Spotify_logo_with_text" transform="translate(0.000000, 2.000000)" fill="#096AD0" fill-rule="nonzero">
            <path d="M15.5836735,0.0511130952 C7.00315399,0.0511130952 0.0469387755,6.96946429 0.0469387755,15.503506 C0.0469387755,24.0379167 7.00315399,30.9557143 15.5836735,30.9557143 C24.1651206,30.9557143 31.1205937,24.0379167 31.1205937,15.503506 C31.1205937,6.97001786 24.1651206,0.0518511905 15.5834879,0.0518511905 L15.5836735,0.0511130952 Z M22.7087199,22.3378988 C22.4304267,22.7918274 21.8330241,22.935756 21.3766234,22.657125 C17.728757,20.440994 13.1365492,19.9390893 7.7283859,21.1680179 C7.20723562,21.2861131 6.6877551,20.9613512 6.5690167,20.4428393 C6.44972171,19.9243274 6.77495362,19.4076607 7.2974026,19.2895655 C13.2157699,17.944756 18.2923933,18.5237917 22.3877551,21.0130179 C22.8441558,21.2916488 22.9888683,21.8839702 22.7087199,22.3378988 Z M24.6103896,18.1303869 C24.2597403,18.697244 23.5139147,18.8762321 22.9443414,18.5274821 C18.7680891,15.9744107 12.4020408,15.2350238 7.46233766,16.7263452 C6.82170686,16.9188036 6.14508349,16.5597202 5.95064935,15.9236667 C5.75769944,15.286506 6.11892393,14.6148393 6.75844156,14.4210893 C12.4009276,12.7183036 19.4155844,13.543125 24.2115028,16.4742857 C24.7810761,16.8230357 24.961039,17.5648214 24.6103896,18.1305714 L24.6103896,18.1303869 Z M24.7736549,13.7490536 C19.7662338,10.7909524 11.5046382,10.5189643 6.72374768,11.962125 C5.95602968,12.1937024 5.14415584,11.7626548 4.91150278,10.9990952 C4.67884972,10.2351667 5.11187384,9.42824405 5.88014842,9.1961131 C11.3682746,7.53908929 20.4916512,7.8592381 26.2567718,11.2631488 C26.9487941,11.6707619 27.1751391,12.5577679 26.7651206,13.2436429 C26.3569573,13.9304405 25.4627087,14.1568512 24.774397,13.7490536 L24.7736549,13.7490536 Z M42.3172542,14.3159107 C39.6345083,13.6796726 39.1576994,13.233125 39.1576994,12.2948214 C39.1576994,11.408369 39.9962894,10.8118036 41.244898,10.8118036 C42.4545455,10.8118036 43.6530612,11.2648095 44.9109462,12.1973929 C44.9480519,12.225625 44.9962894,12.236881 45.0426716,12.2295 C45.0909091,12.2224881 45.1317254,12.1968393 45.1595547,12.1582738 L46.4693878,10.3218929 C46.5231911,10.2462381 46.5083488,10.1419821 46.4359926,10.0842262 C44.9387755,8.88980357 43.2541744,8.30910714 41.283859,8.30910714 C38.3877551,8.30910714 36.3636364,10.0379107 36.3636364,12.5114524 C36.3636364,15.1639821 38.109462,16.1032083 41.1261596,16.8282024 C43.6920223,17.4162798 44.1261596,17.9089583 44.1261596,18.789506 C44.1261596,19.7656369 43.2504638,20.3727202 41.8404453,20.3727202 C40.2745826,20.3727202 38.9962894,19.8468274 37.567718,18.6178988 C37.5324675,18.5865298 37.4842301,18.5736131 37.4397032,18.5754583 C37.3914657,18.5791488 37.3487941,18.6012917 37.3191095,18.6363512 L35.8497217,20.3745655 C35.7884972,20.448375 35.7959184,20.5553988 35.8664193,20.6181369 C37.528757,22.0943274 39.5732839,22.8730179 41.7810761,22.8730179 C44.9016698,22.8730179 46.9183673,21.177244 46.9183673,18.5514702 C46.9239332,16.3358929 45.5899814,15.1088095 42.32282,14.3183095 L42.3172542,14.3159107 Z M53.9795918,11.6846012 C52.6270872,11.6846012 51.5176252,12.2145536 50.6011132,13.3004762 L50.6011132,12.0781905 C50.6011132,11.9816845 50.5231911,11.9030774 50.4267161,11.9030774 L48.0241187,11.9030774 C47.9276438,11.9030774 47.8497217,11.9816845 47.8497217,12.0781905 L47.8497217,25.6593274 C47.8497217,25.7552798 47.9276438,25.834625 48.0241187,25.834625 L50.4267161,25.834625 C50.5231911,25.834625 50.6011132,25.7552798 50.6011132,25.6593274 L50.6011132,21.3728393 C51.5176252,22.393256 52.6270872,22.8933155 53.9795918,22.8933155 C56.4935065,22.8933155 59.038961,20.9687321 59.038961,17.2895119 C59.0426716,13.6095536 56.4972171,11.6844167 53.9814471,11.6844167 L53.9795918,11.6846012 Z M56.244898,17.2895119 C56.244898,19.162244 55.0853432,20.4705179 53.4230056,20.4705179 C51.7810761,20.4705179 50.541744,19.1031964 50.541744,17.2895119 C50.541744,15.4756429 51.7810761,14.1086905 53.4230056,14.1086905 C55.0575139,14.108506 56.244898,15.4459345 56.244898,17.2893274 L56.244898,17.2895119 Z M65.5602968,11.6846012 C62.32282,11.6846012 59.7866419,14.1638631 59.7866419,17.3295536 C59.7866419,20.4612917 62.3061224,22.9136131 65.5213358,22.9136131 C68.7699443,22.9136131 71.3135436,20.4428393 71.3135436,17.2895119 C71.3135436,14.1468869 68.7866419,11.6849702 65.5602968,11.6849702 L65.5602968,11.6846012 Z M65.5602968,20.4889702 C63.83859,20.4889702 62.5398887,19.1124226 62.5398887,17.2885893 C62.5398887,15.4564524 63.7940631,14.1269583 65.5213358,14.1269583 C67.2541744,14.1269583 68.5602968,15.5029524 68.5602968,17.328631 C68.5602968,19.1603988 67.2987013,20.4889702 65.5602968,20.4889702 Z M78.2263451,11.9030774 L75.5825603,11.9030774 L75.5825603,9.21530357 C75.5825603,9.11898214 75.5046382,9.040375 75.4081633,9.040375 L73.0055659,9.040375 C72.9090909,9.040375 72.8293135,9.11898214 72.8293135,9.21530357 L72.8293135,11.9030774 L71.6753247,11.9030774 C71.5788497,11.9030774 71.5009276,11.9816845 71.5009276,12.0781905 L71.5009276,14.1313869 C71.5009276,14.2277083 71.5788497,14.3065 71.6753247,14.3065 L72.8293135,14.3065 L72.8293135,19.6198631 C72.8293135,21.765875 73.903525,22.8545655 76.0241187,22.8545655 C76.8849722,22.8545655 77.5992579,22.6774226 78.2727273,22.2973036 C78.3283859,22.2677798 78.3617811,22.2087321 78.3617811,22.145994 L78.3617811,20.1900417 C78.3617811,20.130994 78.3302412,20.0737917 78.2782931,20.0424226 C78.2263451,20.0092083 78.16141,20.0073631 78.1076067,20.0350417 C77.6456401,20.2656964 77.1985158,20.3727202 76.6975881,20.3727202 C75.9276438,20.3727202 75.5825603,20.0239702 75.5825603,19.2452798 L75.5825603,14.3074226 L78.2263451,14.3074226 C78.32282,14.3074226 78.4007421,14.2288155 78.4007421,14.1323095 L78.4007421,12.0792976 C78.4044527,11.9827917 78.3265306,11.9041845 78.2282004,11.9041845 L78.2263451,11.9030774 Z M87.4359926,11.9135952 L87.4359926,11.5834821 C87.4359926,10.6123333 87.8107607,10.179256 88.6493506,10.179256 C89.1502783,10.179256 89.5528757,10.2781607 90.0037106,10.427625 C90.0593692,10.4449702 90.1168831,10.4362976 90.16141,10.4032679 C90.2077922,10.3702381 90.2337662,10.3172798 90.2337662,10.2611845 L90.2337662,8.24802976 C90.2337662,8.17108333 90.1855288,8.10299405 90.109462,8.08029762 C89.6345083,7.93950595 89.025974,7.79502381 88.1131725,7.79502381 C85.8961039,7.79502381 84.7217069,9.03760714 84.7217069,11.3871488 L84.7217069,11.892744 L83.567718,11.892744 C83.471243,11.892744 83.3914657,11.9713512 83.3914657,12.0676726 L83.3914657,14.1313869 C83.3914657,14.2277083 83.471243,14.3065 83.567718,14.3065 L84.7217069,14.3065 L84.7217069,22.5002798 C84.7217069,22.5980774 84.8014842,22.6755774 84.8979592,22.6755774 L87.2987013,22.6755774 C87.3970315,22.6755774 87.4749536,22.5980774 87.4749536,22.5002798 L87.4749536,14.3070536 L89.7179963,14.3070536 L93.1539889,22.5002798 C92.7643785,23.3601607 92.380334,23.5317679 91.8571429,23.5317679 C91.4341373,23.5317679 90.987013,23.4062917 90.5324675,23.1571845 C90.4897959,23.1350417 90.4378479,23.1313512 90.393321,23.1442679 C90.3469388,23.160875 90.3079777,23.1940893 90.2894249,23.238375 L89.4749536,25.0153393 C89.4359926,25.1002202 89.4693878,25.1980179 89.5510204,25.2423036 C90.4007421,25.6999226 91.1669759,25.8955179 92.1150278,25.8955179 C93.8886827,25.8955179 94.8701299,25.0725417 95.7328386,22.8619464 L99.8998145,12.1527381 C99.9220779,12.0988571 99.9146568,12.0379643 99.8812616,11.9901726 C99.8497217,11.94275 99.7959184,11.9141488 99.7384045,11.9141488 L97.2374768,11.9141488 C97.16141,11.9141488 97.0946197,11.9615714 97.0705009,12.031506 L94.5083488,19.3080179 L91.703154,12.0267083 C91.67718,11.9589881 91.6122449,11.9141488 91.5398887,11.9141488 L87.4359926,11.9141488 L87.4359926,11.9135952 Z M82.096475,11.9030774 L79.6938776,11.9030774 C79.5974026,11.9030774 79.5176252,11.9816845 79.5176252,12.0781905 L79.5176252,22.5002798 C79.5176252,22.5980774 79.5974026,22.6755774 79.6938776,22.6755774 L82.096475,22.6755774 C82.1929499,22.6755774 82.2727273,22.5980774 82.2727273,22.5002798 L82.2727273,12.0789286 C82.2727273,11.9824226 82.1948052,11.9038155 82.096475,11.9038155 L82.096475,11.9030774 Z M80.9090909,7.15730952 C79.9573284,7.15730952 79.1855288,7.92345238 79.1855288,8.869875 C79.1855288,9.81685119 79.9573284,10.5839167 80.9090909,10.5839167 C81.8608534,10.5839167 82.6307978,9.81685119 82.6307978,8.869875 C82.6307978,7.9236369 81.8589981,7.15730952 80.9090909,7.15730952 Z" id="Shape"></path>
        </g>
    </g>
</svg>