<?xml version="1.0" encoding="UTF-8"?>
<svg width="24px" height="24px" viewBox="0 0 24 24" version="1.1" xmlns="http://www.w3.org/2000/svg" xmlns:xlink="http://www.w3.org/1999/xlink">
    <!-- Generator: Sketch 50.2 (55047) - http://www.bohemiancoding.com/sketch -->
    <title>icon/styleguide</title>
    <desc>Created with Sketch.</desc>
    <defs></defs>
    <g id="icon/styleguide" stroke="none" stroke-width="1" fill="none" fill-rule="evenodd">
        <g id="outline-font_download-24px">
            <g id="Bounding_Boxes">
                <polygon id="Shape" points="0 0 24 0 24 24 0 24"></polygon>
            </g>
            <g id="Outline" transform="translate(2.000000, 2.000000)" fill="#FFFFFF" fill-rule="nonzero">
                <g id="Group">
                    <path d="M7.17,13.5 L12.81,13.5 L13.95,16.5 L16.04,16.5 L10.93,3.5 L9.07,3.5 L3.96,16.5 L6.05,16.5 L7.17,13.5 Z M10,5.98 L12.07,11.5 L7.93,11.5 L10,5.98 Z" id="Shape"></path>
                    <path d="M18,0 L2,0 C0.9,0 0,0.9 0,2 L0,18 C0,19.1 0.9,20 2,20 L18,20 C19.1,20 20,19.1 20,18 L20,2 C20,0.9 19.1,0 18,0 Z M18,18 L2,18 L2,2 L18,2 L18,18 Z" id="Shape"></path>
                </g>
            </g>
        </g>
    </g>
</svg>