<?xml version="1.0" encoding="UTF-8"?>
<svg width="55px" height="65px" viewBox="0 0 55 65" version="1.1" xmlns="http://www.w3.org/2000/svg" xmlns:xlink="http://www.w3.org/1999/xlink">
    <!-- Generator: Sketch 50.2 (55047) - http://www.bohemiancoding.com/sketch -->
    <title>a</title>
    <desc>Created with Sketch.</desc>
    <defs></defs>
    <g id="landing-page" stroke="none" stroke-width="1" fill="none" fill-rule="evenodd" fill-opacity="0.0995244565">
        <g id="Extra-large:-Desktops---12-col" transform="translate(-197.000000, -5541.000000)" fill="#E6F2FF" stroke="#FFFFFF">
            <g id="Group-42-Copy" transform="translate(0.000000, 4708.000000)">
                <g id="Group-17" transform="translate(165.000000, 231.000000)">
                    <path d="M70.6155755,664.504158 L86.5,664.504158 L86.5,664.155617 C84.8936605,661.064699 84.0797233,656.586683 84.04158,650.711019 L84.04158,623.897089 C84.04158,617.100031 81.8606895,611.856613 77.4988085,608.125812 C73.1179286,604.378762 67.1825363,602.5 59.6715177,602.5 C54.7059332,602.5 50.2372742,603.354302 46.2616702,605.060812 C42.3012602,606.760799 39.2483702,609.097004 37.0929549,612.069991 C35.0467837,614.892296 33.9777372,617.93985 33.8795843,621.224532 L49.4069951,621.224532 C49.5156631,618.989394 50.3632138,617.188057 51.9453201,615.85375 C53.6254971,614.436733 55.9214057,613.734927 58.8139293,613.734927 C62.1123914,613.734927 64.5674307,614.644201 66.1403211,616.482644 C67.6907815,618.294871 68.4615385,620.69723 68.4615385,623.668399 L68.4615385,627.713098 L67.9615385,627.713098 L60.359663,627.713093 C51.2695599,627.750812 44.3459327,629.498159 39.5820721,632.935611 C34.8562519,636.345614 32.5,641.224442 32.5,647.623701 C32.5,652.816409 34.4298774,657.100921 38.3049271,660.512448 C42.1931251,663.935551 47.0966832,665.647609 53.039501,665.647609 C59.3034681,665.647609 64.370082,663.476203 68.275488,659.124465 L68.979964,658.339478 L69.1416961,659.381751 C69.4561951,661.408522 69.9485696,663.116033 70.6155755,664.504158 Z M56.6413721,654.012474 C54.007568,654.012474 51.9043078,653.304646 50.3566883,651.879207 C48.8042031,650.449286 48.022869,648.61932 48.0237318,646.393716 L48.0822052,645.404679 C48.6436574,639.38912 53.2850019,636.37526 61.7869023,636.37526 L68.4615385,636.37526 L68.4615385,647.636074 L68.4011844,647.747497 C67.3616324,649.66667 65.7642931,651.194126 63.6211132,652.325249 C61.4900533,653.449975 59.1611083,654.012474 56.6413721,654.012474 Z" id="a"></path>
                </g>
            </g>
        </g>
    </g>
</svg>