<?xml version="1.0" encoding="UTF-8"?>
<svg width="24px" height="24px" viewBox="0 0 24 24" version="1.1" xmlns="http://www.w3.org/2000/svg" xmlns:xlink="http://www.w3.org/1999/xlink">
    <!-- Generator: Sketch 50.2 (55047) - http://www.bohemiancoding.com/sketch -->
    <title>icon/testimonial</title>
    <desc>Created with Sketch.</desc>
    <defs></defs>
    <g id="icon/testimonial" stroke="none" stroke-width="1" fill="none" fill-rule="evenodd">
        <g id="outline-format_quote-24px">
            <g id="Bounding_Boxes">
                <polygon id="Shape" points="0 0 24 0 24 24 0 24"></polygon>
            </g>
            <g id="Outline" transform="translate(3.000000, 6.000000)" fill="#FFFFFF" fill-rule="nonzero">
                <path d="M15.62,12 L10.38,12 L12.38,8 L10,8 L10,0 L18,0 L18,7.24 L15.62,12 Z M13.62,10 L14.38,10 L16,6.76 L16,2 L12,2 L12,6 L15.62,6 L13.62,10 Z M5.62,12 L0.38,12 L2.38,8 L0,8 L0,0 L8,0 L8,7.24 L5.62,12 Z M3.62,10 L4.38,10 L6,6.76 L6,2 L2,2 L2,6 L5.62,6 L3.62,10 Z" id="Shape"></path>
            </g>
        </g>
    </g>
</svg>