<?xml version="1.0" encoding="UTF-8"?>
<svg width="470px" height="557px" viewBox="0 0 470 557" version="1.1" xmlns="http://www.w3.org/2000/svg" xmlns:xlink="http://www.w3.org/1999/xlink">
    <!-- Generator: Sketch 50.2 (55047) - http://www.bohemiancoding.com/sketch -->
    <title>vertical - big copy</title>
    <desc>Created with Sketch.</desc>
    <defs></defs>
    <g id="Images" stroke="none" stroke-width="1" fill="none" fill-rule="evenodd">
        <g id="vertical---big-copy">
            <rect id="Rectangle" fill="#E6F2FF" x="0" y="0" width="470" height="557"></rect>
            <g id="Icon-24px" opacity="0.3" transform="translate(187.000000, 230.000000)">
                <g id="Group">
                    <path d="M48,48 C56.84,48 64,40.84 64,32 C64,23.16 56.84,16 48,16 C39.16,16 32,23.16 32,32 C32,40.84 39.16,48 48,48 Z M48,56 C37.32,56 16,61.36 16,72 L16,80 L80,80 L80,72 C80,61.36 58.68,56 48,56 Z" id="Shape" fill="#096AD0" fill-rule="nonzero"></path>
                    <polygon id="Shape" points="0 0 96 0 96 96 0 96"></polygon>
                </g>
            </g>
        </g>
    </g>
</svg>