<?xml version="1.0" encoding="UTF-8"?>
<svg width="100px" height="35px" viewBox="0 0 100 35" version="1.1" xmlns="http://www.w3.org/2000/svg" xmlns:xlink="http://www.w3.org/1999/xlink">
    <!-- Generator: Sketch 50.2 (55047) - http://www.bohemiancoding.com/sketch -->
    <title>webflow logo copy</title>
    <desc>Created with Sketch.</desc>
    <defs></defs>
    <g id="webflow-logo-copy" stroke="none" stroke-width="1" fill="none" fill-rule="evenodd">
        <g id="webflow-logo-black" transform="translate(0.000000, 5.000000)" fill="#096AD0" fill-rule="nonzero">
            <path d="M32.3362176,9.81617647 C32.3362176,8.03921569 30.5933251,6.15196078 27.5772559,6.15196078 C24.1903585,6.15196078 20.4697157,8.61519608 19.9011125,13.5294118 C19.3201483,18.4926471 22.4351051,20.6985294 25.5747837,20.6985294 C28.7144623,20.6985294 30.3584672,19.4852941 32.039555,17.8676471 C30.5933251,16.0661765 28.7268232,16.8995098 28.368356,17.0833333 C27.9728059,17.2794118 27.4660074,17.5490196 26.4276885,17.5490196 C25.2163164,17.5490196 23.9802225,17.0098039 23.9802225,14.7671569 C31.7428925,14.0073529 32.3362176,11.5931373 32.3362176,9.81617647 Z M28.4919654,10.1102941 C28.4425216,10.6617647 28.2200247,11.6053922 24.289246,12.1323529 C25.1174289,9.21568627 26.6996292,8.99509804 27.4289246,8.99509804 C28.1087763,8.99509804 28.5414091,9.52205882 28.4919654,10.1102941 Z M15.3399258,10.5882353 C15.3399258,10.5882353 13.671199,15.7843137 13.5352287,16.2132353 C13.4857849,15.7720588 12.2620519,6.44607843 12.2620519,6.44607843 C9.41903585,6.44607843 7.8986403,8.45588235 7.09517923,10.5759804 C7.09517923,10.5759804 5.06798517,15.7843137 4.89493201,16.2254902 C4.88257108,15.8210784 4.58590853,10.6372549 4.58590853,10.6372549 C4.41285538,8.03921569 2.01483313,6.45833333 0.0741656366,6.45833333 L2.42274413,20.5882353 C5.40173053,20.5759804 7.00865266,18.5784314 7.84919654,16.4583333 C7.84919654,16.4583333 9.64153276,11.8627451 9.71569839,11.6544118 C9.72805933,11.8504902 11.0012361,20.5882353 11.0012361,20.5882353 C13.9925834,20.5882353 15.5995056,18.7132353 16.4647713,16.6666667 L20.6551298,6.45833333 C17.7008653,6.45833333 16.1433869,8.45588235 15.3399258,10.5882353 Z M43.3127318,6.12745098 C41.4709518,6.12745098 40.0618047,7.12009804 38.8751545,8.57843137 L38.8751545,8.56617647 L39.9381953,0.0735294118 C37.4907293,0.0735294118 35.500618,2.18137255 35.1174289,5.31862745 L33.263288,20.4779412 C34.6724351,20.4779412 36.1681088,20.0735294 36.9715698,19.0441176 C37.6885043,19.9632353 38.7639061,20.6985294 40.3584672,20.6985294 C44.487021,20.6985294 47.3176761,15.9436275 47.3176761,11.4828431 C47.2929543,7.41421569 45.302843,6.12745098 43.3127318,6.12745098 Z M42.9295426,13.4191176 C42.4969098,15.9068627 41.1001236,17.5980392 39.7527812,17.5980392 C38.3930779,17.5980392 37.8121137,16.997549 37.8121137,16.997549 C38.0716934,14.8161765 38.2323857,13.4803922 38.7268232,12.3284314 C39.2212608,11.1764706 40.3955501,9.33823529 41.6192831,9.33823529 C42.8182942,9.33823529 43.3621755,10.9191176 42.9295426,13.4191176 Z M57.6266996,6.45833333 L54.7466007,6.45833333 L54.7589617,6.31127451 C54.9567367,4.44852941 55.4017305,3.46813725 56.8726823,3.30882353 C57.8739184,3.21078431 58.3189122,2.69607843 58.4301607,2.13235294 C58.5166873,1.69117647 58.7886279,0.159313725 58.7886279,0.159313725 C53.0037083,0.12254902 51.1866502,2.59803922 50.7169345,6.37254902 L50.7045735,6.45833333 L50.6427689,6.45833333 C49.7033375,6.45833333 48.6650185,7.5122549 48.4919654,8.84803922 L48.4301607,9.33823529 L50.3584672,9.33823529 L48.7391842,22.5980392 L48.2447466,24.9754902 C48.3065513,24.9754902 48.3807169,24.9877451 48.4425216,24.9877451 C51.1495674,24.8897059 52.8800989,22.7696078 53.263288,19.6936275 L54.5241038,9.33823529 L55.4264524,9.33823529 C56.31644,9.33823529 57.354759,8.45588235 57.5401731,6.98529412 L57.6266996,6.45833333 Z M72.6081582,6.21323529 C69.2830655,6.21323529 66.1433869,8.63970588 65.1792336,12.4509804 C64.2150803,16.2622549 65.6736712,20.7720588 70.5686032,20.7720588 C75.4511743,20.7720588 78.2694685,16.0784314 78.2694685,12.1691176 C78.2694685,8.28431373 75.6118665,6.21323529 72.6081582,6.21323529 Z M73.9555006,13.2965686 C73.7824475,15.0245098 73.0160692,17.6470588 70.9147095,17.6470588 C68.8009889,17.6470588 69.0976514,14.5833333 69.3077874,13.125 C69.5302843,11.5686275 70.407911,9.3504902 72.2991347,9.3504902 C73.9925834,9.3504902 74.1532756,11.3480392 73.9555006,13.2965686 Z M94.697157,10.5882353 C94.697157,10.5882353 93.0284302,15.7843137 92.8924598,16.2132353 C92.8430161,15.7720588 91.6192831,6.44607843 91.6192831,6.44607843 C88.776267,6.44607843 87.2558714,8.45588235 86.4524104,10.5759804 C86.4524104,10.5759804 84.4252163,15.7843137 84.2521632,16.2254902 C84.2398022,15.8210784 83.9431397,10.6372549 83.9431397,10.6372549 C83.7700865,8.03921569 81.3720643,6.45833333 79.4313968,6.45833333 L81.7676143,20.5882353 C84.7466007,20.5759804 86.3535229,18.5784314 87.1940667,16.4583333 C87.1940667,16.4583333 88.986403,11.8627451 89.0482077,11.6544118 C89.0729295,11.8504902 90.3337454,20.5882353 90.3337454,20.5882353 C93.3250927,20.5882353 94.9320148,18.7132353 95.7972806,16.6666667 L99.9876391,6.45833333 C97.0457355,6.45833333 95.4882571,8.45588235 94.697157,10.5882353 Z M60.3461063,0.159313725 L57.9233622,19.5343137 L57.4289246,21.9240196 C57.4907293,21.9240196 57.5648949,21.9362745 57.6266996,21.9362745 C60.2348578,21.8995098 62.0889988,19.6323529 62.4351051,16.7769608 L63.8318912,5.66176471 C64.2521632,2.26715686 62.2126082,0.159313725 60.3461063,0.159313725 Z" id="Shape"></path>
        </g>
    </g>
</svg>