<?xml version="1.0" encoding="UTF-8"?>
<svg width="419px" height="75px" viewBox="0 0 419 75" version="1.1" xmlns="http://www.w3.org/2000/svg" xmlns:xlink="http://www.w3.org/1999/xlink">
    <!-- Generator: Sketch 50.2 (55047) - http://www.bohemiancoding.com/sketch -->
    <title>Logotype / white</title>
    <desc>Created with Sketch.</desc>
    <defs>
        <path d="M6.96484375,36.4765625 L25.0390625,36.4765625 L25.0390625,42 L0.046875,42 L0.046875,2.1875 L6.96484375,2.1875 L6.96484375,36.4765625 Z M42.7304688,42.546875 C38.5195102,42.546875 35.1061329,41.2207164 32.4902344,38.5683594 C29.8743359,35.9160024 28.5664062,32.3841366 28.5664062,27.9726562 L28.5664062,27.1523438 C28.5664062,24.199204 29.136062,21.5605585 30.2753906,19.2363281 C31.4147192,16.9120978 33.0143126,15.1028711 35.0742188,13.8085938 C37.1341249,12.5143164 39.4309769,11.8671875 41.9648438,11.8671875 C45.9935097,11.8671875 49.1061088,13.1523309 51.3027344,15.7226562 C53.4993599,18.2929816 54.5976562,21.929664 54.5976562,26.6328125 L54.5976562,29.3125 L35.265625,29.3125 C35.4661468,31.7552205 36.2818939,33.6874929 37.7128906,35.109375 C39.1438874,36.5312571 40.9439996,37.2421875 43.1132812,37.2421875 C46.1575673,37.2421875 48.6367092,36.0117311 50.5507812,33.5507812 L54.1328125,36.96875 C52.9479107,38.736988 51.3665463,40.1087191 49.3886719,41.0839844 C47.4107974,42.0592497 45.1914186,42.546875 42.7304688,42.546875 Z M41.9375,17.1992188 C40.1145742,17.1992188 38.6425837,17.8372332 37.5214844,19.1132812 C36.400385,20.3893293 35.6848974,22.1666553 35.375,24.4453125 L48.0351562,24.4453125 L48.0351562,23.953125 C47.8893222,21.7291555 47.2968802,20.0475317 46.2578125,18.9082031 C45.2187448,17.7688745 43.778655,17.1992188 41.9375,17.1992188 Z M58.5898438,26.9882812 C58.5898438,22.3945083 59.6699111,18.7259252 61.8300781,15.9824219 C63.9902452,13.2389186 66.856753,11.8671875 70.4296875,11.8671875 C73.8021002,11.8671875 76.4544174,13.042957 78.3867188,15.3945312 L78.6875,12.4140625 L84.6757812,12.4140625 L84.6757812,41.0976562 C84.6757812,44.9804882 83.468111,48.0429575 81.0527344,50.2851562 C78.6373577,52.527355 75.3789268,53.6484375 71.2773438,53.6484375 C69.1080621,53.6484375 66.9889426,53.1972701 64.9199219,52.2949219 C62.8509011,51.3925736 61.2786512,50.2122469 60.203125,48.7539062 L63.3476562,44.7617188 C65.3893331,47.18621 67.904933,48.3984375 70.8945312,48.3984375 C73.1002714,48.3984375 74.8411395,47.8014383 76.1171875,46.6074219 C77.3932355,45.4134055 78.03125,43.6588657 78.03125,41.34375 L78.03125,39.3476562 C76.1171779,41.4804794 73.5651201,42.546875 70.375,42.546875 C66.911441,42.546875 64.0813912,41.1705867 61.8847656,38.4179688 C59.6881401,35.6653508 58.5898438,31.8554931 58.5898438,26.9882812 Z M65.2070312,27.5625 C65.2070312,30.533869 65.813145,32.8717363 67.0253906,34.5761719 C68.2376363,36.2806075 69.9192601,37.1328125 72.0703125,37.1328125 C74.7500134,37.1328125 76.7369727,35.9843865 78.03125,33.6875 L78.03125,20.671875 C76.7734312,18.4296763 74.8047009,17.3085938 72.125,17.3085938 C69.9374891,17.3085938 68.2376363,18.1744705 67.0253906,19.90625 C65.813145,21.6380295 65.2070312,24.1900873 65.2070312,27.5625 Z M90.2539062,26.9335938 C90.2539062,24.0351418 90.8281193,21.4238397 91.9765625,19.0996094 C93.1250057,16.775379 94.7382709,14.9889385 96.8164062,13.7402344 C98.8945416,12.4915302 101.282539,11.8671875 103.980469,11.8671875 C107.972676,11.8671875 111.212878,13.1523309 113.701172,15.7226562 C116.189466,18.2929816 117.533853,21.7018017 117.734375,25.9492188 L117.761719,27.5078125 C117.761719,30.4244937 117.201177,33.0312385 116.080078,35.328125 C114.958979,37.6250115 113.354828,39.4023375 111.267578,40.6601562 C109.180328,41.917975 106.769545,42.546875 104.035156,42.546875 C99.8606562,42.546875 96.5201948,41.1569149 94.0136719,38.3769531 C91.5071489,35.5969913 90.2539062,31.8919502 90.2539062,27.2617188 L90.2539062,26.9335938 Z M96.8984375,27.5078125 C96.8984375,30.5520986 97.5273375,32.9355383 98.7851562,34.6582031 C100.042975,36.380868 101.792958,37.2421875 104.035156,37.2421875 C106.277355,37.2421875 108.02278,36.3671962 109.271484,34.6171875 C110.520189,32.8671788 111.144531,30.3060064 111.144531,26.9335938 C111.144531,23.9439955 110.50196,21.5742275 109.216797,19.8242188 C107.931634,18.07421 106.186209,17.1992188 103.980469,17.1992188 C101.811187,17.1992188 100.088548,18.0605383 98.8125,19.7832031 C97.536452,21.505868 96.8984375,24.080712 96.8984375,27.5078125 Z M149.371094,32.8398438 L154.074219,12.4140625 L160.554688,12.4140625 L152.488281,42 L147.019531,42 L140.675781,21.6835938 L134.441406,42 L128.972656,42 L120.878906,12.4140625 L127.359375,12.4140625 L132.144531,32.6210938 L138.214844,12.4140625 L143.21875,12.4140625 L149.371094,32.8398438 Z M178.027344,42.546875 C173.816385,42.546875 170.403008,41.2207164 167.787109,38.5683594 C165.171211,35.9160024 163.863281,32.3841366 163.863281,27.9726562 L163.863281,27.1523438 C163.863281,24.199204 164.432937,21.5605585 165.572266,19.2363281 C166.711594,16.9120978 168.311188,15.1028711 170.371094,13.8085938 C172.431,12.5143164 174.727852,11.8671875 177.261719,11.8671875 C181.290385,11.8671875 184.402984,13.1523309 186.599609,15.7226562 C188.796235,18.2929816 189.894531,21.929664 189.894531,26.6328125 L189.894531,29.3125 L170.5625,29.3125 C170.763022,31.7552205 171.578769,33.6874929 173.009766,35.109375 C174.440762,36.5312571 176.240875,37.2421875 178.410156,37.2421875 C181.454442,37.2421875 183.933584,36.0117311 185.847656,33.5507812 L189.429688,36.96875 C188.244786,38.736988 186.663421,40.1087191 184.685547,41.0839844 C182.707672,42.0592497 180.488294,42.546875 178.027344,42.546875 Z M177.234375,17.1992188 C175.411449,17.1992188 173.939459,17.8372332 172.818359,19.1132812 C171.69726,20.3893293 170.981772,22.1666553 170.671875,24.4453125 L183.332031,24.4453125 L183.332031,23.953125 C183.186197,21.7291555 182.593755,20.0475317 181.554688,18.9082031 C180.51562,17.7688745 179.07553,17.1992188 177.234375,17.1992188 Z M210.539062,18.484375 C209.664058,18.3385409 208.761723,18.265625 207.832031,18.265625 C204.787745,18.265625 202.736984,19.43228 201.679688,21.765625 L201.679688,42 L195.035156,42 L195.035156,12.4140625 L201.378906,12.4140625 L201.542969,15.7226562 C203.147143,13.1523309 205.37108,11.8671875 208.214844,11.8671875 C209.162765,11.8671875 209.946611,11.9947904 210.566406,12.25 L210.539062,18.484375 Z M224.347656,29.3125 L221.394531,32.3476562 L221.394531,42 L214.75,42 L214.75,0 L221.394531,0 L221.394531,24.2265625 L223.472656,21.6289062 L231.648438,12.4140625 L239.632812,12.4140625 L228.640625,24.7460938 L240.808594,42 L233.125,42 L224.347656,29.3125 Z" id="path-1"></path>
    </defs>
    <g id="Brand" stroke="none" stroke-width="1" fill="none" fill-rule="evenodd">
        <g id="Artboard-2-Copy-11" transform="translate(-79.000000, -137.000000)">
            <g id="Logotype-/-white" transform="translate(79.000000, 137.000000)">
                <g id="Group" transform="translate(178.000000, 14.000000)">
                    <mask id="mask-2" fill="white">
                        <use xlink:href="#path-1"></use>
                    </mask>
                    <use id="Legowerk" fill="#FFFFFF" xlink:href="#path-1"></use>
                    <g id="Swatch-/-dark-blue" mask="url(#mask-2)" fill="#096AD0">
                        <g transform="translate(-4.000000, -19.000000)" id="Rectangle-4-Copy">
                            <rect x="0" y="0" width="271" height="86"></rect>
                        </g>
                    </g>
                </g>
                <g id="logo-/-medium-blue" fill="#096AD0">
                    <path d="M49.4974747,25.5391052 L73.5391052,1.49747468 L97.5807358,25.5391052 L73.5391052,49.5807358 L49.4974747,73.6223664 L25.4558441,49.5807358 L49.4974747,25.5391052 Z M4.26325641e-13,24.1248917 L24.0416306,0.0832611207 L48.0832611,24.1248917 L24.0416306,48.1665222 L4.26325641e-13,24.1248917 Z M57.9827561,67.9655121 L67.882251,58.0660172 L71.4177849,61.6015511 L61.51829,71.501046 L57.9827561,67.9655121 Z M82.0243866,43.9238816 L91.9238816,34.0243866 L95.4594155,37.5599205 L85.5599205,47.4594155 L82.0243866,43.9238816 Z" id="logo"></path>
                    <path d="M98.9949494,26.9533188 L123.03658,2.91168825 L147.07821,26.9533188 L123.03658,50.9949494 L98.9949494,75.0365799 L74.9533188,50.9949494 L98.9949494,26.9533188 Z M107.480231,69.3797257 L117.379726,59.4802307 L120.91526,63.0157646 L111.015765,72.9152596 L107.480231,69.3797257 Z M131.521861,45.3380951 L141.421356,35.4386002 L144.95689,38.9741341 L135.057395,48.873629 L131.521861,45.3380951 Z" id="logo"></path>
                </g>
            </g>
        </g>
    </g>
</svg>