<svg enable-background="new 0 0 209 70" viewBox="0 0 209 70" xmlns="http://www.w3.org/2000/svg"><g clip-rule="evenodd"><path d="m-301-218.85h810.52v507.35h-810.52z" fill="none"/><path d="m198.65 29.36c3.33-.05 5.81-.8 7.44-2.27 1.63-1.46 2.45-3.35 2.44-5.66-.04-1.82-.53-3.24-1.48-4.26s-2.12-1.79-3.52-2.3-2.8-.92-4.2-1.22-2.57-.64-3.52-1.03c-.95-.38-1.44-.96-1.48-1.72.01-.75.31-1.35.91-1.8s1.47-.67 2.61-.69c1.28 0 2.54.22 3.79.66s2.38 1.12 3.4 2.05l2.92-3.85c-1.22-1.13-2.64-1.99-4.26-2.57-1.61-.58-3.4-.87-5.37-.87-2.93.06-5.22.79-6.86 2.22-1.64 1.42-2.48 3.19-2.5 5.3.04 1.83.53 3.25 1.48 4.26s2.12 1.76 3.53 2.25c1.4.5 2.81.89 4.21 1.19s2.58.65 3.53 1.07 1.44 1.05 1.48 1.9c0 .73-.35 1.36-1.07 1.9-.71.54-1.79.82-3.23.84-1.71-.03-3.23-.35-4.55-.99-1.32-.63-2.42-1.41-3.3-2.35l-2.85 4c1.14 1.18 2.58 2.13 4.3 2.84 1.73.72 3.78 1.08 6.15 1.1zm-24.64-4.67c-2.31-.05-4.12-.83-5.45-2.33-1.33-1.51-2.01-3.43-2.03-5.78.03-2.36.7-4.3 2.03-5.79 1.33-1.5 3.15-2.27 5.45-2.32 2.31.05 4.13.82 5.47 2.32s2.02 3.43 2.05 5.79c-.03 2.35-.71 4.27-2.05 5.78-1.34 1.5-3.17 2.28-5.47 2.33zm0 4.67c2.52-.02 4.74-.57 6.68-1.66s3.46-2.58 4.56-4.5c1.1-1.91 1.67-4.12 1.69-6.62-.02-2.5-.58-4.71-1.69-6.62-1.1-1.91-2.62-3.41-4.56-4.5s-4.16-1.64-6.68-1.66c-2.5.02-4.72.57-6.65 1.66s-3.45 2.58-4.55 4.5c-1.1 1.91-1.67 4.12-1.69 6.62.02 2.5.58 4.71 1.69 6.62 1.1 1.91 2.62 3.41 4.55 4.5 1.93 1.08 4.14 1.64 6.65 1.66zm-27.57-4.67c-2.31-.05-4.12-.83-5.45-2.33-1.33-1.51-2.01-3.43-2.03-5.78.03-2.36.7-4.3 2.03-5.79 1.33-1.5 3.15-2.27 5.45-2.32 2.31.05 4.13.82 5.47 2.32s2.02 3.43 2.05 5.79c-.03 2.35-.71 4.27-2.05 5.78-1.34 1.5-3.16 2.28-5.47 2.33zm0 4.67c2.52-.02 4.74-.57 6.68-1.66s3.46-2.58 4.56-4.5c1.1-1.91 1.67-4.12 1.69-6.62-.02-2.5-.58-4.71-1.69-6.62-1.1-1.91-2.62-3.41-4.56-4.5s-4.16-1.64-6.68-1.66c-2.5.02-4.72.57-6.65 1.66s-3.45 2.58-4.55 4.5c-1.1 1.91-1.67 4.12-1.69 6.62.02 2.5.58 4.71 1.69 6.62 1.1 1.91 2.62 3.41 4.55 4.5 1.93 1.08 4.15 1.64 6.65 1.66zm-24.49 0c2.7-.06 4.88-.69 6.54-1.88s2.92-2.59 3.79-4.19l-4.52-2.19c-.54 1.04-1.32 1.89-2.34 2.56s-2.18 1.01-3.48 1.03c-2.28-.05-4.13-.82-5.55-2.31s-2.15-3.43-2.19-5.81c.04-2.38.77-4.32 2.19-5.81s3.27-2.26 5.55-2.31c1.3.02 2.45.37 3.48 1.05 1.02.67 1.8 1.52 2.34 2.55l4.52-2.22c-.85-1.6-2.11-2.99-3.78-4.17s-3.85-1.8-6.56-1.86c-2.49.02-4.73.56-6.7 1.62-1.97 1.07-3.53 2.55-4.68 4.46s-1.74 4.14-1.76 6.69c.03 2.55.61 4.78 1.76 6.69s2.71 3.4 4.68 4.46c1.98 1.08 4.22 1.62 6.71 1.64zm-25.89.03c2.24-.02 4.24-.44 6-1.28 1.75-.83 3.26-1.96 4.52-3.39v-9.48h-11.78v4.59h6.52v2.97c-.52.48-1.25.92-2.19 1.29-.94.38-1.96.58-3.08.6-2.28-.05-4.13-.82-5.55-2.31s-2.15-3.43-2.19-5.81c.04-2.38.77-4.32 2.19-5.81s3.27-2.26 5.55-2.31c1.33.03 2.49.34 3.5.96 1.01.61 1.79 1.37 2.36 2.27l4.37-2.37c-.91-1.51-2.2-2.79-3.87-3.85s-3.78-1.61-6.35-1.66c-2.44.01-4.64.54-6.62 1.58s-3.55 2.51-4.72 4.41c-1.17 1.91-1.77 4.17-1.8 6.79.03 2.61.63 4.87 1.8 6.78s2.75 3.39 4.72 4.44c1.98 1.05 4.18 1.58 6.62 1.59z" fill="#093f61" fill-rule="evenodd"/><path d="m206.57 67.81v-8.75h-1.56l-2.73 6.58-2.72-6.58h-1.56v8.75h1.09v-7.2l2.97 7.2h.45l2.98-7.2v7.2zm-10.32 0v-.97h-4.64v-3.02h4.55v-.97h-4.55v-2.82h4.64v-.97h-5.73v8.75zm-9.97 0v-7.78h2.78v-.97h-6.64v.97h2.77v7.78zm-8.05.16c.78-.01 1.41-.14 1.89-.38.47-.25.82-.57 1.03-.95.21-.39.32-.8.31-1.23-.01-.64-.19-1.14-.54-1.49s-.77-.62-1.29-.8c-.51-.18-1.02-.33-1.53-.46s-.94-.29-1.29-.49-.52-.49-.54-.87c.01-.42.18-.75.51-1.01.33-.25.76-.38 1.29-.39.48 0 .94.08 1.38.25s.82.44 1.15.8l.65-.8c-.37-.39-.81-.69-1.33-.9s-1.11-.32-1.78-.32c-.88.01-1.59.23-2.15.67-.55.44-.84 1.02-.86 1.75.01.61.19 1.09.54 1.41.35.33.77.57 1.28.74s1.02.32 1.53.45.94.31 1.28.53c.35.22.52.56.54 1 .01.36-.14.69-.44 1.01-.31.31-.85.48-1.62.5-.62-.01-1.16-.14-1.62-.38s-.84-.53-1.13-.86l-.64.83c.36.41.82.75 1.38 1 .58.25 1.24.38 2 .39zm-7.23-.16v-3.7l3.44-5.05h-1.27l-2.71 4.07-2.71-4.07h-1.27l3.45 5.05v3.7zm-8.41.16c.78-.01 1.41-.14 1.89-.38.47-.25.82-.57 1.03-.95.21-.39.32-.8.31-1.23-.01-.64-.19-1.14-.54-1.49s-.77-.62-1.28-.8-1.02-.33-1.53-.46-.94-.29-1.28-.49c-.35-.2-.53-.49-.54-.87.01-.42.18-.75.51-1.01.33-.25.76-.38 1.29-.39.48 0 .94.08 1.38.25s.82.44 1.15.8l.65-.8c-.37-.39-.81-.69-1.33-.9s-1.11-.32-1.78-.32c-.88.01-1.59.23-2.15.67-.55.44-.84 1.02-.86 1.75.01.61.19 1.09.54 1.41.35.33.77.57 1.29.74.51.17 1.02.32 1.53.45s.94.31 1.29.53.52.56.54 1c.01.36-.14.69-.44 1.01-.31.31-.85.48-1.62.5-.62-.01-1.16-.14-1.62-.38s-.84-.53-1.13-.86l-.64.83c.36.41.82.75 1.38 1 .54.25 1.2.38 1.96.39zm-11.45.01c.72-.01 1.37-.14 1.95-.41s1.08-.63 1.49-1.09v-3.16h-4.09v.97h3v1.78c-.22.23-.54.44-.94.64-.41.19-.88.3-1.41.31-.98-.02-1.78-.36-2.4-1.01s-.95-1.51-.97-2.56c.02-1.06.34-1.91.97-2.56.62-.65 1.43-.98 2.4-1 .53.01 1.01.12 1.45.34s.8.51 1.08.87l.86-.54c-.38-.49-.85-.88-1.41-1.18s-1.22-.45-1.99-.46c-.84.01-1.6.2-2.27.57-.68.37-1.21.9-1.61 1.58s-.6 1.47-.61 2.38c.01.91.21 1.71.61 2.38.4.68.94 1.21 1.61 1.58.68.38 1.44.57 2.28.57zm-6.21-.17v-8.75h-1.09v6.83l-5.04-6.83h-1.11v8.75h1.09v-6.98l5.1 6.98zm-9.3 0v-8.75h-1.09v8.75zm-5.77 0 3.53-8.75h-1.25l-2.95 7.56-2.95-7.56h-1.25l3.51 8.75zm-8.46-4.43h-2.3v-3.35h2.3c.53.01.95.16 1.26.46s.48.7.48 1.2c-.01.5-.17.9-.48 1.21-.32.32-.74.47-1.26.48zm2.96 4.43-2.36-3.56c.62-.05 1.14-.29 1.58-.72s.67-1.04.69-1.82c-.01-.82-.27-1.46-.77-1.92-.5-.47-1.16-.7-1.97-.71h-3.51v8.75h1.09v-3.48h1.75l2.23 3.48h1.27zm-8.11 0v-.97h-4.64v-3.02h4.55v-.97h-4.55v-2.82h4.64v-.97h-5.73v8.75zm-10.6.16c.78-.01 1.41-.14 1.89-.38.47-.25.82-.57 1.03-.95.21-.39.32-.8.31-1.23-.01-.64-.19-1.14-.54-1.49s-.77-.62-1.28-.8-1.02-.33-1.53-.46-.94-.29-1.28-.49c-.35-.2-.53-.49-.54-.87.01-.42.18-.75.5-1.01.33-.25.76-.38 1.29-.39.48 0 .94.08 1.38.25s.82.44 1.15.8l.66-.8c-.37-.39-.81-.69-1.33-.9s-1.11-.32-1.78-.32c-.88.01-1.59.23-2.15.67-.55.44-.84 1.02-.86 1.75.01.61.19 1.09.54 1.41.35.33.77.57 1.29.74.51.17 1.02.32 1.53.45s.94.31 1.29.53.52.56.54 1c.01.36-.14.69-.44 1.01-.31.31-.85.48-1.62.5-.62-.01-1.16-.14-1.62-.38s-.84-.53-1.13-.86l-.64.83c.36.41.82.75 1.38 1 .54.25 1.2.38 1.96.39zm-7.34-1.13h-2.68v-3.02h2.68c.54.01.94.16 1.22.45.27.29.41.64.41 1.06 0 .47-.15.84-.43 1.1-.29.27-.69.41-1.2.41zm-.06-3.98h-2.62v-2.82h2.62c.49.01.87.15 1.12.41.26.27.38.6.39 1 0 .41-.13.74-.39 1-.25.26-.62.4-1.12.41zm.28 4.95c.81-.01 1.43-.23 1.87-.65.44-.43.66-.99.67-1.71-.01-.54-.18-1.01-.5-1.42-.32-.4-.72-.65-1.2-.74.41-.09.77-.31 1.07-.65.3-.35.45-.8.47-1.35-.01-.67-.23-1.2-.66-1.61-.43-.4-1.03-.61-1.8-.62h-3.9v8.75zm-10.05-.81c-1-.02-1.78-.36-2.35-1.02s-.86-1.5-.87-2.54c.01-1.04.3-1.89.87-2.55.57-.65 1.35-.99 2.35-1.01.99.02 1.77.36 2.34 1.01s.86 1.5.87 2.55c-.01 1.04-.3 1.88-.87 2.54s-1.35 1-2.34 1.02zm0 .97c.87-.01 1.63-.21 2.27-.6.65-.39 1.15-.93 1.52-1.6.36-.68.55-1.45.55-2.32-.01-.87-.19-1.64-.55-2.32s-.87-1.21-1.52-1.6-1.41-.59-2.27-.6c-.87.01-1.63.21-2.28.6s-1.15.93-1.51 1.6c-.36.68-.54 1.45-.55 2.32.01.87.19 1.64.55 2.32s.86 1.21 1.51 1.6 1.41.59 2.28.6z" fill="#093f61" fill-rule="evenodd"/><path d="m201.97 41.22c-.86-.02-1.55-.31-2.04-.88-.5-.56-.75-1.29-.76-2.17.01-.89.26-1.61.76-2.17s1.18-.85 2.04-.87c.87.02 1.55.31 2.05.87s.76 1.29.77 2.17c-.01.88-.27 1.6-.77 2.17s-1.19.86-2.05.88zm0 1.75c.94-.01 1.78-.21 2.5-.62.73-.41 1.3-.97 1.71-1.69s.63-1.54.63-2.48c-.01-.94-.22-1.77-.63-2.48-.41-.72-.98-1.28-1.71-1.69s-1.56-.61-2.5-.62c-.94.01-1.77.21-2.49.62s-1.29.97-1.71 1.69c-.41.72-.62 1.54-.63 2.48.01.94.22 1.77.63 2.48.41.72.98 1.28 1.71 1.69.72.4 1.55.61 2.49.62zm-10.16 0c1.01-.02 1.83-.26 2.45-.71s1.1-.97 1.42-1.57l-1.68-.82c-.2.39-.49.71-.88.96-.38.25-.82.38-1.3.39-.86-.02-1.55-.31-2.08-.86-.53-.56-.81-1.29-.82-2.18.02-.89.29-1.62.82-2.18s1.23-.85 2.08-.86c.49.01.92.14 1.3.39s.68.57.88.96l1.69-.83c-.32-.6-.79-1.12-1.42-1.56s-1.44-.68-2.46-.7c-.94.01-1.77.21-2.51.61s-1.32.96-1.76 1.67c-.43.72-.65 1.55-.66 2.51.01.96.23 1.79.66 2.51s1.02 1.27 1.76 1.67c.74.39 1.58.59 2.51.6zm-7.01-.17v-9.26h-1.97v9.26zm-3.55 0-3.36-4.76 3.15-4.5h-2.37l-2.1 3.17-2.12-3.17h-2.35l3.15 4.51-3.36 4.75h2.35l2.33-3.39 2.32 3.39zm-10.65 0v-1.73h-4.58v-2.1h4.49v-1.73h-4.49v-1.96h4.58v-1.73h-6.55v9.26h6.55zm-9.08 0v-9.26h-2.78l-2.25 5.6-2.25-5.6h-2.76v9.26h1.97v-6.49l2.61 6.49h.86l2.61-6.49v6.49zm-20.96 0v-3.83h4.49v-1.73h-4.49v-1.96h4.58v-1.73h-6.55v9.26h1.97zm-8.9-1.58c-.86-.02-1.55-.31-2.04-.88-.5-.56-.75-1.29-.76-2.17.01-.89.26-1.61.76-2.17s1.18-.85 2.04-.87c.87.02 1.55.31 2.05.87s.76 1.29.77 2.17c-.01.88-.27 1.6-.77 2.17s-1.18.86-2.05.88zm0 1.75c.94-.01 1.78-.21 2.5-.62.73-.41 1.3-.97 1.71-1.69s.62-1.54.63-2.48c-.01-.94-.22-1.77-.63-2.48-.41-.72-.98-1.28-1.71-1.69s-1.56-.61-2.5-.62c-.94.01-1.77.21-2.49.62s-1.29.97-1.71 1.69c-.41.72-.62 1.54-.63 2.48.01.94.22 1.77.63 2.48.41.72.98 1.28 1.71 1.69.72.4 1.56.61 2.49.62zm-15.31-.17v-3.83h4.49v-1.73h-4.49v-1.96h4.58v-1.73h-6.55v9.26h1.97zm-4.05 0v-1.73h-3.92v-7.53h-1.97v9.26zm-12.59.17c1.41-.02 2.46-.37 3.15-1.07s1.03-1.63 1.03-2.8v-5.56h-2.01v5.5c0 .66-.18 1.18-.55 1.57-.36.39-.9.6-1.62.61-.72-.01-1.26-.21-1.63-.61-.37-.39-.55-.92-.55-1.57v-5.5h-2v5.57c0 1.16.34 2.09 1.03 2.78.69.7 1.74 1.06 3.15 1.08zm-10.38.01c.84-.01 1.59-.17 2.25-.48s1.22-.74 1.7-1.27v-3.56h-4.42v1.72h2.45v1.11c-.19.18-.47.34-.82.48s-.74.22-1.15.22c-.86-.02-1.55-.31-2.08-.86-.53-.56-.81-1.29-.82-2.18.02-.89.29-1.62.82-2.18s1.23-.85 2.08-.87c.5.01.93.13 1.31.36s.67.51.88.85l1.64-.89c-.34-.57-.83-1.05-1.45-1.45-.63-.4-1.42-.6-2.38-.62-.91 0-1.74.2-2.48.59s-1.33.94-1.77 1.66c-.44.71-.67 1.56-.68 2.55.01.98.24 1.82.68 2.54s1.03 1.27 1.77 1.67c.73.41 1.56.61 2.47.61z" fill="#f19610" fill-rule="evenodd"/><path d="m206.29 55.33v-8.75h-1.09v6.83l-5.04-6.83h-1.11v8.75h1.09v-6.98l5.1 6.98zm-12.36-2.91h-3.71l1.86-4.71zm2.35 2.91-3.53-8.75h-1.35l-3.52 8.75h1.25l.77-1.94h4.35l.77 1.94zm-10.86 0v-.97h-4.64v-3.02h4.55v-.97h-4.55v-2.82h4.64v-.97h-5.73v8.75zm-12.1.15c.77-.01 1.43-.17 1.97-.49s1-.73 1.36-1.24l-.93-.51c-.26.38-.59.69-1.01.92s-.88.35-1.39.36c-.98-.02-1.78-.35-2.4-1s-.95-1.5-.97-2.56c.02-1.06.34-1.91.97-2.56.62-.65 1.43-.98 2.4-1 .5.01.97.13 1.39.36s.76.54 1.01.91l.92-.51c-.35-.5-.79-.91-1.34-1.23s-1.21-.49-1.98-.5c-.85.01-1.61.2-2.29.58s-1.21.9-1.61 1.58-.6 1.47-.61 2.37c.01.9.21 1.69.61 2.37s.93 1.2 1.61 1.58 1.44.57 2.29.57zm-11.82-.97c-1-.02-1.78-.36-2.35-1.02s-.86-1.5-.87-2.54c.01-1.04.3-1.89.87-2.55.57-.65 1.35-.99 2.35-1.01.99.02 1.77.36 2.34 1.01s.86 1.5.87 2.55c-.01 1.04-.3 1.88-.87 2.54-.57.67-1.35 1-2.34 1.02zm0 .97c.87-.01 1.63-.21 2.27-.6.65-.39 1.15-.93 1.52-1.6.36-.68.55-1.45.55-2.32-.01-.87-.19-1.64-.55-2.32s-.87-1.21-1.52-1.6-1.41-.59-2.27-.6c-.87.01-1.63.21-2.28.6s-1.15.93-1.51 1.6c-.36.68-.54 1.45-.55 2.32.01.87.19 1.64.55 2.32s.86 1.21 1.51 1.6 1.41.6 2.28.6zm-12.17-.15v-.97h-4.07v-7.78h-1.09v8.75zm-10.27-2.91h-3.71l1.86-4.71zm2.35 2.91-3.53-8.75h-1.35l-3.52 8.75h1.25l.77-1.94h4.35l.77 1.94zm-12.62 0v-7.78h2.78v-.97h-6.64v.97h2.77v7.78zm-9.67.15c.78-.01 1.41-.14 1.89-.38.47-.25.82-.57 1.03-.95.21-.39.32-.8.31-1.23-.01-.64-.19-1.14-.54-1.49s-.77-.62-1.29-.8c-.51-.18-1.02-.33-1.53-.46s-.94-.29-1.29-.49-.52-.49-.54-.87c.01-.42.18-.75.51-1.01.33-.25.76-.38 1.29-.39.48 0 .94.08 1.38.25s.82.44 1.15.8l.65-.8c-.37-.39-.81-.69-1.33-.9s-1.11-.32-1.78-.32c-.88.01-1.59.23-2.15.67-.55.44-.84 1.02-.86 1.75.01.61.19 1.08.54 1.41s.77.57 1.28.74 1.02.32 1.53.45.94.31 1.28.53c.35.22.53.56.54 1 .01.36-.14.69-.44 1.01-.31.31-.85.48-1.62.5-.62-.01-1.16-.14-1.62-.38s-.84-.53-1.13-.86l-.64.83c.36.41.82.75 1.38 1 .58.26 1.24.39 2 .39zm-7.79-3.06h-3.71l1.86-4.71zm2.35 2.91-3.53-8.75h-1.35l-3.51 8.75h1.25l.77-1.94h4.35l.77 1.94zm-14.76-.82c-1-.02-1.78-.36-2.35-1.02-.57-.65-.86-1.49-.87-2.53.01-1.04.3-1.89.87-2.55.57-.65 1.35-.99 2.35-1.01.99.02 1.77.36 2.34 1.01s.86 1.5.87 2.55c-.01 1.04-.3 1.88-.87 2.54s-1.35.99-2.34 1.01zm0 .97c.87-.01 1.63-.21 2.27-.6.65-.39 1.15-.93 1.52-1.6.36-.68.55-1.45.55-2.32-.01-.87-.19-1.64-.55-2.32s-.87-1.21-1.52-1.6-1.41-.59-2.27-.6c-.87.01-1.63.21-2.28.6s-1.15.93-1.51 1.6c-.36.68-.54 1.45-.55 2.32.01.87.19 1.64.55 2.32s.86 1.21 1.51 1.6c.64.4 1.4.6 2.28.6zm-10.36 0c.77-.01 1.43-.17 1.97-.49s1-.73 1.36-1.24l-.93-.51c-.26.38-.59.69-1.01.92s-.88.35-1.39.36c-.98-.02-1.78-.35-2.4-1s-.95-1.5-.97-2.56c.02-1.06.34-1.91.97-2.56.62-.65 1.43-.98 2.4-1 .5.01.97.13 1.39.36s.76.54 1.01.91l.92-.51c-.35-.5-.79-.91-1.34-1.23s-1.21-.49-1.98-.5c-.85.01-1.61.2-2.29.58s-1.21.9-1.61 1.58-.6 1.47-.61 2.37c.01.9.21 1.69.61 2.37s.93 1.2 1.61 1.58 1.44.57 2.29.57z" fill="#093f61" fill-rule="evenodd"/></g><path d="m24.56 45.27c.04-.41 5.2-.29 11.53.27 6.33.55 11.44 1.33 11.4 1.74l-.47 5.37c-7.43-1.49-15.28-3.83-22.72-4.37z" fill="#f19610"/><path clip-rule="evenodd" d="m68.55 52.77c1.61-1.08 3.8-2.25 6.39-6.96-4.29 13.35-12.24 17.51-21.43 17.57-17.46.12-34.3-15.91-53.04-3.1 3.19-4.49 6.86-7.21 10.86-8.72 3.26-1.05 6.97-1.13 13.19.44 6.65 1.68 16.31 5.04 26.74 5.39s17.29-4.62 17.29-4.62z" fill="#00a2cc" fill-rule="evenodd"/><path d="m35.25 30.58-1.31 3.13 3.55.19 1.1-3.21zm.93-1.2.31-3.46c.03-.33.98-.41 1.81-.31l.26-3.74-1.38-.2-.33.77-.96-.06.21-2.74.9.05.27.9 2.39.06 1.24.37c.23.08.18.67-.05.72l-1 .18-.35 4.18-.26 3.71 1.64.33 2.77 5.69-.18.22-2.26-.24-1.71 1.1 2.69.57-.67 8.62c-1.12-.14-2.34-.27-3.65-.4l.52-6.79-2.67-.52-.66 7.05c-1.57-.13-3.06-.23-4.38-.3l.77-8.79 3.12-.42-.71-.92-2.83-.06-.28-.23 3.71-5.34z" fill="#093f61"/><path d="m64.77 61.28c-6.16 5.43-14.26 8.72-23.12 8.72-10.22 0-19.42-4.38-25.82-11.37 12.79-1.21 27.51 8.55 40.55 5.85 3.12-.65 5.91-1.59 8.39-3.2zm-8.1-7.39c3.54-2.82 6.27-6.61 7.78-10.96h-14.4l-5.6-11.44h32.12c.05.79.08 2.71.08 3.51 0 1.28-.07 2.54-.2 3.78-.15 1.41-.39 2.8-.7 4.15-.15.65-.32 1.3-.51 1.93-.2.65-.3.95-.46 1.22-4.15 6.77-10.94 8.29-18.11 7.81zm-50.02-18.89c0-19.33 15.67-35 35-35 13.25 0 24.78 7.36 30.72 18.22l-9.63 5.05c-4.12-7.4-12.03-12.41-21.1-12.41-13.33 0-24.13 10.8-24.13 24.13 0 5.67 1.95 10.88 5.22 14.99 11.46.52 23.98 5.71 34.55 5.71 4.11 0 7.93-.78 11.26-2.93 0 0-6.86 4.97-17.29 4.62-10.42-.34-20.08-3.7-26.73-5.38-6.22-1.57-9.93-1.49-13.19-.44l-.43.17c-2.71-4.98-4.25-10.67-4.25-16.73z" fill="#093f61"/></svg>